<mxfile host="app.diagrams.net" modified="2024-04-09T07:06:35.265Z" agent="Mozilla/5.0 (Macintosh; Intel Mac OS X 10_15_7) AppleWebKit/537.36 (KHTML, like Gecko) Chrome/123.0.0.0 Safari/537.36" etag="iFSUH3tGNSbfn5VeYae9" version="24.2.3" type="device">
  <diagram name="Page-1" id="86SuVy9WTyQsxM9a-52B">
    <mxGraphModel dx="2284" dy="761" grid="1" gridSize="10" guides="1" tooltips="1" connect="1" arrows="1" fold="1" page="1" pageScale="1" pageWidth="850" pageHeight="1100" math="0" shadow="0">
      <root>
        <mxCell id="0" />
        <mxCell id="1" parent="0" />
        <mxCell id="VyQH4mWXrcuoPS3cHLpN-5" value="" style="rounded=1;whiteSpace=wrap;html=1;" parent="1" vertex="1">
          <mxGeometry x="-354" y="193" width="190" height="167" as="geometry" />
        </mxCell>
        <mxCell id="Rm11WEUQjzfcoIPD6hnw-137" value="" style="whiteSpace=wrap;html=1;" parent="1" vertex="1">
          <mxGeometry x="930" y="350" width="170" height="100" as="geometry" />
        </mxCell>
        <mxCell id="U8NHltKQ1rlB9dk0PbJg-98" value="" style="rounded=0;whiteSpace=wrap;html=1;strokeColor=none;fillColor=#ead1d1;gradientColor=none;" parent="1" vertex="1">
          <mxGeometry x="-380" y="616" width="940" height="694" as="geometry" />
        </mxCell>
        <mxCell id="Rm11WEUQjzfcoIPD6hnw-69" value="APP NS" style="rounded=1;whiteSpace=wrap;html=1;arcSize=3;labelPosition=center;verticalLabelPosition=top;align=center;verticalAlign=bottom;" parent="1" vertex="1">
          <mxGeometry x="256" y="670" width="250" height="510" as="geometry" />
        </mxCell>
        <mxCell id="Rm11WEUQjzfcoIPD6hnw-67" value="Ramen NS" style="rounded=1;whiteSpace=wrap;html=1;arcSize=3;labelPosition=center;verticalLabelPosition=top;align=center;verticalAlign=bottom;" parent="1" vertex="1">
          <mxGeometry x="-350" y="672" width="380" height="448" as="geometry" />
        </mxCell>
        <mxCell id="U8NHltKQ1rlB9dk0PbJg-96" value="" style="rounded=0;whiteSpace=wrap;html=1;strokeColor=none;fillColor=#e0f9fb;gradientColor=none;" parent="1" vertex="1">
          <mxGeometry x="560" y="613" width="640" height="697" as="geometry" />
        </mxCell>
        <mxCell id="U8NHltKQ1rlB9dk0PbJg-3" value="" style="endArrow=none;dashed=1;html=1;rounded=0;strokeColor=#6666FF;strokeWidth=3;entryX=0;entryY=0;entryDx=0;entryDy=0;exitX=1;exitY=1;exitDx=0;exitDy=0;" parent="1" source="U8NHltKQ1rlB9dk0PbJg-98" target="U8NHltKQ1rlB9dk0PbJg-96" edge="1">
          <mxGeometry width="50" height="50" relative="1" as="geometry">
            <mxPoint x="559" y="1157" as="sourcePoint" />
            <mxPoint x="558.5" y="810" as="targetPoint" />
          </mxGeometry>
        </mxCell>
        <mxCell id="U8NHltKQ1rlB9dk0PbJg-4" value="&lt;font style=&quot;font-size: 18px;&quot;&gt;HUB&lt;/font&gt;" style="text;html=1;align=center;verticalAlign=middle;resizable=0;points=[];autosize=1;strokeColor=none;fillColor=none;" parent="1" vertex="1">
          <mxGeometry x="530" y="578" width="60" height="40" as="geometry" />
        </mxCell>
        <mxCell id="U8NHltKQ1rlB9dk0PbJg-5" value="&lt;font style=&quot;font-size: 18px;&quot;&gt;DR1&lt;/font&gt;" style="text;html=1;align=center;verticalAlign=middle;resizable=0;points=[];autosize=1;strokeColor=none;fillColor=none;" parent="1" vertex="1">
          <mxGeometry x="498.5" y="613" width="60" height="40" as="geometry" />
        </mxCell>
        <mxCell id="U8NHltKQ1rlB9dk0PbJg-6" value="&lt;font style=&quot;font-size: 18px;&quot;&gt;DR2&lt;/font&gt;" style="text;html=1;align=center;verticalAlign=middle;resizable=0;points=[];autosize=1;strokeColor=none;fillColor=none;" parent="1" vertex="1">
          <mxGeometry x="565" y="613" width="60" height="40" as="geometry" />
        </mxCell>
        <mxCell id="U8NHltKQ1rlB9dk0PbJg-94" value="0" style="ellipse;whiteSpace=wrap;html=1;aspect=fixed;fillColor=#00CC00;strokeColor=#00CC00;fontColor=#ffffff;" parent="1" vertex="1">
          <mxGeometry x="-20" y="180" width="20" height="20" as="geometry" />
        </mxCell>
        <mxCell id="U8NHltKQ1rlB9dk0PbJg-125" value="RamenAgent" style="rounded=0;whiteSpace=wrap;html=1;labelPosition=center;verticalLabelPosition=middle;align=center;verticalAlign=middle;" parent="1" vertex="1">
          <mxGeometry x="-220" y="860" width="230" height="150" as="geometry" />
        </mxCell>
        <mxCell id="U8NHltKQ1rlB9dk0PbJg-2" value="" style="endArrow=none;dashed=1;html=1;rounded=0;strokeColor=#6666FF;strokeWidth=3;exitX=0;exitY=0;exitDx=0;exitDy=0;entryX=1;entryY=0;entryDx=0;entryDy=0;" parent="1" source="U8NHltKQ1rlB9dk0PbJg-98" target="U8NHltKQ1rlB9dk0PbJg-96" edge="1">
          <mxGeometry width="50" height="50" relative="1" as="geometry">
            <mxPoint x="10" y="613" as="sourcePoint" />
            <mxPoint x="1070" y="613" as="targetPoint" />
          </mxGeometry>
        </mxCell>
        <mxCell id="Rm11WEUQjzfcoIPD6hnw-1" value="DRPC Controller" style="rounded=1;whiteSpace=wrap;html=1;arcSize=9;align=center;horizontal=1;labelPosition=center;verticalLabelPosition=middle;verticalAlign=middle;" parent="1" vertex="1">
          <mxGeometry x="407.5" y="268" width="250" height="130" as="geometry" />
        </mxCell>
        <mxCell id="Rm11WEUQjzfcoIPD6hnw-13" value="Disable OCM schedule" style="text;html=1;align=center;verticalAlign=middle;resizable=0;points=[];autosize=1;strokeColor=none;fillColor=none;" parent="1" vertex="1">
          <mxGeometry x="-6" y="175" width="150" height="30" as="geometry" />
        </mxCell>
        <mxCell id="Rm11WEUQjzfcoIPD6hnw-21" value="" style="group;labelPosition=center;verticalLabelPosition=top;align=center;verticalAlign=bottom;" parent="1" vertex="1" connectable="0">
          <mxGeometry x="279.88" y="770" width="202.25" height="120" as="geometry" />
        </mxCell>
        <mxCell id="Rm11WEUQjzfcoIPD6hnw-15" value="Application" style="rounded=0;whiteSpace=wrap;html=1;labelPosition=center;verticalLabelPosition=top;align=center;verticalAlign=bottom;" parent="Rm11WEUQjzfcoIPD6hnw-21" vertex="1">
          <mxGeometry width="202.25" height="120" as="geometry" />
        </mxCell>
        <mxCell id="Rm11WEUQjzfcoIPD6hnw-17" value="Deployment" style="whiteSpace=wrap;html=1;" parent="Rm11WEUQjzfcoIPD6hnw-21" vertex="1">
          <mxGeometry x="46.13" y="7" width="110" height="30" as="geometry" />
        </mxCell>
        <mxCell id="Rm11WEUQjzfcoIPD6hnw-19" value="PVC1&lt;br&gt;cephs" style="whiteSpace=wrap;html=1;" parent="Rm11WEUQjzfcoIPD6hnw-21" vertex="1">
          <mxGeometry x="21.120000000000005" y="63" width="75" height="42" as="geometry" />
        </mxCell>
        <mxCell id="Rm11WEUQjzfcoIPD6hnw-20" value="PVC2&lt;div&gt;ceph&lt;/div&gt;" style="whiteSpace=wrap;html=1;" parent="Rm11WEUQjzfcoIPD6hnw-21" vertex="1">
          <mxGeometry x="116.12" y="63" width="70" height="42" as="geometry" />
        </mxCell>
        <mxCell id="Rm11WEUQjzfcoIPD6hnw-22" value="" style="endArrow=classic;html=1;rounded=0;exitX=0.5;exitY=0;exitDx=0;exitDy=0;entryX=0.5;entryY=1;entryDx=0;entryDy=0;" parent="1" source="Rm11WEUQjzfcoIPD6hnw-1" target="Rm11WEUQjzfcoIPD6hnw-4" edge="1">
          <mxGeometry width="50" height="50" relative="1" as="geometry">
            <mxPoint x="480.00000000000045" y="259" as="sourcePoint" />
            <mxPoint x="480.00000000000045" y="181" as="targetPoint" />
          </mxGeometry>
        </mxCell>
        <mxCell id="Rm11WEUQjzfcoIPD6hnw-23" value="Get action in spec. if there is no action, run initial deployment" style="text;html=1;align=center;verticalAlign=middle;resizable=0;points=[];autosize=1;strokeColor=none;fillColor=none;" parent="1" vertex="1">
          <mxGeometry x="566.5" y="164" width="350" height="30" as="geometry" />
        </mxCell>
        <mxCell id="Rm11WEUQjzfcoIPD6hnw-24" value="1" style="ellipse;whiteSpace=wrap;html=1;aspect=fixed;fillColor=#d80073;strokeColor=#A50040;fontColor=#ffffff;" parent="1" vertex="1">
          <mxGeometry x="550" y="169" width="20" height="20" as="geometry" />
        </mxCell>
        <mxCell id="Rm11WEUQjzfcoIPD6hnw-27" value="" style="endArrow=classic;html=1;rounded=0;exitX=0;exitY=0.5;exitDx=0;exitDy=0;entryX=0.5;entryY=0;entryDx=0;entryDy=0;" parent="1" source="Rm11WEUQjzfcoIPD6hnw-1" target="Rm11WEUQjzfcoIPD6hnw-30" edge="1">
          <mxGeometry width="50" height="50" relative="1" as="geometry">
            <mxPoint x="585" y="278" as="sourcePoint" />
            <mxPoint x="585" y="200" as="targetPoint" />
            <Array as="points">
              <mxPoint x="381" y="333" />
            </Array>
          </mxGeometry>
        </mxCell>
        <mxCell id="Rm11WEUQjzfcoIPD6hnw-28" value="Create VRG MW in home cluster NS" style="text;html=1;align=center;verticalAlign=middle;resizable=0;points=[];autosize=1;strokeColor=none;fillColor=none;" parent="1" vertex="1">
          <mxGeometry x="291.5" y="434" width="220" height="30" as="geometry" />
        </mxCell>
        <mxCell id="Rm11WEUQjzfcoIPD6hnw-29" value="3" style="ellipse;whiteSpace=wrap;html=1;aspect=fixed;fillColor=#d80073;strokeColor=#A50040;fontColor=#ffffff;" parent="1" vertex="1">
          <mxGeometry x="276" y="437" width="20" height="20" as="geometry" />
        </mxCell>
        <mxCell id="Rm11WEUQjzfcoIPD6hnw-32" value="" style="endArrow=classic;html=1;rounded=0;entryX=0.5;entryY=0;entryDx=0;entryDy=0;exitX=0.5;exitY=1;exitDx=0;exitDy=0;" parent="1" source="Rm11WEUQjzfcoIPD6hnw-30" target="Rm11WEUQjzfcoIPD6hnw-25" edge="1">
          <mxGeometry width="50" height="50" relative="1" as="geometry">
            <mxPoint x="390" y="520" as="sourcePoint" />
            <mxPoint x="610" y="700" as="targetPoint" />
          </mxGeometry>
        </mxCell>
        <mxCell id="Rm11WEUQjzfcoIPD6hnw-50" value="" style="endArrow=classic;html=1;rounded=0;entryX=0;entryY=0.5;entryDx=0;entryDy=0;exitX=0.888;exitY=-0.002;exitDx=0;exitDy=0;exitPerimeter=0;" parent="1" source="U8NHltKQ1rlB9dk0PbJg-125" target="Rm11WEUQjzfcoIPD6hnw-25" edge="1">
          <mxGeometry width="50" height="50" relative="1" as="geometry">
            <mxPoint x="200" y="735" as="sourcePoint" />
            <mxPoint x="406" y="683" as="targetPoint" />
            <Array as="points">
              <mxPoint x="-16" y="735" />
              <mxPoint x="240" y="735" />
            </Array>
          </mxGeometry>
        </mxCell>
        <mxCell id="Rm11WEUQjzfcoIPD6hnw-51" value="Validate VRG&lt;div&gt;&lt;span style=&quot;&quot;&gt;- replicationState should be&amp;nbsp;&lt;/span&gt;&lt;/div&gt;&lt;div&gt;&lt;span style=&quot;&quot;&gt;&amp;nbsp; primary or secondart&lt;/span&gt;&lt;div style=&quot;&quot;&gt;- sync or async shoule be specify&lt;/div&gt;&lt;/div&gt;" style="text;html=1;align=left;verticalAlign=middle;resizable=0;points=[];autosize=1;strokeColor=none;fillColor=none;" parent="1" vertex="1">
          <mxGeometry x="52.12" y="662" width="200" height="70" as="geometry" />
        </mxCell>
        <mxCell id="Rm11WEUQjzfcoIPD6hnw-52" value="5" style="ellipse;whiteSpace=wrap;html=1;aspect=fixed;fillColor=#3333FF;strokeColor=#3333FF;fontColor=#ffffff;" parent="1" vertex="1">
          <mxGeometry x="31.12" y="665" width="20" height="20" as="geometry" />
        </mxCell>
        <mxCell id="Rm11WEUQjzfcoIPD6hnw-53" value="CONSTRUCT S3CLIENT&lt;div&gt;- build s3 client based on s3 Profiles in VRG&lt;/div&gt;" style="text;html=1;align=left;verticalAlign=middle;resizable=0;points=[];autosize=1;strokeColor=none;fillColor=none;" parent="1" vertex="1">
          <mxGeometry x="-335" y="793" width="260" height="40" as="geometry" />
        </mxCell>
        <mxCell id="Rm11WEUQjzfcoIPD6hnw-54" value="7" style="ellipse;whiteSpace=wrap;html=1;aspect=fixed;fillColor=#3333FF;strokeColor=#3333FF;fontColor=#ffffff;" parent="1" vertex="1">
          <mxGeometry x="-360" y="793" width="20" height="20" as="geometry" />
        </mxCell>
        <mxCell id="Rm11WEUQjzfcoIPD6hnw-55" value="Update PVC list&lt;div&gt;- Get PVCs by pvcSelector in VRG&lt;/div&gt;&lt;div&gt;&amp;nbsp; but&amp;nbsp;&lt;span style=&quot;background-color: initial;&quot;&gt;exclude label&amp;nbsp;&lt;/span&gt;&lt;/div&gt;&lt;div&gt;&lt;span style=&quot;background-color: initial;&quot;&gt;&amp;nbsp; `app.kubernetes.io/created-by:volsync`&lt;/span&gt;&lt;/div&gt;&lt;div&gt;- Based on RepiicationClass, t&lt;span style=&quot;background-color: initial;&quot;&gt;riage PVCs&lt;/span&gt;&lt;/div&gt;" style="text;html=1;align=left;verticalAlign=middle;resizable=0;points=[];autosize=1;strokeColor=none;fillColor=none;" parent="1" vertex="1">
          <mxGeometry x="52.12" y="730" width="240" height="90" as="geometry" />
        </mxCell>
        <mxCell id="Rm11WEUQjzfcoIPD6hnw-56" value="6" style="ellipse;whiteSpace=wrap;html=1;aspect=fixed;fillColor=#3333FF;strokeColor=#3333FF;fontColor=#ffffff;" parent="1" vertex="1">
          <mxGeometry x="31.12" y="738" width="20" height="20" as="geometry" />
        </mxCell>
        <mxCell id="Rm11WEUQjzfcoIPD6hnw-58" value="Create rs for each pvc&lt;br&gt;&lt;b&gt;NOTE&lt;/b&gt;: Create a readonly SC&amp;nbsp;&lt;br&gt;and use this SC in RS&lt;br&gt;if storageClass.Provisioner !=&amp;nbsp;&lt;div&gt;v.defaultCephFSCSIDriverName&lt;/div&gt;" style="text;html=1;align=left;verticalAlign=middle;resizable=0;points=[];autosize=1;strokeColor=none;fillColor=none;" parent="1" vertex="1">
          <mxGeometry x="56" y="899" width="200" height="90" as="geometry" />
        </mxCell>
        <mxCell id="Rm11WEUQjzfcoIPD6hnw-59" value="8" style="ellipse;whiteSpace=wrap;html=1;aspect=fixed;fillColor=#3333FF;strokeColor=#3333FF;fontColor=#ffffff;" parent="1" vertex="1">
          <mxGeometry x="31.12" y="820" width="20" height="20" as="geometry" />
        </mxCell>
        <mxCell id="Rm11WEUQjzfcoIPD6hnw-61" value="9" style="ellipse;whiteSpace=wrap;html=1;aspect=fixed;fillColor=#3333FF;strokeColor=#3333FF;fontColor=#ffffff;" parent="1" vertex="1">
          <mxGeometry x="32.12" y="916" width="20" height="20" as="geometry" />
        </mxCell>
        <mxCell id="Rm11WEUQjzfcoIPD6hnw-62" value="Update pvc to&amp;nbsp;.Status.ProtectedPVCs" style="text;html=1;align=left;verticalAlign=middle;resizable=0;points=[];autosize=1;strokeColor=none;fillColor=none;" parent="1" vertex="1">
          <mxGeometry x="56" y="815" width="220" height="30" as="geometry" />
        </mxCell>
        <mxCell id="Rm11WEUQjzfcoIPD6hnw-65" value="" style="endArrow=classic;html=1;rounded=0;exitX=0.5;exitY=0;exitDx=0;exitDy=0;entryX=0;entryY=0.25;entryDx=0;entryDy=0;" parent="1" source="Rm11WEUQjzfcoIPD6hnw-33" target="Rm11WEUQjzfcoIPD6hnw-1" edge="1">
          <mxGeometry width="50" height="50" relative="1" as="geometry">
            <mxPoint x="590" y="510" as="sourcePoint" />
            <mxPoint x="640" y="460" as="targetPoint" />
            <Array as="points">
              <mxPoint x="180" y="300" />
            </Array>
          </mxGeometry>
        </mxCell>
        <mxCell id="Rm11WEUQjzfcoIPD6hnw-66" value="Update Placement Decision" style="text;html=1;align=center;verticalAlign=middle;resizable=0;points=[];autosize=1;strokeColor=none;fillColor=none;" parent="1" vertex="1">
          <mxGeometry x="232" y="190" width="170" height="30" as="geometry" />
        </mxCell>
        <mxCell id="Rm11WEUQjzfcoIPD6hnw-72" value="2" style="ellipse;whiteSpace=wrap;html=1;aspect=fixed;fillColor=#d80073;strokeColor=#A50040;fontColor=#ffffff;" parent="1" vertex="1">
          <mxGeometry x="550" y="205" width="20" height="20" as="geometry" />
        </mxCell>
        <mxCell id="Rm11WEUQjzfcoIPD6hnw-75" value="Get home cluster from Spec.PreferredCluster" style="text;html=1;align=center;verticalAlign=middle;resizable=0;points=[];autosize=1;strokeColor=none;fillColor=none;" parent="1" vertex="1">
          <mxGeometry x="572" y="200" width="260" height="30" as="geometry" />
        </mxCell>
        <mxCell id="Rm11WEUQjzfcoIPD6hnw-82" value="" style="endArrow=classic;html=1;rounded=0;exitX=0;exitY=0.5;exitDx=0;exitDy=0;entryX=0;entryY=0.5;entryDx=0;entryDy=0;" parent="1" source="U8NHltKQ1rlB9dk0PbJg-125" target="U8NHltKQ1rlB9dk0PbJg-121" edge="1">
          <mxGeometry width="50" height="50" relative="1" as="geometry">
            <mxPoint x="440" y="910" as="sourcePoint" />
            <mxPoint x="490" y="860" as="targetPoint" />
            <Array as="points">
              <mxPoint x="-290" y="935" />
              <mxPoint x="-290" y="710" />
            </Array>
          </mxGeometry>
        </mxCell>
        <mxCell id="Rm11WEUQjzfcoIPD6hnw-85" value="" style="endArrow=classic;html=1;rounded=0;entryX=0;entryY=0.5;entryDx=0;entryDy=0;" parent="1" target="jeuQz1zi4D_dj_DM9fPx-1" edge="1">
          <mxGeometry width="50" height="50" relative="1" as="geometry">
            <mxPoint x="10" y="990" as="sourcePoint" />
            <mxPoint x="80" y="890" as="targetPoint" />
            <Array as="points">
              <mxPoint x="230" y="990" />
              <mxPoint x="230" y="930" />
            </Array>
          </mxGeometry>
        </mxCell>
        <mxCell id="Rm11WEUQjzfcoIPD6hnw-87" value="" style="endArrow=classic;html=1;rounded=0;entryX=0;entryY=0;entryDx=0;entryDy=0;" parent="1" target="Rm11WEUQjzfcoIPD6hnw-39" edge="1">
          <mxGeometry width="50" height="50" relative="1" as="geometry">
            <mxPoint x="210" y="990" as="sourcePoint" />
            <mxPoint x="80" y="810" as="targetPoint" />
            <Array as="points" />
          </mxGeometry>
        </mxCell>
        <mxCell id="U8NHltKQ1rlB9dk0PbJg-121" value="Configmap:&amp;nbsp;&lt;div&gt;ramen-dr-cluster-operator-config&lt;/div&gt;" style="swimlane;fontStyle=0;childLayout=stackLayout;horizontal=1;startSize=30;horizontalStack=0;resizeParent=1;resizeParentMax=0;resizeLast=0;collapsible=1;marginBottom=0;whiteSpace=wrap;html=1;" parent="1" vertex="1" collapsed="1">
          <mxGeometry x="-267.5" y="695" width="225" height="30" as="geometry">
            <mxRectangle x="-267.5" y="695" width="390" height="850" as="alternateBounds" />
          </mxGeometry>
        </mxCell>
        <mxCell id="U8NHltKQ1rlB9dk0PbJg-122" value="&lt;div&gt;apiVersion: v1&lt;/div&gt;&lt;div&gt;data:&lt;/div&gt;&lt;div&gt;&amp;nbsp; ramen_manager_config.yaml: |&lt;/div&gt;&lt;div&gt;&amp;nbsp; &amp;nbsp; apiVersion: ramendr.openshift.io/v1alpha1&lt;/div&gt;&lt;div&gt;&amp;nbsp; &amp;nbsp; drClusterOperator:&lt;/div&gt;&lt;div&gt;&amp;nbsp; &amp;nbsp; &amp;nbsp; catalogSourceName: ramen-catalog&lt;/div&gt;&lt;div&gt;&amp;nbsp; &amp;nbsp; &amp;nbsp; catalogSourceNamespaceName: ramen-system&lt;/div&gt;&lt;div&gt;&amp;nbsp; &amp;nbsp; &amp;nbsp; channelName: alpha&lt;/div&gt;&lt;div&gt;&amp;nbsp; &amp;nbsp; &amp;nbsp; clusterServiceVersionName: ramen-dr-cluster-operator.v0.0.1&lt;/div&gt;&lt;div&gt;&amp;nbsp; &amp;nbsp; &amp;nbsp; deploymentAutomationEnabled: true&lt;/div&gt;&lt;div&gt;&amp;nbsp; &amp;nbsp; &amp;nbsp; namespaceName: ramen-system&lt;/div&gt;&lt;div&gt;&amp;nbsp; &amp;nbsp; &amp;nbsp; packageName: ramen-dr-cluster-operator&lt;/div&gt;&lt;div&gt;&amp;nbsp; &amp;nbsp; &amp;nbsp; s3SecretDistributionEnabled: true&lt;/div&gt;&lt;div&gt;&amp;nbsp; &amp;nbsp; health:&lt;/div&gt;&lt;div&gt;&amp;nbsp; &amp;nbsp; &amp;nbsp; healthProbeBindAddress: :8081&lt;/div&gt;&lt;div&gt;&amp;nbsp; &amp;nbsp; kind: RamenConfig&lt;/div&gt;&lt;div&gt;&amp;nbsp; &amp;nbsp; kubeObjectProtection:&lt;/div&gt;&lt;div&gt;&amp;nbsp; &amp;nbsp; &amp;nbsp; veleroNamespaceName: velero&lt;/div&gt;&lt;div&gt;&amp;nbsp; &amp;nbsp; leaderElection:&lt;/div&gt;&lt;div&gt;&amp;nbsp; &amp;nbsp; &amp;nbsp; leaderElect: true&lt;/div&gt;&lt;div&gt;&amp;nbsp; &amp;nbsp; &amp;nbsp; leaseDuration: 0s&lt;/div&gt;&lt;div&gt;&amp;nbsp; &amp;nbsp; &amp;nbsp; renewDeadline: 0s&lt;/div&gt;&lt;div&gt;&amp;nbsp; &amp;nbsp; &amp;nbsp; resourceLock: &quot;&quot;&lt;/div&gt;&lt;div&gt;&amp;nbsp; &amp;nbsp; &amp;nbsp; resourceName: dr-cluster.ramendr.openshift.io&lt;/div&gt;&lt;div&gt;&amp;nbsp; &amp;nbsp; &amp;nbsp; resourceNamespace: &quot;&quot;&lt;/div&gt;&lt;div&gt;&amp;nbsp; &amp;nbsp; &amp;nbsp; retryPeriod: 0s&lt;/div&gt;&lt;div&gt;&amp;nbsp; &amp;nbsp; maxConcurrentReconciles: 50&lt;/div&gt;&lt;div&gt;&amp;nbsp; &amp;nbsp; metrics:&lt;/div&gt;&lt;div&gt;&amp;nbsp; &amp;nbsp; &amp;nbsp; bindAddress: 127.0.0.1:9289&lt;/div&gt;&lt;div&gt;&amp;nbsp; &amp;nbsp; multiNamespace: {}&lt;/div&gt;&lt;div&gt;&amp;nbsp; &amp;nbsp; ramenControllerType: dr-cluster&lt;/div&gt;&lt;div&gt;&amp;nbsp; &amp;nbsp; s3StoreProfiles:&lt;/div&gt;&lt;div&gt;&amp;nbsp; &amp;nbsp; - s3Bucket: bucket&lt;/div&gt;&lt;div&gt;&amp;nbsp; &amp;nbsp; &amp;nbsp; s3CompatibleEndpoint: http://192.168.122.116:30000&lt;/div&gt;&lt;div&gt;&amp;nbsp; &amp;nbsp; &amp;nbsp; s3ProfileName: minio-on-dr1&lt;/div&gt;&lt;div&gt;&amp;nbsp; &amp;nbsp; &amp;nbsp; s3Region: us-west-1&lt;/div&gt;&lt;div&gt;&amp;nbsp; &amp;nbsp; &amp;nbsp; s3SecretRef:&lt;/div&gt;&lt;div&gt;&amp;nbsp; &amp;nbsp; &amp;nbsp; &amp;nbsp; name: ramen-s3-secret-dr1&lt;/div&gt;&lt;div&gt;&amp;nbsp; &amp;nbsp; &amp;nbsp; &amp;nbsp; namespace: ramen-system&lt;/div&gt;&lt;div&gt;&amp;nbsp; &amp;nbsp; &amp;nbsp; veleroNamespaceSecretKeyRef:&lt;/div&gt;&lt;div&gt;&amp;nbsp; &amp;nbsp; &amp;nbsp; &amp;nbsp; key: cloud&lt;/div&gt;&lt;div&gt;&amp;nbsp; &amp;nbsp; &amp;nbsp; &amp;nbsp; name: cloud-credentials&lt;/div&gt;&lt;div&gt;&amp;nbsp; &amp;nbsp; - s3Bucket: bucket&lt;/div&gt;&lt;div&gt;&amp;nbsp; &amp;nbsp; &amp;nbsp; s3CompatibleEndpoint: http://192.168.122.147:30000&lt;/div&gt;&lt;div&gt;&amp;nbsp; &amp;nbsp; &amp;nbsp; s3ProfileName: minio-on-dr2&lt;/div&gt;&lt;div&gt;&amp;nbsp; &amp;nbsp; &amp;nbsp; s3Region: us-east-1&lt;/div&gt;&lt;div&gt;&amp;nbsp; &amp;nbsp; &amp;nbsp; s3SecretRef:&lt;/div&gt;&lt;div&gt;&amp;nbsp; &amp;nbsp; &amp;nbsp; &amp;nbsp; name: ramen-s3-secret-dr2&lt;/div&gt;&lt;div&gt;&amp;nbsp; &amp;nbsp; &amp;nbsp; &amp;nbsp; namespace: ramen-system&lt;/div&gt;&lt;div&gt;&amp;nbsp; &amp;nbsp; &amp;nbsp; veleroNamespaceSecretKeyRef:&lt;/div&gt;&lt;div&gt;&amp;nbsp; &amp;nbsp; &amp;nbsp; &amp;nbsp; key: cloud&lt;/div&gt;&lt;div&gt;&amp;nbsp; &amp;nbsp; &amp;nbsp; &amp;nbsp; name: cloud-credentials&lt;/div&gt;&lt;div&gt;&amp;nbsp; &amp;nbsp; volSync: {}&lt;/div&gt;&lt;div&gt;&amp;nbsp; &amp;nbsp; webhook:&lt;/div&gt;&lt;div&gt;&amp;nbsp; &amp;nbsp; &amp;nbsp; port: 9443&lt;/div&gt;&lt;div&gt;kind: ConfigMap&lt;/div&gt;&lt;div&gt;metadata:&lt;/div&gt;&lt;div&gt;&amp;nbsp; annotations:&lt;/div&gt;&lt;div&gt;&amp;nbsp; &amp;nbsp; kubectl.kubernetes.io/last-applied-configuration: |&lt;/div&gt;&lt;div&gt;&amp;nbsp; &amp;nbsp; &amp;nbsp; {&quot;apiVersion&quot;:&quot;v1&quot;,&quot;data&quot;:{&quot;ramen_manager_config.yaml&quot;:&quot;apiVersion: ramendr.openshift.io/v1alpha1\nkind: RamenConfig\nhealth:\n&amp;nbsp; healthProbeBindAddress: :8081\nmetrics:\n&amp;nbsp; bindAddress: 127.0.0.1:9289\nwebhook:\n&amp;nbsp; port: 9443\nleaderElection:\n&amp;nbsp; leaderElect: true\n&amp;nbsp; resourceName: dr-cluster.ramendr.openshift.io\nramenControllerType: dr-cluster\nmaxConcurrentReconciles: 50\nvolSync:\n&amp;nbsp; destinationCopyMethod: Direct\n&quot;},&quot;kind&quot;:&quot;ConfigMap&quot;,&quot;metadata&quot;:{&quot;annotations&quot;:{},&quot;name&quot;:&quot;ramen-dr-cluster-operator-config&quot;,&quot;namespace&quot;:&quot;ramen-system&quot;}}&lt;/div&gt;&lt;div&gt;&amp;nbsp; creationTimestamp: &quot;2024-04-03T03:04:25Z&quot;&lt;/div&gt;&lt;div&gt;&amp;nbsp; name: ramen-dr-cluster-operator-config&lt;/div&gt;&lt;div&gt;&amp;nbsp; namespace: ramen-system&lt;/div&gt;&lt;div&gt;&amp;nbsp; ownerReferences:&lt;/div&gt;&lt;div&gt;&amp;nbsp; - apiVersion: work.open-cluster-management.io/v1&lt;/div&gt;&lt;div&gt;&amp;nbsp; &amp;nbsp; kind: AppliedManifestWork&lt;/div&gt;&lt;div&gt;&amp;nbsp; &amp;nbsp; name: 8b4a44398ddb4f2707e665034e4abba63f5a1d7dec9b2f9dce8c9d4cd1fade06-ramen-dr-cluster&lt;/div&gt;&lt;div&gt;&amp;nbsp; &amp;nbsp; uid: d03cacba-e2a9-44f2-a214-231d30c1759d&lt;/div&gt;&lt;div&gt;&amp;nbsp; resourceVersion: &quot;27702&quot;&lt;/div&gt;&lt;div&gt;&amp;nbsp; uid: 08f98e00-1a90-4201-9d44-dd2812ab4b0f&lt;/div&gt;" style="text;strokeColor=none;fillColor=default;align=left;verticalAlign=middle;spacingLeft=4;spacingRight=4;overflow=hidden;points=[[0,0.5],[1,0.5]];portConstraint=eastwest;rotatable=0;whiteSpace=wrap;html=1;" parent="U8NHltKQ1rlB9dk0PbJg-121" vertex="1">
          <mxGeometry y="30" width="390" height="820" as="geometry" />
        </mxCell>
        <mxCell id="U8NHltKQ1rlB9dk0PbJg-139" value="Volsync" style="rounded=0;whiteSpace=wrap;html=1;" parent="1" vertex="1">
          <mxGeometry x="-222.5" y="1047" width="125" height="40" as="geometry" />
        </mxCell>
        <mxCell id="U8NHltKQ1rlB9dk0PbJg-60" value="s3secret-dr1" style="swimlane;fontStyle=0;childLayout=stackLayout;horizontal=1;startSize=30;horizontalStack=0;resizeParent=1;resizeParentMax=0;resizeLast=0;collapsible=1;marginBottom=0;whiteSpace=wrap;html=1;" parent="1" vertex="1" collapsed="1">
          <mxGeometry x="-152.5" y="738" width="110" height="30" as="geometry">
            <mxRectangle x="900" y="50" width="280" height="200" as="alternateBounds" />
          </mxGeometry>
        </mxCell>
        <mxCell id="U8NHltKQ1rlB9dk0PbJg-61" value="&lt;div&gt;apiVersion: v1&lt;/div&gt;&lt;div&gt;data:&lt;/div&gt;&lt;div&gt;&amp;nbsp; AWS_ACCESS_KEY_ID: bWluaW8=&lt;/div&gt;&lt;div&gt;&amp;nbsp; AWS_SECRET_ACCESS_KEY: bWluaW8xMjM=&lt;/div&gt;&lt;div&gt;kind: Secret&lt;/div&gt;&lt;div&gt;metadata:&lt;/div&gt;&lt;div&gt;&amp;nbsp; finalizers:&lt;/div&gt;&lt;div&gt;&amp;nbsp; - drpolicies.ramendr.openshift.io/policy-protection&lt;/div&gt;&lt;div&gt;&amp;nbsp; name: ramen-s3-secret-dr1&lt;/div&gt;&lt;div&gt;&amp;nbsp; namespace: ramen-system&lt;/div&gt;&lt;div&gt;type: Opaque&lt;/div&gt;" style="text;strokeColor=none;fillColor=default;align=left;verticalAlign=middle;spacingLeft=4;spacingRight=4;overflow=hidden;points=[[0,0.5],[1,0.5]];portConstraint=eastwest;rotatable=0;whiteSpace=wrap;html=1;" parent="U8NHltKQ1rlB9dk0PbJg-60" vertex="1">
          <mxGeometry y="30" width="280" height="170" as="geometry" />
        </mxCell>
        <mxCell id="U8NHltKQ1rlB9dk0PbJg-64" value="s3secret-dr2" style="swimlane;fontStyle=0;childLayout=stackLayout;horizontal=1;startSize=30;horizontalStack=0;resizeParent=1;resizeParentMax=0;resizeLast=0;collapsible=1;marginBottom=0;whiteSpace=wrap;html=1;" parent="1" vertex="1" collapsed="1">
          <mxGeometry x="-267.5" y="738" width="110" height="30" as="geometry">
            <mxRectangle x="95" y="820" width="290" height="200" as="alternateBounds" />
          </mxGeometry>
        </mxCell>
        <mxCell id="U8NHltKQ1rlB9dk0PbJg-65" value="&lt;div&gt;apiVersion: v1&lt;/div&gt;&lt;div&gt;data:&lt;/div&gt;&lt;div&gt;&amp;nbsp; AWS_ACCESS_KEY_ID: bWluaW8=&lt;/div&gt;&lt;div&gt;&amp;nbsp; AWS_SECRET_ACCESS_KEY: bWluaW8xMjM=&lt;/div&gt;&lt;div&gt;kind: Secret&lt;/div&gt;&lt;div&gt;metadata:&lt;/div&gt;&lt;div&gt;&amp;nbsp; finalizers:&lt;/div&gt;&lt;div&gt;&amp;nbsp; - drpolicies.ramendr.openshift.io/policy-protection&lt;/div&gt;&lt;div&gt;&amp;nbsp; name: ramen-s3-secret-dr2&lt;/div&gt;&lt;div&gt;&amp;nbsp; namespace: ramen-system&lt;/div&gt;&lt;div&gt;type: Opaque&lt;/div&gt;" style="text;strokeColor=none;fillColor=default;align=left;verticalAlign=middle;spacingLeft=4;spacingRight=4;overflow=hidden;points=[[0,0.5],[1,0.5]];portConstraint=eastwest;rotatable=0;whiteSpace=wrap;html=1;" parent="U8NHltKQ1rlB9dk0PbJg-64" vertex="1">
          <mxGeometry y="30" width="290" height="170" as="geometry" />
        </mxCell>
        <mxCell id="Rm11WEUQjzfcoIPD6hnw-96" value="" style="endArrow=classic;html=1;rounded=0;entryX=0;entryY=0.25;entryDx=0;entryDy=0;exitX=1;exitY=0.5;exitDx=0;exitDy=0;" parent="1" source="U8NHltKQ1rlB9dk0PbJg-139" target="Rm11WEUQjzfcoIPD6hnw-172" edge="1">
          <mxGeometry width="50" height="50" relative="1" as="geometry">
            <mxPoint x="-6" y="870" as="sourcePoint" />
            <mxPoint x="298" y="1070" as="targetPoint" />
            <Array as="points" />
          </mxGeometry>
        </mxCell>
        <mxCell id="Rm11WEUQjzfcoIPD6hnw-97" value="Take Snapshot for each pvc and&amp;nbsp;&lt;div&gt;restore to a&amp;nbsp;&lt;span style=&quot;background-color: initial;&quot;&gt;temp READONLY pvcs&amp;nbsp;&lt;/span&gt;&lt;/div&gt;" style="text;html=1;align=left;verticalAlign=middle;resizable=0;points=[];autosize=1;strokeColor=none;fillColor=none;" parent="1" vertex="1">
          <mxGeometry x="56" y="1035" width="210" height="40" as="geometry" />
        </mxCell>
        <mxCell id="Rm11WEUQjzfcoIPD6hnw-98" value="&lt;font color=&quot;#000000&quot;&gt;11&lt;/font&gt;" style="ellipse;whiteSpace=wrap;html=1;aspect=fixed;fillColor=#FFFF00;strokeColor=#FFFF00;fontColor=#ffffff;" parent="1" vertex="1">
          <mxGeometry x="30" y="1045" width="20" height="20" as="geometry" />
        </mxCell>
        <mxCell id="Rm11WEUQjzfcoIPD6hnw-100" value="S3 Client" style="whiteSpace=wrap;html=1;" parent="1" vertex="1">
          <mxGeometry x="-205" y="876" width="90" height="40" as="geometry" />
        </mxCell>
        <mxCell id="Rm11WEUQjzfcoIPD6hnw-101" value="Minio Object Store" style="whiteSpace=wrap;html=1;" parent="1" vertex="1">
          <mxGeometry x="20" y="1200" width="120" height="60" as="geometry" />
        </mxCell>
        <mxCell id="Rm11WEUQjzfcoIPD6hnw-102" value="" style="endArrow=classic;html=1;rounded=0;exitX=0;exitY=0.75;exitDx=0;exitDy=0;entryX=0;entryY=0.5;entryDx=0;entryDy=0;" parent="1" source="U8NHltKQ1rlB9dk0PbJg-125" target="Rm11WEUQjzfcoIPD6hnw-101" edge="1">
          <mxGeometry width="50" height="50" relative="1" as="geometry">
            <mxPoint x="30" y="1060" as="sourcePoint" />
            <mxPoint x="80" y="1010" as="targetPoint" />
            <Array as="points">
              <mxPoint x="-290" y="973" />
              <mxPoint x="-290" y="1230" />
            </Array>
          </mxGeometry>
        </mxCell>
        <mxCell id="Rm11WEUQjzfcoIPD6hnw-103" value="Upload primary vrg to S3 in both site" style="text;html=1;align=left;verticalAlign=middle;resizable=0;points=[];autosize=1;strokeColor=none;fillColor=none;" parent="1" vertex="1">
          <mxGeometry x="-230" y="1200" width="220" height="30" as="geometry" />
        </mxCell>
        <mxCell id="Rm11WEUQjzfcoIPD6hnw-104" value="10" style="ellipse;whiteSpace=wrap;html=1;aspect=fixed;fillColor=#3333FF;strokeColor=#3333FF;fontColor=#ffffff;" parent="1" vertex="1">
          <mxGeometry x="-250" y="1205" width="20" height="20" as="geometry" />
        </mxCell>
        <mxCell id="Rm11WEUQjzfcoIPD6hnw-105" value="Minio Object Store" style="whiteSpace=wrap;html=1;" parent="1" vertex="1">
          <mxGeometry x="710" y="1200" width="120" height="60" as="geometry" />
        </mxCell>
        <mxCell id="Rm11WEUQjzfcoIPD6hnw-106" value="" style="endArrow=classic;html=1;rounded=0;entryX=0;entryY=0.5;entryDx=0;entryDy=0;" parent="1" target="Rm11WEUQjzfcoIPD6hnw-105" edge="1">
          <mxGeometry width="50" height="50" relative="1" as="geometry">
            <mxPoint x="10" y="1230" as="sourcePoint" />
            <mxPoint x="170" y="1050" as="targetPoint" />
          </mxGeometry>
        </mxCell>
        <mxCell id="Rm11WEUQjzfcoIPD6hnw-107" value="get&lt;span style=&quot;&quot;&gt;&amp;nbsp;pvc protected&amp;nbsp;&lt;/span&gt;&lt;span style=&quot;background-color: initial;&quot;&gt;by volsync&amp;nbsp;&amp;nbsp;&lt;/span&gt;&lt;div&gt;&lt;span style=&quot;background-color: initial;&quot;&gt;from .Status.ProtectedPVCs in MCV&lt;/span&gt;&lt;span style=&quot;background-color: initial;&quot;&gt;&amp;nbsp;&lt;/span&gt;&lt;/div&gt;" style="text;html=1;align=left;verticalAlign=middle;resizable=0;points=[];autosize=1;strokeColor=none;fillColor=none;" parent="1" vertex="1">
          <mxGeometry x="97.5" y="340" width="220" height="40" as="geometry" />
        </mxCell>
        <mxCell id="Rm11WEUQjzfcoIPD6hnw-108" value="12" style="ellipse;whiteSpace=wrap;html=1;aspect=fixed;fillColor=#d80073;strokeColor=#A50040;fontColor=#ffffff;" parent="1" vertex="1">
          <mxGeometry x="72" y="343" width="20" height="20" as="geometry" />
        </mxCell>
        <mxCell id="Rm11WEUQjzfcoIPD6hnw-109" value="" style="endArrow=classic;html=1;rounded=0;exitX=0.5;exitY=1;exitDx=0;exitDy=0;entryX=0.25;entryY=0;entryDx=0;entryDy=0;" parent="1" source="Rm11WEUQjzfcoIPD6hnw-33" target="Rm11WEUQjzfcoIPD6hnw-25" edge="1">
          <mxGeometry width="50" height="50" relative="1" as="geometry">
            <mxPoint x="300" y="490" as="sourcePoint" />
            <mxPoint x="350" y="440" as="targetPoint" />
            <Array as="points">
              <mxPoint x="180" y="600" />
              <mxPoint x="329" y="600" />
            </Array>
          </mxGeometry>
        </mxCell>
        <mxCell id="Rm11WEUQjzfcoIPD6hnw-110" value="" style="endArrow=classic;html=1;rounded=0;exitX=0.134;exitY=-0.007;exitDx=0;exitDy=0;exitPerimeter=0;entryX=1;entryY=0.5;entryDx=0;entryDy=0;" parent="1" source="Rm11WEUQjzfcoIPD6hnw-1" target="Rm11WEUQjzfcoIPD6hnw-10" edge="1">
          <mxGeometry width="50" height="50" relative="1" as="geometry">
            <mxPoint x="300" y="360" as="sourcePoint" />
            <mxPoint x="350" y="310" as="targetPoint" />
            <Array as="points">
              <mxPoint x="441" y="225" />
              <mxPoint x="260" y="225" />
            </Array>
          </mxGeometry>
        </mxCell>
        <mxCell id="Rm11WEUQjzfcoIPD6hnw-111" value="4" style="ellipse;whiteSpace=wrap;html=1;aspect=fixed;fillColor=#d80073;strokeColor=#A50040;fontColor=#ffffff;" parent="1" vertex="1">
          <mxGeometry x="220" y="195" width="20" height="20" as="geometry" />
        </mxCell>
        <mxCell id="Rm11WEUQjzfcoIPD6hnw-113" value="APP NS" style="rounded=1;whiteSpace=wrap;html=1;arcSize=3;labelPosition=center;verticalLabelPosition=top;align=center;verticalAlign=bottom;" parent="1" vertex="1">
          <mxGeometry x="617.25" y="671" width="250" height="509" as="geometry" />
        </mxCell>
        <mxCell id="Rm11WEUQjzfcoIPD6hnw-116" value="" style="endArrow=classic;html=1;rounded=0;exitX=1;exitY=0.5;exitDx=0;exitDy=0;entryX=0.5;entryY=0;entryDx=0;entryDy=0;" parent="1" source="Rm11WEUQjzfcoIPD6hnw-1" target="Rm11WEUQjzfcoIPD6hnw-120" edge="1">
          <mxGeometry width="50" height="50" relative="1" as="geometry">
            <mxPoint x="610" y="640" as="sourcePoint" />
            <mxPoint x="660" y="590" as="targetPoint" />
            <Array as="points">
              <mxPoint x="742" y="333" />
            </Array>
          </mxGeometry>
        </mxCell>
        <mxCell id="Rm11WEUQjzfcoIPD6hnw-117" value="Create secondaryt VRG MW in dr2 cluster NS&lt;br&gt;WITHOUT RD SPEC" style="text;html=1;align=center;verticalAlign=middle;resizable=0;points=[];autosize=1;strokeColor=none;fillColor=none;" parent="1" vertex="1">
          <mxGeometry x="617.25" y="400" width="270" height="40" as="geometry" />
        </mxCell>
        <mxCell id="Rm11WEUQjzfcoIPD6hnw-118" value="13" style="ellipse;whiteSpace=wrap;html=1;aspect=fixed;fillColor=#d80073;strokeColor=#A50040;fontColor=#ffffff;" parent="1" vertex="1">
          <mxGeometry x="605" y="406" width="20" height="20" as="geometry" />
        </mxCell>
        <mxCell id="Rm11WEUQjzfcoIPD6hnw-122" value="" style="endArrow=classic;html=1;rounded=0;exitX=0.5;exitY=1;exitDx=0;exitDy=0;" parent="1" source="Rm11WEUQjzfcoIPD6hnw-120" target="Rm11WEUQjzfcoIPD6hnw-114" edge="1">
          <mxGeometry width="50" height="50" relative="1" as="geometry">
            <mxPoint x="337" y="539" as="sourcePoint" />
            <mxPoint x="337" y="729" as="targetPoint" />
          </mxGeometry>
        </mxCell>
        <mxCell id="Rm11WEUQjzfcoIPD6hnw-123" value="vs secret" style="swimlane;fontStyle=0;childLayout=stackLayout;horizontal=1;startSize=30;horizontalStack=0;resizeParent=1;resizeParentMax=0;resizeLast=0;collapsible=1;marginBottom=0;whiteSpace=wrap;html=1;" parent="1" vertex="1" collapsed="1">
          <mxGeometry x="963" y="363" width="90" height="30" as="geometry">
            <mxRectangle x="830" y="1180" width="1470" height="340" as="alternateBounds" />
          </mxGeometry>
        </mxCell>
        <mxCell id="Rm11WEUQjzfcoIPD6hnw-124" value="&lt;div&gt;apiVersion: v1&lt;/div&gt;&lt;div&gt;data:&lt;/div&gt;&lt;div&gt;&amp;nbsp; psk.txt: dm9sc3luY3JhbWVuOjQ4NWQ3ZGQ4MWQwMWYyYmE3MWZjNTE5ZmJkZGRiMWRmMDVhNjMzYTRhZTBjMzM0MDU2OGRkMDVlZDQ5MmZlNWY5YWJjMTJiMTExM2EyOGJjYzBlMzkzMDFlY2E1MGYzMTJiZjhhMjQxYWJkODlhMzM4MzRjODIzZDk2NzllODM3&lt;/div&gt;&lt;div&gt;kind: Secret&lt;/div&gt;&lt;div&gt;metadata:&lt;/div&gt;&lt;div&gt;&amp;nbsp; creationTimestamp: &quot;2024-04-07T07:30:11Z&quot;&lt;/div&gt;&lt;div&gt;&amp;nbsp; labels:&lt;/div&gt;&lt;div&gt;&amp;nbsp; &amp;nbsp; cluster.open-cluster-management.io/backup: ramen&lt;/div&gt;&lt;div&gt;&amp;nbsp; name: deployment-cephfs-drpc-vs-secret-hub&lt;/div&gt;&lt;div&gt;&amp;nbsp; namespace: deployment-cephfs&lt;/div&gt;&lt;div&gt;&amp;nbsp; ownerReferences:&lt;/div&gt;&lt;div&gt;&amp;nbsp; - apiVersion: ramendr.openshift.io/v1alpha1&lt;/div&gt;&lt;div&gt;&amp;nbsp; &amp;nbsp; blockOwnerDeletion: true&lt;/div&gt;&lt;div&gt;&amp;nbsp; &amp;nbsp; controller: true&lt;/div&gt;&lt;div&gt;&amp;nbsp; &amp;nbsp; kind: DRPlacementControl&lt;/div&gt;&lt;div&gt;&amp;nbsp; &amp;nbsp; name: deployment-cephfs-drpc&lt;/div&gt;&lt;div&gt;&amp;nbsp; &amp;nbsp; uid: 3e846889-d6a6-4652-9198-0b9da0662790&lt;/div&gt;&lt;div&gt;&amp;nbsp; resourceVersion: &quot;32269&quot;&lt;/div&gt;&lt;div&gt;&amp;nbsp; uid: 012ec379-80fe-4c58-b7d0-7fde7fdd6e67&lt;/div&gt;&lt;div&gt;type: Opaque&lt;/div&gt;" style="text;strokeColor=none;fillColor=default;align=left;verticalAlign=middle;spacingLeft=4;spacingRight=4;overflow=hidden;points=[[0,0.5],[1,0.5]];portConstraint=eastwest;rotatable=0;whiteSpace=wrap;html=1;" parent="Rm11WEUQjzfcoIPD6hnw-123" vertex="1">
          <mxGeometry y="30" width="1470" height="310" as="geometry" />
        </mxCell>
        <mxCell id="Rm11WEUQjzfcoIPD6hnw-127" value="" style="endArrow=classic;html=1;rounded=0;exitX=1;exitY=0.25;exitDx=0;exitDy=0;" parent="1" source="Rm11WEUQjzfcoIPD6hnw-1" edge="1">
          <mxGeometry width="50" height="50" relative="1" as="geometry">
            <mxPoint x="610" y="470" as="sourcePoint" />
            <mxPoint x="1010" y="350" as="targetPoint" />
            <Array as="points">
              <mxPoint x="780" y="300" />
              <mxPoint x="1010" y="300" />
            </Array>
          </mxGeometry>
        </mxCell>
        <mxCell id="Rm11WEUQjzfcoIPD6hnw-128" value="Generate volsync secret in APP NS&lt;div&gt;&amp;amp; propagate to dr1&amp;amp;dr2 clusters&lt;/div&gt;" style="text;html=1;align=center;verticalAlign=middle;resizable=0;points=[];autosize=1;strokeColor=none;fillColor=none;" parent="1" vertex="1">
          <mxGeometry x="776" y="262" width="210" height="40" as="geometry" />
        </mxCell>
        <mxCell id="Rm11WEUQjzfcoIPD6hnw-129" value="14" style="ellipse;whiteSpace=wrap;html=1;aspect=fixed;fillColor=#d80073;strokeColor=#A50040;fontColor=#ffffff;" parent="1" vertex="1">
          <mxGeometry x="756" y="272" width="20" height="20" as="geometry" />
        </mxCell>
        <mxCell id="Rm11WEUQjzfcoIPD6hnw-134" value="" style="endArrow=classic;html=1;rounded=0;entryX=1;entryY=0.5;entryDx=0;entryDy=0;jumpStyle=none;" parent="1" target="Rm11WEUQjzfcoIPD6hnw-132" edge="1">
          <mxGeometry width="50" height="50" relative="1" as="geometry">
            <mxPoint x="1012" y="450" as="sourcePoint" />
            <mxPoint x="1140" y="940" as="targetPoint" />
            <Array as="points">
              <mxPoint x="1012" y="560" />
              <mxPoint x="1180" y="560" />
              <mxPoint x="1180" y="1230" />
              <mxPoint x="930" y="1230" />
              <mxPoint x="930" y="1145" />
            </Array>
          </mxGeometry>
        </mxCell>
        <mxCell id="Rm11WEUQjzfcoIPD6hnw-135" value="vs secret policy" style="swimlane;fontStyle=0;childLayout=stackLayout;horizontal=1;startSize=30;horizontalStack=0;resizeParent=1;resizeParentMax=0;resizeLast=0;collapsible=1;marginBottom=0;whiteSpace=wrap;html=1;" parent="1" vertex="1" collapsed="1">
          <mxGeometry x="943" y="410" width="150" height="30" as="geometry">
            <mxRectangle x="950" y="558" width="530" height="940" as="alternateBounds" />
          </mxGeometry>
        </mxCell>
        <mxCell id="Rm11WEUQjzfcoIPD6hnw-136" value="&lt;div&gt;apiVersion: policy.open-cluster-management.io/v1&lt;/div&gt;&lt;div&gt;kind: Policy&lt;/div&gt;&lt;div&gt;metadata:&lt;/div&gt;&lt;div&gt;&amp;nbsp; creationTimestamp: &quot;2024-04-07T07:30:11Z&quot;&lt;/div&gt;&lt;div&gt;&amp;nbsp; generation: 1&lt;/div&gt;&lt;div&gt;&amp;nbsp; labels:&lt;/div&gt;&lt;div&gt;&amp;nbsp; &amp;nbsp; velero.io/exclude-from-backup: &quot;true&quot;&lt;/div&gt;&lt;div&gt;&amp;nbsp; name: deployment-cephfs-drpc-vs-secret&lt;/div&gt;&lt;div&gt;&amp;nbsp; namespace: deployment-cephfs&lt;/div&gt;&lt;div&gt;&amp;nbsp; ownerReferences:&lt;/div&gt;&lt;div&gt;&amp;nbsp; - apiVersion: ramendr.openshift.io/v1alpha1&lt;/div&gt;&lt;div&gt;&amp;nbsp; &amp;nbsp; blockOwnerDeletion: true&lt;/div&gt;&lt;div&gt;&amp;nbsp; &amp;nbsp; controller: true&lt;/div&gt;&lt;div&gt;&amp;nbsp; &amp;nbsp; kind: DRPlacementControl&lt;/div&gt;&lt;div&gt;&amp;nbsp; &amp;nbsp; name: deployment-cephfs-drpc&lt;/div&gt;&lt;div&gt;&amp;nbsp; &amp;nbsp; uid: 3e846889-d6a6-4652-9198-0b9da0662790&lt;/div&gt;&lt;div&gt;&amp;nbsp; resourceVersion: &quot;32327&quot;&lt;/div&gt;&lt;div&gt;&amp;nbsp; uid: e63e1063-7c43-4753-88d4-e21ce605aeea&lt;/div&gt;&lt;div&gt;spec:&lt;/div&gt;&lt;div&gt;&amp;nbsp; disabled: false&lt;/div&gt;&lt;div&gt;&amp;nbsp; policy-templates:&lt;/div&gt;&lt;div&gt;&amp;nbsp; - objectDefinition:&lt;/div&gt;&lt;div&gt;&amp;nbsp; &amp;nbsp; &amp;nbsp; apiVersion: policy.open-cluster-management.io/v1&lt;/div&gt;&lt;div&gt;&amp;nbsp; &amp;nbsp; &amp;nbsp; kind: ConfigurationPolicy&lt;/div&gt;&lt;div&gt;&amp;nbsp; &amp;nbsp; &amp;nbsp; metadata:&lt;/div&gt;&lt;div&gt;&amp;nbsp; &amp;nbsp; &amp;nbsp; &amp;nbsp; creationTimestamp: null&lt;/div&gt;&lt;div&gt;&amp;nbsp; &amp;nbsp; &amp;nbsp; &amp;nbsp; name: rmn-deployment-cephfs-deployment-cephfs-drpc-vs-secret&lt;/div&gt;&lt;div&gt;&amp;nbsp; &amp;nbsp; &amp;nbsp; spec:&lt;/div&gt;&lt;div&gt;&amp;nbsp; &amp;nbsp; &amp;nbsp; &amp;nbsp; evaluationInterval: {}&lt;/div&gt;&lt;div&gt;&amp;nbsp; &amp;nbsp; &amp;nbsp; &amp;nbsp; namespaceSelector: {}&lt;/div&gt;&lt;div&gt;&amp;nbsp; &amp;nbsp; &amp;nbsp; &amp;nbsp; object-templates:&lt;/div&gt;&lt;div&gt;&amp;nbsp; &amp;nbsp; &amp;nbsp; &amp;nbsp; - complianceType: Musthave&lt;/div&gt;&lt;div&gt;&amp;nbsp; &amp;nbsp; &amp;nbsp; &amp;nbsp; &amp;nbsp; objectDefinition:&lt;/div&gt;&lt;div&gt;&amp;nbsp; &amp;nbsp; &amp;nbsp; &amp;nbsp; &amp;nbsp; &amp;nbsp; apiVersion: v1&lt;/div&gt;&lt;div&gt;&amp;nbsp; &amp;nbsp; &amp;nbsp; &amp;nbsp; &amp;nbsp; &amp;nbsp; data:&lt;/div&gt;&lt;div&gt;&amp;nbsp; &amp;nbsp; &amp;nbsp; &amp;nbsp; &amp;nbsp; &amp;nbsp; &amp;nbsp; psk.txt: &#39;{{hub fromSecret &quot;deployment-cephfs&quot; &quot;deployment-cephfs-drpc-vs-secret-hub&quot;&lt;/div&gt;&lt;div&gt;&amp;nbsp; &amp;nbsp; &amp;nbsp; &amp;nbsp; &amp;nbsp; &amp;nbsp; &amp;nbsp; &amp;nbsp; &quot;psk.txt&quot; hub}}&#39;&lt;/div&gt;&lt;div&gt;&amp;nbsp; &amp;nbsp; &amp;nbsp; &amp;nbsp; &amp;nbsp; &amp;nbsp; kind: Secret&lt;/div&gt;&lt;div&gt;&amp;nbsp; &amp;nbsp; &amp;nbsp; &amp;nbsp; &amp;nbsp; &amp;nbsp; metadata:&lt;/div&gt;&lt;div&gt;&amp;nbsp; &amp;nbsp; &amp;nbsp; &amp;nbsp; &amp;nbsp; &amp;nbsp; &amp;nbsp; name: deployment-cephfs-drpc-vs-secret&lt;/div&gt;&lt;div&gt;&amp;nbsp; &amp;nbsp; &amp;nbsp; &amp;nbsp; &amp;nbsp; &amp;nbsp; &amp;nbsp; namespace: deployment-cephfs&lt;/div&gt;&lt;div&gt;&amp;nbsp; &amp;nbsp; &amp;nbsp; &amp;nbsp; &amp;nbsp; &amp;nbsp; type: Opaque&lt;/div&gt;&lt;div&gt;&amp;nbsp; &amp;nbsp; &amp;nbsp; &amp;nbsp; remediationAction: Enforce&lt;/div&gt;&lt;div&gt;&amp;nbsp; &amp;nbsp; &amp;nbsp; &amp;nbsp; severity: low&lt;/div&gt;&lt;div&gt;&amp;nbsp; &amp;nbsp; &amp;nbsp; status: {}&lt;/div&gt;&lt;div&gt;status:&lt;/div&gt;&lt;div&gt;&amp;nbsp; compliant: Compliant&lt;/div&gt;&lt;div&gt;&amp;nbsp; placement:&lt;/div&gt;&lt;div&gt;&amp;nbsp; - placementBinding: deployment-cephfs-drpc-vs-secret&lt;/div&gt;&lt;div&gt;&amp;nbsp; &amp;nbsp; placementRule: deployment-cephfs-drpc-vs-secret&lt;/div&gt;&lt;div&gt;&amp;nbsp; status:&lt;/div&gt;&lt;div&gt;&amp;nbsp; - clustername: dr1&lt;/div&gt;&lt;div&gt;&amp;nbsp; &amp;nbsp; clusternamespace: dr1&lt;/div&gt;&lt;div&gt;&amp;nbsp; &amp;nbsp; compliant: Compliant&lt;/div&gt;&lt;div&gt;&amp;nbsp; - clustername: dr2&lt;/div&gt;&lt;div&gt;&amp;nbsp; &amp;nbsp; clusternamespace: dr2&lt;/div&gt;&lt;div&gt;&amp;nbsp; &amp;nbsp; compliant: Compliant&lt;/div&gt;" style="text;strokeColor=none;fillColor=default;align=left;verticalAlign=middle;spacingLeft=4;spacingRight=4;overflow=hidden;points=[[0,0.5],[1,0.5]];portConstraint=eastwest;rotatable=0;whiteSpace=wrap;html=1;" parent="Rm11WEUQjzfcoIPD6hnw-135" vertex="1">
          <mxGeometry y="30" width="530" height="910" as="geometry" />
        </mxCell>
        <mxCell id="Rm11WEUQjzfcoIPD6hnw-139" value="" style="endArrow=classic;html=1;rounded=0;entryX=1;entryY=0.5;entryDx=0;entryDy=0;" parent="1" target="Rm11WEUQjzfcoIPD6hnw-130" edge="1">
          <mxGeometry width="50" height="50" relative="1" as="geometry">
            <mxPoint x="800" y="1145" as="sourcePoint" />
            <mxPoint x="940" y="820" as="targetPoint" />
          </mxGeometry>
        </mxCell>
        <mxCell id="Rm11WEUQjzfcoIPD6hnw-140" value="Update secondaryt VRG MW in dr2 cluster NS&lt;br&gt;WITH RD SPEC" style="text;html=1;align=center;verticalAlign=middle;resizable=0;points=[];autosize=1;strokeColor=none;fillColor=none;" parent="1" vertex="1">
          <mxGeometry x="617.25" y="450" width="270" height="40" as="geometry" />
        </mxCell>
        <mxCell id="Rm11WEUQjzfcoIPD6hnw-141" value="15" style="ellipse;whiteSpace=wrap;html=1;aspect=fixed;fillColor=#d80073;strokeColor=#A50040;fontColor=#ffffff;" parent="1" vertex="1">
          <mxGeometry x="605" y="450" width="20" height="20" as="geometry" />
        </mxCell>
        <mxCell id="Rm11WEUQjzfcoIPD6hnw-142" value="Ramen NS" style="rounded=1;whiteSpace=wrap;html=1;arcSize=3;labelPosition=center;verticalLabelPosition=top;align=center;verticalAlign=bottom;" parent="1" vertex="1">
          <mxGeometry x="970" y="670" width="160" height="510" as="geometry" />
        </mxCell>
        <mxCell id="Rm11WEUQjzfcoIPD6hnw-143" value="RamenAgent" style="rounded=0;whiteSpace=wrap;html=1;labelPosition=center;verticalLabelPosition=middle;align=center;verticalAlign=middle;" parent="1" vertex="1">
          <mxGeometry x="989.62" y="769" width="111.38" height="90" as="geometry" />
        </mxCell>
        <mxCell id="Rm11WEUQjzfcoIPD6hnw-149" value="Volsync" style="rounded=0;whiteSpace=wrap;html=1;" parent="1" vertex="1">
          <mxGeometry x="986.0000000000001" y="1124" width="125" height="40" as="geometry" />
        </mxCell>
        <mxCell id="Rm11WEUQjzfcoIPD6hnw-159" value="" style="endArrow=classic;html=1;rounded=0;exitX=0.008;exitY=0.558;exitDx=0;exitDy=0;exitPerimeter=0;entryX=1;entryY=0.5;entryDx=0;entryDy=0;jumpStyle=arc;" parent="1" source="Rm11WEUQjzfcoIPD6hnw-143" target="Rm11WEUQjzfcoIPD6hnw-155" edge="1">
          <mxGeometry width="50" height="50" relative="1" as="geometry">
            <mxPoint x="660" y="680" as="sourcePoint" />
            <mxPoint x="710" y="630" as="targetPoint" />
            <Array as="points">
              <mxPoint x="940" y="819" />
              <mxPoint x="940" y="837" />
            </Array>
          </mxGeometry>
        </mxCell>
        <mxCell id="Rm11WEUQjzfcoIPD6hnw-160" value="" style="endArrow=classic;html=1;rounded=0;entryX=1;entryY=0.5;entryDx=0;entryDy=0;jumpStyle=arc;" parent="1" target="Rm11WEUQjzfcoIPD6hnw-157" edge="1">
          <mxGeometry width="50" height="50" relative="1" as="geometry">
            <mxPoint x="940" y="830" as="sourcePoint" />
            <mxPoint x="850" y="942" as="targetPoint" />
            <Array as="points">
              <mxPoint x="940" y="878" />
            </Array>
          </mxGeometry>
        </mxCell>
        <mxCell id="Rm11WEUQjzfcoIPD6hnw-161" value="" style="endArrow=classic;html=1;rounded=0;exitX=1;exitY=0.5;exitDx=0;exitDy=0;jumpStyle=arc;entryX=0;entryY=0.25;entryDx=0;entryDy=0;" parent="1" source="Rm11WEUQjzfcoIPD6hnw-114" target="Rm11WEUQjzfcoIPD6hnw-143" edge="1">
          <mxGeometry width="50" height="50" relative="1" as="geometry">
            <mxPoint x="660" y="810" as="sourcePoint" />
            <mxPoint x="990" y="830" as="targetPoint" />
            <Array as="points">
              <mxPoint x="950" y="724" />
              <mxPoint x="950" y="793" />
            </Array>
          </mxGeometry>
        </mxCell>
        <mxCell id="Rm11WEUQjzfcoIPD6hnw-162" value="Create RD for each pvc in the vrg RD spec" style="text;html=1;align=center;verticalAlign=middle;resizable=0;points=[];autosize=1;strokeColor=none;fillColor=none;" parent="1" vertex="1">
          <mxGeometry x="730" y="790" width="250" height="30" as="geometry" />
        </mxCell>
        <mxCell id="Rm11WEUQjzfcoIPD6hnw-163" value="16" style="ellipse;whiteSpace=wrap;html=1;aspect=fixed;fillColor=#3333FF;strokeColor=#3333FF;fontColor=#ffffff;" parent="1" vertex="1">
          <mxGeometry x="718" y="794" width="20" height="20" as="geometry" />
        </mxCell>
        <mxCell id="Rm11WEUQjzfcoIPD6hnw-174" value="" style="endArrow=classic;html=1;rounded=0;entryX=1;entryY=1;entryDx=0;entryDy=0;exitX=0.5;exitY=0;exitDx=0;exitDy=0;jumpStyle=arc;" parent="1" source="Rm11WEUQjzfcoIPD6hnw-149" target="Rm11WEUQjzfcoIPD6hnw-164" edge="1">
          <mxGeometry width="50" height="50" relative="1" as="geometry">
            <mxPoint x="1103.6299999999997" y="1033" as="sourcePoint" />
            <mxPoint x="1119" y="1360" as="targetPoint" />
            <Array as="points">
              <mxPoint x="1049" y="1089" />
            </Array>
          </mxGeometry>
        </mxCell>
        <mxCell id="Rm11WEUQjzfcoIPD6hnw-175" value="create pvcs for each RD" style="text;html=1;align=left;verticalAlign=middle;resizable=0;points=[];autosize=1;strokeColor=none;fillColor=none;" parent="1" vertex="1">
          <mxGeometry x="852" y="1054" width="150" height="30" as="geometry" />
        </mxCell>
        <mxCell id="Rm11WEUQjzfcoIPD6hnw-176" value="&lt;font color=&quot;#000000&quot;&gt;18&lt;/font&gt;" style="ellipse;whiteSpace=wrap;html=1;aspect=fixed;fillColor=#FFFF00;strokeColor=#FFFF00;fontColor=#ffffff;" parent="1" vertex="1">
          <mxGeometry x="832" y="1059" width="20" height="20" as="geometry" />
        </mxCell>
        <mxCell id="MkOEYJJQF5hQHIa2r4AH-5" value="" style="endArrow=classic;html=1;rounded=0;entryX=1;entryY=0;entryDx=0;entryDy=0;exitX=0.75;exitY=0;exitDx=0;exitDy=0;jumpStyle=arc;" parent="1" source="Rm11WEUQjzfcoIPD6hnw-149" target="MkOEYJJQF5hQHIa2r4AH-3" edge="1">
          <mxGeometry width="50" height="50" relative="1" as="geometry">
            <mxPoint x="1134.8799999999997" y="1033" as="sourcePoint" />
            <mxPoint x="818" y="1040" as="targetPoint" />
            <Array as="points">
              <mxPoint x="1080" y="1020" />
            </Array>
          </mxGeometry>
        </mxCell>
        <mxCell id="MkOEYJJQF5hQHIa2r4AH-6" value="Create snapshot for pvcs at the end of each sync" style="text;html=1;align=left;verticalAlign=middle;resizable=0;points=[];autosize=1;strokeColor=none;fillColor=none;" parent="1" vertex="1">
          <mxGeometry x="852" y="984" width="280" height="30" as="geometry" />
        </mxCell>
        <mxCell id="MkOEYJJQF5hQHIa2r4AH-7" value="&lt;font color=&quot;#000000&quot;&gt;20&lt;/font&gt;" style="ellipse;whiteSpace=wrap;html=1;aspect=fixed;fillColor=#FFFF00;strokeColor=#FFFF00;fontColor=#ffffff;" parent="1" vertex="1">
          <mxGeometry x="832" y="989" width="20" height="20" as="geometry" />
        </mxCell>
        <mxCell id="PYe8Hb6xAQgYiPAXNSc--6" value="" style="endArrow=classic;html=1;rounded=0;entryX=1;entryY=0;entryDx=0;entryDy=0;exitX=0.5;exitY=1;exitDx=0;exitDy=0;jumpStyle=arc;" parent="1" source="Rm11WEUQjzfcoIPD6hnw-143" target="PYe8Hb6xAQgYiPAXNSc--2" edge="1">
          <mxGeometry width="50" height="50" relative="1" as="geometry">
            <mxPoint x="1114" y="1083" as="sourcePoint" />
            <mxPoint x="818" y="1013" as="targetPoint" />
            <Array as="points">
              <mxPoint x="1046" y="943" />
            </Array>
          </mxGeometry>
        </mxCell>
        <mxCell id="PYe8Hb6xAQgYiPAXNSc--7" value="create ServiceExport for each RD" style="text;html=1;align=left;verticalAlign=middle;resizable=0;points=[];autosize=1;strokeColor=none;fillColor=none;" parent="1" vertex="1">
          <mxGeometry x="856" y="909" width="200" height="30" as="geometry" />
        </mxCell>
        <mxCell id="PYe8Hb6xAQgYiPAXNSc--8" value="17" style="ellipse;whiteSpace=wrap;html=1;aspect=fixed;fillColor=#3333FF;strokeColor=#3333FF;fontColor=#ffffff;" parent="1" vertex="1">
          <mxGeometry x="831" y="915" width="20" height="20" as="geometry" />
        </mxCell>
        <mxCell id="VyQH4mWXrcuoPS3cHLpN-1" value="" style="ellipse;whiteSpace=wrap;html=1;aspect=fixed;fillColor=#d80073;strokeColor=#A50040;fontColor=#ffffff;" parent="1" vertex="1">
          <mxGeometry x="-335" y="215" width="20" height="20" as="geometry" />
        </mxCell>
        <mxCell id="VyQH4mWXrcuoPS3cHLpN-2" value="" style="ellipse;whiteSpace=wrap;html=1;aspect=fixed;fillColor=#3333FF;strokeColor=#3333FF;fontColor=#ffffff;" parent="1" vertex="1">
          <mxGeometry x="-335" y="248" width="20" height="20" as="geometry" />
        </mxCell>
        <mxCell id="VyQH4mWXrcuoPS3cHLpN-3" value="DRPC Controller Action" style="text;html=1;align=center;verticalAlign=middle;resizable=0;points=[];autosize=1;strokeColor=none;fillColor=none;" parent="1" vertex="1">
          <mxGeometry x="-321" y="210" width="150" height="30" as="geometry" />
        </mxCell>
        <mxCell id="VyQH4mWXrcuoPS3cHLpN-4" value="VRG Controller Action" style="text;html=1;align=center;verticalAlign=middle;resizable=0;points=[];autosize=1;strokeColor=none;fillColor=none;" parent="1" vertex="1">
          <mxGeometry x="-320" y="243" width="140" height="30" as="geometry" />
        </mxCell>
        <mxCell id="VyQH4mWXrcuoPS3cHLpN-7" value="Volsync Action" style="text;html=1;align=center;verticalAlign=middle;resizable=0;points=[];autosize=1;strokeColor=none;fillColor=none;" parent="1" vertex="1">
          <mxGeometry x="-319" y="305" width="100" height="30" as="geometry" />
        </mxCell>
        <mxCell id="VyQH4mWXrcuoPS3cHLpN-9" value="" style="ellipse;whiteSpace=wrap;html=1;aspect=fixed;fillColor=#FFFF00;strokeColor=#FFFF00;fontColor=#ffffff;" parent="1" vertex="1">
          <mxGeometry x="-335" y="310" width="20" height="20" as="geometry" />
        </mxCell>
        <mxCell id="VyQH4mWXrcuoPS3cHLpN-10" value="MCO/UI Action" style="text;html=1;align=center;verticalAlign=middle;resizable=0;points=[];autosize=1;strokeColor=none;fillColor=none;" parent="1" vertex="1">
          <mxGeometry x="-318" y="274" width="100" height="30" as="geometry" />
        </mxCell>
        <mxCell id="VyQH4mWXrcuoPS3cHLpN-11" value="" style="ellipse;whiteSpace=wrap;html=1;aspect=fixed;fillColor=#00CC00;strokeColor=#00CC00;fontColor=#ffffff;" parent="1" vertex="1">
          <mxGeometry x="-335" y="279" width="20" height="20" as="geometry" />
        </mxCell>
        <mxCell id="VyQH4mWXrcuoPS3cHLpN-13" value="" style="endArrow=classic;html=1;rounded=0;exitX=1;exitY=0;exitDx=0;exitDy=0;entryX=0;entryY=0;entryDx=0;entryDy=0;" parent="1" source="Rm11WEUQjzfcoIPD6hnw-172" target="Rm11WEUQjzfcoIPD6hnw-168" edge="1">
          <mxGeometry width="50" height="50" relative="1" as="geometry">
            <mxPoint x="400" y="960" as="sourcePoint" />
            <mxPoint x="450" y="910" as="targetPoint" />
          </mxGeometry>
        </mxCell>
        <mxCell id="VyQH4mWXrcuoPS3cHLpN-14" value="&lt;font color=&quot;#000000&quot;&gt;19&lt;/font&gt;" style="ellipse;whiteSpace=wrap;html=1;aspect=fixed;fillColor=#FFFF00;strokeColor=#FFFF00;fontColor=#ffffff;" parent="1" vertex="1">
          <mxGeometry x="545" y="1040" width="20" height="20" as="geometry" />
        </mxCell>
        <mxCell id="VyQH4mWXrcuoPS3cHLpN-15" value="Volume Sync" style="text;html=1;align=left;verticalAlign=middle;resizable=0;points=[];autosize=1;strokeColor=none;fillColor=none;" parent="1" vertex="1">
          <mxGeometry x="565" y="1035" width="90" height="30" as="geometry" />
        </mxCell>
        <mxCell id="Rm11WEUQjzfcoIPD6hnw-132" value="vs secret" style="swimlane;fontStyle=0;childLayout=stackLayout;horizontal=1;startSize=30;horizontalStack=0;resizeParent=1;resizeParentMax=0;resizeLast=0;collapsible=1;marginBottom=0;whiteSpace=wrap;html=1;" parent="1" vertex="1" collapsed="1">
          <mxGeometry x="707.25" y="1130" width="90" height="30" as="geometry">
            <mxRectangle x="830" y="1180" width="1470" height="340" as="alternateBounds" />
          </mxGeometry>
        </mxCell>
        <mxCell id="Rm11WEUQjzfcoIPD6hnw-133" value="&lt;div&gt;apiVersion: v1&lt;/div&gt;&lt;div&gt;data:&lt;/div&gt;&lt;div&gt;&amp;nbsp; psk.txt: dm9sc3luY3JhbWVuOjQ4NWQ3ZGQ4MWQwMWYyYmE3MWZjNTE5ZmJkZGRiMWRmMDVhNjMzYTRhZTBjMzM0MDU2OGRkMDVlZDQ5MmZlNWY5YWJjMTJiMTExM2EyOGJjYzBlMzkzMDFlY2E1MGYzMTJiZjhhMjQxYWJkODlhMzM4MzRjODIzZDk2NzllODM3&lt;/div&gt;&lt;div&gt;kind: Secret&lt;/div&gt;&lt;div&gt;metadata:&lt;/div&gt;&lt;div&gt;&amp;nbsp; creationTimestamp: &quot;2024-04-07T07:30:11Z&quot;&lt;/div&gt;&lt;div&gt;&amp;nbsp; labels:&lt;/div&gt;&lt;div&gt;&amp;nbsp; &amp;nbsp; cluster.open-cluster-management.io/backup: ramen&lt;/div&gt;&lt;div&gt;&amp;nbsp; name: deployment-cephfs-drpc-vs-secret-hub&lt;/div&gt;&lt;div&gt;&amp;nbsp; namespace: deployment-cephfs&lt;/div&gt;&lt;div&gt;&amp;nbsp; ownerReferences:&lt;/div&gt;&lt;div&gt;&amp;nbsp; - apiVersion: ramendr.openshift.io/v1alpha1&lt;/div&gt;&lt;div&gt;&amp;nbsp; &amp;nbsp; blockOwnerDeletion: true&lt;/div&gt;&lt;div&gt;&amp;nbsp; &amp;nbsp; controller: true&lt;/div&gt;&lt;div&gt;&amp;nbsp; &amp;nbsp; kind: DRPlacementControl&lt;/div&gt;&lt;div&gt;&amp;nbsp; &amp;nbsp; name: deployment-cephfs-drpc&lt;/div&gt;&lt;div&gt;&amp;nbsp; &amp;nbsp; uid: 3e846889-d6a6-4652-9198-0b9da0662790&lt;/div&gt;&lt;div&gt;&amp;nbsp; resourceVersion: &quot;32269&quot;&lt;/div&gt;&lt;div&gt;&amp;nbsp; uid: 012ec379-80fe-4c58-b7d0-7fde7fdd6e67&lt;/div&gt;&lt;div&gt;type: Opaque&lt;/div&gt;" style="text;strokeColor=none;fillColor=default;align=left;verticalAlign=middle;spacingLeft=4;spacingRight=4;overflow=hidden;points=[[0,0.5],[1,0.5]];portConstraint=eastwest;rotatable=0;whiteSpace=wrap;html=1;" parent="Rm11WEUQjzfcoIPD6hnw-132" vertex="1">
          <mxGeometry y="30" width="1470" height="310" as="geometry" />
        </mxCell>
        <mxCell id="Rm11WEUQjzfcoIPD6hnw-168" value="PVC2 from RD" style="swimlane;fontStyle=0;childLayout=stackLayout;horizontal=1;startSize=30;horizontalStack=0;resizeParent=1;resizeParentMax=0;resizeLast=0;collapsible=1;marginBottom=0;whiteSpace=wrap;html=1;" parent="1" vertex="1" collapsed="1">
          <mxGeometry x="692" y="1089" width="120" height="30" as="geometry">
            <mxRectangle x="687.5" y="1070" width="380" height="620" as="alternateBounds" />
          </mxGeometry>
        </mxCell>
        <mxCell id="Rm11WEUQjzfcoIPD6hnw-169" value="&lt;div&gt;apiVersion: v1&lt;/div&gt;&lt;div&gt;kind: PersistentVolumeClaim&lt;/div&gt;&lt;div&gt;metadata:&lt;/div&gt;&lt;div&gt;&amp;nbsp; annotations:&lt;/div&gt;&lt;div&gt;&amp;nbsp; &amp;nbsp; pv.kubernetes.io/bind-completed: &quot;yes&quot;&lt;/div&gt;&lt;div&gt;&amp;nbsp; &amp;nbsp; pv.kubernetes.io/bound-by-controller: &quot;yes&quot;&lt;/div&gt;&lt;div&gt;&amp;nbsp; &amp;nbsp; volume.beta.kubernetes.io/storage-provisioner: rook-ceph.cephfs.csi.ceph.com&lt;/div&gt;&lt;div&gt;&amp;nbsp; &amp;nbsp; volume.kubernetes.io/storage-provisioner: rook-ceph.cephfs.csi.ceph.com&lt;/div&gt;&lt;div&gt;&amp;nbsp; creationTimestamp: &quot;2024-04-07T07:30:20Z&quot;&lt;/div&gt;&lt;div&gt;&amp;nbsp; finalizers:&lt;/div&gt;&lt;div&gt;&amp;nbsp; - kubernetes.io/pvc-protection&lt;/div&gt;&lt;div&gt;&amp;nbsp; labels:&lt;/div&gt;&lt;div&gt;&amp;nbsp; &amp;nbsp; app.kubernetes.io/created-by: volsync&lt;/div&gt;&lt;div&gt;&amp;nbsp; name: volsync-busybox-another-pvc-dst&lt;/div&gt;&lt;div&gt;&amp;nbsp; namespace: deployment-cephfs&lt;/div&gt;&lt;div&gt;&amp;nbsp; ownerReferences:&lt;/div&gt;&lt;div&gt;&amp;nbsp; - apiVersion: volsync.backube/v1alpha1&lt;/div&gt;&lt;div&gt;&amp;nbsp; &amp;nbsp; blockOwnerDeletion: true&lt;/div&gt;&lt;div&gt;&amp;nbsp; &amp;nbsp; controller: true&lt;/div&gt;&lt;div&gt;&amp;nbsp; &amp;nbsp; kind: ReplicationDestination&lt;/div&gt;&lt;div&gt;&amp;nbsp; &amp;nbsp; name: busybox-another-pvc&lt;/div&gt;&lt;div&gt;&amp;nbsp; &amp;nbsp; uid: 2a9b5570-9c99-452f-85f2-26fc974c45ad&lt;/div&gt;&lt;div&gt;&amp;nbsp; resourceVersion: &quot;68989&quot;&lt;/div&gt;&lt;div&gt;&amp;nbsp; uid: 374382c6-de92-4fe4-99ea-8adb85a64fe3&lt;/div&gt;&lt;div&gt;spec:&lt;/div&gt;&lt;div&gt;&amp;nbsp; accessModes:&lt;/div&gt;&lt;div&gt;&amp;nbsp; - ReadWriteOnce&lt;/div&gt;&lt;div&gt;&amp;nbsp; resources:&lt;/div&gt;&lt;div&gt;&amp;nbsp; &amp;nbsp; requests:&lt;/div&gt;&lt;div&gt;&amp;nbsp; &amp;nbsp; &amp;nbsp; storage: 1Gi&lt;/div&gt;&lt;div&gt;&amp;nbsp; storageClassName: ocs-storagecluster-cephfs&lt;/div&gt;&lt;div&gt;&amp;nbsp; volumeMode: Filesystem&lt;/div&gt;&lt;div&gt;&amp;nbsp; volumeName: pvc-374382c6-de92-4fe4-99ea-8adb85a64fe3&lt;/div&gt;&lt;div&gt;status:&lt;/div&gt;&lt;div&gt;&amp;nbsp; accessModes:&lt;/div&gt;&lt;div&gt;&amp;nbsp; - ReadWriteOnce&lt;/div&gt;&lt;div&gt;&amp;nbsp; capacity:&lt;/div&gt;&lt;div&gt;&amp;nbsp; &amp;nbsp; storage: 1Gi&lt;/div&gt;&lt;div&gt;&amp;nbsp; phase: Bound&lt;/div&gt;" style="text;strokeColor=none;fillColor=default;align=left;verticalAlign=middle;spacingLeft=4;spacingRight=4;overflow=hidden;points=[[0,0.5],[1,0.5]];portConstraint=eastwest;rotatable=0;whiteSpace=wrap;html=1;" parent="Rm11WEUQjzfcoIPD6hnw-168" vertex="1">
          <mxGeometry y="30" width="380" height="590" as="geometry" />
        </mxCell>
        <mxCell id="Rm11WEUQjzfcoIPD6hnw-164" value="PVC1 from RD" style="swimlane;fontStyle=0;childLayout=stackLayout;horizontal=1;startSize=30;horizontalStack=0;resizeParent=1;resizeParentMax=0;resizeLast=0;collapsible=1;marginBottom=0;whiteSpace=wrap;html=1;" parent="1" vertex="1" collapsed="1">
          <mxGeometry x="692" y="1059" width="120" height="30" as="geometry">
            <mxRectangle x="687.4999999999999" y="1040" width="400" height="650" as="alternateBounds" />
          </mxGeometry>
        </mxCell>
        <mxCell id="Rm11WEUQjzfcoIPD6hnw-165" value="&lt;div&gt;apiVersion: v1&lt;/div&gt;&lt;div&gt;kind: PersistentVolumeClaim&lt;/div&gt;&lt;div&gt;metadata:&lt;/div&gt;&lt;div&gt;&amp;nbsp; annotations:&lt;/div&gt;&lt;div&gt;&amp;nbsp; &amp;nbsp; pv.kubernetes.io/bind-completed: &quot;yes&quot;&lt;/div&gt;&lt;div&gt;&amp;nbsp; &amp;nbsp; pv.kubernetes.io/bound-by-controller: &quot;yes&quot;&lt;/div&gt;&lt;div&gt;&amp;nbsp; &amp;nbsp; volume.beta.kubernetes.io/storage-provisioner: rook-ceph.cephfs.csi.ceph.com&lt;/div&gt;&lt;div&gt;&amp;nbsp; &amp;nbsp; volume.kubernetes.io/storage-provisioner: rook-ceph.cephfs.csi.ceph.com&lt;/div&gt;&lt;div&gt;&amp;nbsp; creationTimestamp: &quot;2024-04-07T07:30:20Z&quot;&lt;/div&gt;&lt;div&gt;&amp;nbsp; finalizers:&lt;/div&gt;&lt;div&gt;&amp;nbsp; - kubernetes.io/pvc-protection&lt;/div&gt;&lt;div&gt;&amp;nbsp; labels:&lt;/div&gt;&lt;div&gt;&amp;nbsp; &amp;nbsp; app.kubernetes.io/created-by: volsync&lt;/div&gt;&lt;div&gt;&amp;nbsp; name: volsync-busybox-pvc-dst&lt;/div&gt;&lt;div&gt;&amp;nbsp; namespace: deployment-cephfs&lt;/div&gt;&lt;div&gt;&amp;nbsp; ownerReferences:&lt;/div&gt;&lt;div&gt;&amp;nbsp; - apiVersion: volsync.backube/v1alpha1&lt;/div&gt;&lt;div&gt;&amp;nbsp; &amp;nbsp; blockOwnerDeletion: true&lt;/div&gt;&lt;div&gt;&amp;nbsp; &amp;nbsp; controller: true&lt;/div&gt;&lt;div&gt;&amp;nbsp; &amp;nbsp; kind: ReplicationDestination&lt;/div&gt;&lt;div&gt;&amp;nbsp; &amp;nbsp; name: busybox-pvc&lt;/div&gt;&lt;div&gt;&amp;nbsp; &amp;nbsp; uid: 27bbd9af-218e-4829-804d-247882d46e0f&lt;/div&gt;&lt;div&gt;&amp;nbsp; resourceVersion: &quot;69526&quot;&lt;/div&gt;&lt;div&gt;&amp;nbsp; uid: 1162dd90-f610-438c-8d3d-93e2a304328d&lt;/div&gt;&lt;div&gt;spec:&lt;/div&gt;&lt;div&gt;&amp;nbsp; accessModes:&lt;/div&gt;&lt;div&gt;&amp;nbsp; - ReadWriteMany&lt;/div&gt;&lt;div&gt;&amp;nbsp; resources:&lt;/div&gt;&lt;div&gt;&amp;nbsp; &amp;nbsp; requests:&lt;/div&gt;&lt;div&gt;&amp;nbsp; &amp;nbsp; &amp;nbsp; storage: 1Gi&lt;/div&gt;&lt;div&gt;&amp;nbsp; storageClassName: ocs-storagecluster-cephfs&lt;/div&gt;&lt;div&gt;&amp;nbsp; volumeMode: Filesystem&lt;/div&gt;&lt;div&gt;&amp;nbsp; volumeName: pvc-1162dd90-f610-438c-8d3d-93e2a304328d&lt;/div&gt;&lt;div&gt;status:&lt;/div&gt;&lt;div&gt;&amp;nbsp; accessModes:&lt;/div&gt;&lt;div&gt;&amp;nbsp; - ReadWriteMany&lt;/div&gt;&lt;div&gt;&amp;nbsp; capacity:&lt;/div&gt;&lt;div&gt;&amp;nbsp; &amp;nbsp; storage: 1Gi&lt;/div&gt;&lt;div&gt;&amp;nbsp; phase: Bound&lt;/div&gt;" style="text;strokeColor=none;fillColor=default;align=left;verticalAlign=middle;spacingLeft=4;spacingRight=4;overflow=hidden;points=[[0,0.5],[1,0.5]];portConstraint=eastwest;rotatable=0;whiteSpace=wrap;html=1;" parent="Rm11WEUQjzfcoIPD6hnw-164" vertex="1">
          <mxGeometry y="30" width="400" height="620" as="geometry" />
        </mxCell>
        <mxCell id="MkOEYJJQF5hQHIa2r4AH-3" value="PVC2 Snapshot" style="swimlane;fontStyle=0;childLayout=stackLayout;horizontal=1;startSize=30;horizontalStack=0;resizeParent=1;resizeParentMax=0;resizeLast=0;collapsible=1;marginBottom=0;whiteSpace=wrap;html=1;" parent="1" vertex="1" collapsed="1">
          <mxGeometry x="692" y="1019" width="120" height="30" as="geometry">
            <mxRectangle x="687.5" y="1000" width="380" height="470" as="alternateBounds" />
          </mxGeometry>
        </mxCell>
        <mxCell id="MkOEYJJQF5hQHIa2r4AH-4" value="&lt;div&gt;apiVersion: snapshot.storage.k8s.io/v1&lt;/div&gt;&lt;div&gt;kind: VolumeSnapshot&lt;/div&gt;&lt;div&gt;metadata:&lt;/div&gt;&lt;div&gt;&amp;nbsp; creationTimestamp: &quot;2024-04-07T13:02:40Z&quot;&lt;/div&gt;&lt;div&gt;&amp;nbsp; finalizers:&lt;/div&gt;&lt;div&gt;&amp;nbsp; - snapshot.storage.kubernetes.io/volumesnapshot-as-source-protection&lt;/div&gt;&lt;div&gt;&amp;nbsp; - snapshot.storage.kubernetes.io/volumesnapshot-bound-protection&lt;/div&gt;&lt;div&gt;&amp;nbsp; generation: 1&lt;/div&gt;&lt;div&gt;&amp;nbsp; labels:&lt;/div&gt;&lt;div&gt;&amp;nbsp; &amp;nbsp; volsync.backube/do-not-delete: &quot;true&quot;&lt;/div&gt;&lt;div&gt;&amp;nbsp; name: volsync-busybox-another-pvc-dst-20240407130240&lt;/div&gt;&lt;div&gt;&amp;nbsp; namespace: deployment-cephfs&lt;/div&gt;&lt;div&gt;&amp;nbsp; ownerReferences:&lt;/div&gt;&lt;div&gt;&amp;nbsp; - apiVersion: ramendr.openshift.io/v1alpha1&lt;/div&gt;&lt;div&gt;&amp;nbsp; &amp;nbsp; kind: VolumeReplicationGroup&lt;/div&gt;&lt;div&gt;&amp;nbsp; &amp;nbsp; name: deployment-cephfs-drpc&lt;/div&gt;&lt;div&gt;&amp;nbsp; &amp;nbsp; uid: 791016dd-8119-465f-a663-dace34bbfb57&lt;/div&gt;&lt;div&gt;&amp;nbsp; resourceVersion: &quot;182165&quot;&lt;/div&gt;&lt;div&gt;&amp;nbsp; uid: bbbf0a6a-a9c9-4c9f-94e1-92edb8ee567d&lt;/div&gt;&lt;div&gt;spec:&lt;/div&gt;&lt;div&gt;&amp;nbsp; source:&lt;/div&gt;&lt;div&gt;&amp;nbsp; &amp;nbsp; persistentVolumeClaimName: volsync-busybox-another-pvc-dst&lt;/div&gt;&lt;div&gt;&amp;nbsp; volumeSnapshotClassName: cephfs-snapclass&lt;/div&gt;&lt;div&gt;status:&lt;/div&gt;&lt;div&gt;&amp;nbsp; boundVolumeSnapshotContentName: snapcontent-bbbf0a6a-a9c9-4c9f-94e1-92edb8ee567d&lt;/div&gt;&lt;div&gt;&amp;nbsp; creationTime: &quot;2024-04-07T13:02:42Z&quot;&lt;/div&gt;&lt;div&gt;&amp;nbsp; readyToUse: true&lt;/div&gt;&lt;div&gt;&amp;nbsp; restoreSize: 1Gi&lt;/div&gt;" style="text;strokeColor=none;fillColor=default;align=left;verticalAlign=middle;spacingLeft=4;spacingRight=4;overflow=hidden;points=[[0,0.5],[1,0.5]];portConstraint=eastwest;rotatable=0;whiteSpace=wrap;html=1;" parent="MkOEYJJQF5hQHIa2r4AH-3" vertex="1">
          <mxGeometry y="30" width="380" height="440" as="geometry" />
        </mxCell>
        <mxCell id="MkOEYJJQF5hQHIa2r4AH-1" value="PVC1 Snapshot" style="swimlane;fontStyle=0;childLayout=stackLayout;horizontal=1;startSize=30;horizontalStack=0;resizeParent=1;resizeParentMax=0;resizeLast=0;collapsible=1;marginBottom=0;whiteSpace=wrap;html=1;" parent="1" vertex="1" collapsed="1">
          <mxGeometry x="692" y="989" width="120" height="30" as="geometry">
            <mxRectangle x="687.4999999999999" y="970" width="400" height="480" as="alternateBounds" />
          </mxGeometry>
        </mxCell>
        <mxCell id="MkOEYJJQF5hQHIa2r4AH-2" value="&lt;div&gt;apiVersion: snapshot.storage.k8s.io/v1&lt;/div&gt;&lt;div&gt;kind: VolumeSnapshot&lt;/div&gt;&lt;div&gt;metadata:&lt;/div&gt;&lt;div&gt;&amp;nbsp; creationTimestamp: &quot;2024-04-07T13:03:12Z&quot;&lt;/div&gt;&lt;div&gt;&amp;nbsp; finalizers:&lt;/div&gt;&lt;div&gt;&amp;nbsp; - snapshot.storage.kubernetes.io/volumesnapshot-as-source-protection&lt;/div&gt;&lt;div&gt;&amp;nbsp; - snapshot.storage.kubernetes.io/volumesnapshot-bound-protection&lt;/div&gt;&lt;div&gt;&amp;nbsp; generation: 1&lt;/div&gt;&lt;div&gt;&amp;nbsp; labels:&lt;/div&gt;&lt;div&gt;&amp;nbsp; &amp;nbsp; volsync.backube/do-not-delete: &quot;true&quot;&lt;/div&gt;&lt;div&gt;&amp;nbsp; name: volsync-busybox-pvc-dst-20240407130312&lt;/div&gt;&lt;div&gt;&amp;nbsp; namespace: deployment-cephfs&lt;/div&gt;&lt;div&gt;&amp;nbsp; ownerReferences:&lt;/div&gt;&lt;div&gt;&amp;nbsp; - apiVersion: ramendr.openshift.io/v1alpha1&lt;/div&gt;&lt;div&gt;&amp;nbsp; &amp;nbsp; kind: VolumeReplicationGroup&lt;/div&gt;&lt;div&gt;&amp;nbsp; &amp;nbsp; name: deployment-cephfs-drpc&lt;/div&gt;&lt;div&gt;&amp;nbsp; &amp;nbsp; uid: 791016dd-8119-465f-a663-dace34bbfb57&lt;/div&gt;&lt;div&gt;&amp;nbsp; resourceVersion: &quot;182167&quot;&lt;/div&gt;&lt;div&gt;&amp;nbsp; uid: 7bc79e87-22a1-4ec2-92a8-3a8577f6d322&lt;/div&gt;&lt;div&gt;spec:&lt;/div&gt;&lt;div&gt;&amp;nbsp; source:&lt;/div&gt;&lt;div&gt;&amp;nbsp; &amp;nbsp; persistentVolumeClaimName: volsync-busybox-pvc-dst&lt;/div&gt;&lt;div&gt;&amp;nbsp; volumeSnapshotClassName: cephfs-snapclass&lt;/div&gt;&lt;div&gt;status:&lt;/div&gt;&lt;div&gt;&amp;nbsp; boundVolumeSnapshotContentName: snapcontent-7bc79e87-22a1-4ec2-92a8-3a8577f6d322&lt;/div&gt;&lt;div&gt;&amp;nbsp; creationTime: &quot;2024-04-07T13:03:14Z&quot;&lt;/div&gt;&lt;div&gt;&amp;nbsp; readyToUse: true&lt;/div&gt;&lt;div&gt;&amp;nbsp; restoreSize: 1Gi&lt;/div&gt;" style="text;strokeColor=none;fillColor=default;align=left;verticalAlign=middle;spacingLeft=4;spacingRight=4;overflow=hidden;points=[[0,0.5],[1,0.5]];portConstraint=eastwest;rotatable=0;whiteSpace=wrap;html=1;" parent="MkOEYJJQF5hQHIa2r4AH-1" vertex="1">
          <mxGeometry y="30" width="400" height="450" as="geometry" />
        </mxCell>
        <mxCell id="PYe8Hb6xAQgYiPAXNSc--2" value="ServiceExporter PVC2" style="swimlane;fontStyle=0;childLayout=stackLayout;horizontal=1;startSize=30;horizontalStack=0;resizeParent=1;resizeParentMax=0;resizeLast=0;collapsible=1;marginBottom=0;whiteSpace=wrap;html=1;" parent="1" vertex="1" collapsed="1">
          <mxGeometry x="692.25" y="943" width="120" height="30" as="geometry">
            <mxRectangle x="687.5" y="1083" width="380" height="410" as="alternateBounds" />
          </mxGeometry>
        </mxCell>
        <mxCell id="PYe8Hb6xAQgYiPAXNSc--3" value="&lt;div&gt;apiVersion: multicluster.x-k8s.io/v1alpha1&lt;/div&gt;&lt;div&gt;kind: ServiceExport&lt;/div&gt;&lt;div&gt;metadata:&lt;/div&gt;&lt;div&gt;&amp;nbsp; creationTimestamp: &quot;2024-04-07T13:04:37Z&quot;&lt;/div&gt;&lt;div&gt;&amp;nbsp; generation: 1&lt;/div&gt;&lt;div&gt;&amp;nbsp; name: volsync-rsync-tls-dst-busybox-another-pvc&lt;/div&gt;&lt;div&gt;&amp;nbsp; namespace: deployment-cephfs&lt;/div&gt;&lt;div&gt;&amp;nbsp; ownerReferences:&lt;/div&gt;&lt;div&gt;&amp;nbsp; - apiVersion: volsync.backube/v1alpha1&lt;/div&gt;&lt;div&gt;&amp;nbsp; &amp;nbsp; kind: ReplicationDestination&lt;/div&gt;&lt;div&gt;&amp;nbsp; &amp;nbsp; name: busybox-another-pvc&lt;/div&gt;&lt;div&gt;&amp;nbsp; &amp;nbsp; uid: c56bf1a0-55db-41fc-a689-9e57eedb278b&lt;/div&gt;&lt;div&gt;&amp;nbsp; resourceVersion: &quot;187617&quot;&lt;/div&gt;&lt;div&gt;&amp;nbsp; uid: b200a1cf-b385-4cb3-985e-622b5226b474&lt;/div&gt;&lt;div&gt;status:&lt;/div&gt;&lt;div&gt;&amp;nbsp; conditions:&lt;/div&gt;&lt;div&gt;&amp;nbsp; - lastTransitionTime: &quot;2024-04-07T13:04:42Z&quot;&lt;/div&gt;&lt;div&gt;&amp;nbsp; &amp;nbsp; message: &quot;&quot;&lt;/div&gt;&lt;div&gt;&amp;nbsp; &amp;nbsp; reason: &quot;&quot;&lt;/div&gt;&lt;div&gt;&amp;nbsp; &amp;nbsp; status: &quot;True&quot;&lt;/div&gt;&lt;div&gt;&amp;nbsp; &amp;nbsp; type: Valid&lt;/div&gt;&lt;div&gt;&amp;nbsp; - lastTransitionTime: &quot;2024-04-07T13:04:46Z&quot;&lt;/div&gt;&lt;div&gt;&amp;nbsp; &amp;nbsp; message: Service was successfully exported to the broker&lt;/div&gt;&lt;div&gt;&amp;nbsp; &amp;nbsp; reason: &quot;&quot;&lt;/div&gt;&lt;div&gt;&amp;nbsp; &amp;nbsp; status: &quot;True&quot;&lt;/div&gt;&lt;div&gt;&amp;nbsp; &amp;nbsp; type: Ready&lt;/div&gt;" style="text;strokeColor=none;fillColor=default;align=left;verticalAlign=middle;spacingLeft=4;spacingRight=4;overflow=hidden;points=[[0,0.5],[1,0.5]];portConstraint=eastwest;rotatable=0;whiteSpace=wrap;html=1;" parent="PYe8Hb6xAQgYiPAXNSc--2" vertex="1">
          <mxGeometry y="30" width="380" height="380" as="geometry" />
        </mxCell>
        <mxCell id="PYe8Hb6xAQgYiPAXNSc--4" value="ServiceExporter PVC1" style="swimlane;fontStyle=0;childLayout=stackLayout;horizontal=1;startSize=30;horizontalStack=0;resizeParent=1;resizeParentMax=0;resizeLast=0;collapsible=1;marginBottom=0;whiteSpace=wrap;html=1;" parent="1" vertex="1" collapsed="1">
          <mxGeometry x="692.25" y="913" width="120" height="30" as="geometry">
            <mxRectangle x="687.5" y="1053" width="380" height="410" as="alternateBounds" />
          </mxGeometry>
        </mxCell>
        <mxCell id="PYe8Hb6xAQgYiPAXNSc--5" value="&lt;div&gt;apiVersion: multicluster.x-k8s.io/v1alpha1&lt;/div&gt;&lt;div&gt;kind: ServiceExport&lt;/div&gt;&lt;div&gt;metadata:&lt;/div&gt;&lt;div&gt;&amp;nbsp; creationTimestamp: &quot;2024-04-07T13:04:38Z&quot;&lt;/div&gt;&lt;div&gt;&amp;nbsp; generation: 1&lt;/div&gt;&lt;div&gt;&amp;nbsp; name: volsync-rsync-tls-dst-busybox-pvc&lt;/div&gt;&lt;div&gt;&amp;nbsp; namespace: deployment-cephfs&lt;/div&gt;&lt;div&gt;&amp;nbsp; ownerReferences:&lt;/div&gt;&lt;div&gt;&amp;nbsp; - apiVersion: volsync.backube/v1alpha1&lt;/div&gt;&lt;div&gt;&amp;nbsp; &amp;nbsp; kind: ReplicationDestination&lt;/div&gt;&lt;div&gt;&amp;nbsp; &amp;nbsp; name: busybox-pvc&lt;/div&gt;&lt;div&gt;&amp;nbsp; &amp;nbsp; uid: 8821f74a-f77b-436f-b98d-47505d155405&lt;/div&gt;&lt;div&gt;&amp;nbsp; resourceVersion: &quot;187638&quot;&lt;/div&gt;&lt;div&gt;&amp;nbsp; uid: 1a9e141a-76e8-4688-a900-3d3b5762ed51&lt;/div&gt;&lt;div&gt;status:&lt;/div&gt;&lt;div&gt;&amp;nbsp; conditions:&lt;/div&gt;&lt;div&gt;&amp;nbsp; - lastTransitionTime: &quot;2024-04-07T13:04:44Z&quot;&lt;/div&gt;&lt;div&gt;&amp;nbsp; &amp;nbsp; message: &quot;&quot;&lt;/div&gt;&lt;div&gt;&amp;nbsp; &amp;nbsp; reason: &quot;&quot;&lt;/div&gt;&lt;div&gt;&amp;nbsp; &amp;nbsp; status: &quot;True&quot;&lt;/div&gt;&lt;div&gt;&amp;nbsp; &amp;nbsp; type: Valid&lt;/div&gt;&lt;div&gt;&amp;nbsp; - lastTransitionTime: &quot;2024-04-07T13:04:48Z&quot;&lt;/div&gt;&lt;div&gt;&amp;nbsp; &amp;nbsp; message: Service was successfully exported to the broker&lt;/div&gt;&lt;div&gt;&amp;nbsp; &amp;nbsp; reason: &quot;&quot;&lt;/div&gt;&lt;div&gt;&amp;nbsp; &amp;nbsp; status: &quot;True&quot;&lt;/div&gt;&lt;div&gt;&amp;nbsp; &amp;nbsp; type: Ready&lt;/div&gt;" style="text;strokeColor=none;fillColor=default;align=left;verticalAlign=middle;spacingLeft=4;spacingRight=4;overflow=hidden;points=[[0,0.5],[1,0.5]];portConstraint=eastwest;rotatable=0;whiteSpace=wrap;html=1;" parent="PYe8Hb6xAQgYiPAXNSc--4" vertex="1">
          <mxGeometry y="30" width="380" height="380" as="geometry" />
        </mxCell>
        <mxCell id="Rm11WEUQjzfcoIPD6hnw-157" value="PVC2 RD in app ns" style="swimlane;fontStyle=0;childLayout=stackLayout;horizontal=1;startSize=30;horizontalStack=0;resizeParent=1;resizeParentMax=0;resizeLast=0;collapsible=1;marginBottom=0;whiteSpace=wrap;html=1;" parent="1" vertex="1" collapsed="1">
          <mxGeometry x="665" y="863" width="165" height="30" as="geometry">
            <mxRectangle x="665" y="980" width="580" height="820" as="alternateBounds" />
          </mxGeometry>
        </mxCell>
        <mxCell id="Rm11WEUQjzfcoIPD6hnw-158" value="&lt;div&gt;apiVersion: volsync.backube/v1alpha1&lt;/div&gt;&lt;div&gt;kind: ReplicationDestination&lt;/div&gt;&lt;div&gt;metadata:&lt;/div&gt;&lt;div&gt;&amp;nbsp; annotations:&lt;/div&gt;&lt;div&gt;&amp;nbsp; &amp;nbsp; ramendr.openshift.io/owner-name: deployment-cephfs-drpc&lt;/div&gt;&lt;div&gt;&amp;nbsp; &amp;nbsp; ramendr.openshift.io/owner-namespace: deployment-cephfs&lt;/div&gt;&lt;div&gt;&amp;nbsp; creationTimestamp: &quot;2024-04-07T07:30:20Z&quot;&lt;/div&gt;&lt;div&gt;&amp;nbsp; generation: 1&lt;/div&gt;&lt;div&gt;&amp;nbsp; labels:&lt;/div&gt;&lt;div&gt;&amp;nbsp; &amp;nbsp; volumereplicationgroups-owner: deployment-cephfs-drpc&lt;/div&gt;&lt;div&gt;&amp;nbsp; name: busybox-another-pvc&lt;/div&gt;&lt;div&gt;&amp;nbsp; namespace: deployment-cephfs&lt;/div&gt;&lt;div&gt;&amp;nbsp; ownerReferences:&lt;/div&gt;&lt;div&gt;&amp;nbsp; - apiVersion: ramendr.openshift.io/v1alpha1&lt;/div&gt;&lt;div&gt;&amp;nbsp; &amp;nbsp; blockOwnerDeletion: true&lt;/div&gt;&lt;div&gt;&amp;nbsp; &amp;nbsp; controller: true&lt;/div&gt;&lt;div&gt;&amp;nbsp; &amp;nbsp; kind: VolumeReplicationGroup&lt;/div&gt;&lt;div&gt;&amp;nbsp; &amp;nbsp; name: deployment-cephfs-drpc&lt;/div&gt;&lt;div&gt;&amp;nbsp; &amp;nbsp; uid: 791016dd-8119-465f-a663-dace34bbfb57&lt;/div&gt;&lt;div&gt;&amp;nbsp; resourceVersion: &quot;67287&quot;&lt;/div&gt;&lt;div&gt;&amp;nbsp; uid: 2a9b5570-9c99-452f-85f2-26fc974c45ad&lt;/div&gt;&lt;div&gt;spec:&lt;/div&gt;&lt;div&gt;&amp;nbsp; rsyncTLS:&lt;/div&gt;&lt;div&gt;&amp;nbsp; &amp;nbsp; accessModes:&lt;/div&gt;&lt;div&gt;&amp;nbsp; &amp;nbsp; - ReadWriteOnce&lt;/div&gt;&lt;div&gt;&amp;nbsp; &amp;nbsp; capacity: 1Gi&lt;/div&gt;&lt;div&gt;&amp;nbsp; &amp;nbsp; copyMethod: Snapshot&lt;/div&gt;&lt;div&gt;&amp;nbsp; &amp;nbsp; keySecret: deployment-cephfs-drpc-vs-secret&lt;/div&gt;&lt;div&gt;&amp;nbsp; &amp;nbsp; serviceType: ClusterIP&lt;/div&gt;&lt;div&gt;&amp;nbsp; &amp;nbsp; storageClassName: ocs-storagecluster-cephfs&lt;/div&gt;&lt;div&gt;&amp;nbsp; &amp;nbsp; volumeSnapshotClassName: cephfs-snapclass&lt;/div&gt;&lt;div&gt;status:&lt;/div&gt;&lt;div&gt;&amp;nbsp; conditions:&lt;/div&gt;&lt;div&gt;&amp;nbsp; - lastTransitionTime: &quot;2024-04-07T07:56:47Z&quot;&lt;/div&gt;&lt;div&gt;&amp;nbsp; &amp;nbsp; message: Synchronization in-progress&lt;/div&gt;&lt;div&gt;&amp;nbsp; &amp;nbsp; reason: SyncInProgress&lt;/div&gt;&lt;div&gt;&amp;nbsp; &amp;nbsp; status: &quot;True&quot;&lt;/div&gt;&lt;div&gt;&amp;nbsp; &amp;nbsp; type: Synchronizing&lt;/div&gt;&lt;div&gt;&amp;nbsp; lastSyncDuration: 54.27490443s&lt;/div&gt;&lt;div&gt;&amp;nbsp; lastSyncStartTime: &quot;2024-04-07T07:56:47Z&quot;&lt;/div&gt;&lt;div&gt;&amp;nbsp; lastSyncTime: &quot;2024-04-07T07:56:47Z&quot;&lt;/div&gt;&lt;div&gt;&amp;nbsp; latestImage:&lt;/div&gt;&lt;div&gt;&amp;nbsp; &amp;nbsp; apiGroup: snapshot.storage.k8s.io&lt;/div&gt;&lt;div&gt;&amp;nbsp; &amp;nbsp; kind: VolumeSnapshot&lt;/div&gt;&lt;div&gt;&amp;nbsp; &amp;nbsp; name: volsync-busybox-another-pvc-dst-20240407075645&lt;/div&gt;&lt;div&gt;&amp;nbsp; latestMoverStatus:&lt;/div&gt;&lt;div&gt;&amp;nbsp; &amp;nbsp; logs: |-&lt;/div&gt;&lt;div&gt;&amp;nbsp; &amp;nbsp; &amp;nbsp; 2024/04/07 07:56:34 [51] sent 88 bytes&amp;nbsp; received 211 bytes&amp;nbsp; total size 5399&lt;/div&gt;&lt;div&gt;&amp;nbsp; &amp;nbsp; &amp;nbsp; 2024/04/07 07:56:34 [54] sent 24 bytes&amp;nbsp; received 91 bytes&amp;nbsp; total size 5399&lt;/div&gt;&lt;div&gt;&amp;nbsp; &amp;nbsp; &amp;nbsp; 2024/04/07 07:56:34 [57] sent 40 bytes&amp;nbsp; received 4568 bytes&amp;nbsp; total size 4469&lt;/div&gt;&lt;div&gt;&amp;nbsp; &amp;nbsp; result: Successful&lt;/div&gt;&lt;div&gt;&amp;nbsp; rsyncTLS:&lt;/div&gt;&lt;div&gt;&amp;nbsp; &amp;nbsp; address: 10.98.253.55&lt;/div&gt;" style="text;strokeColor=none;fillColor=default;align=left;verticalAlign=middle;spacingLeft=4;spacingRight=4;overflow=hidden;points=[[0,0.5],[1,0.5]];portConstraint=eastwest;rotatable=0;whiteSpace=wrap;html=1;" parent="Rm11WEUQjzfcoIPD6hnw-157" vertex="1">
          <mxGeometry y="30" width="580" height="790" as="geometry" />
        </mxCell>
        <mxCell id="Rm11WEUQjzfcoIPD6hnw-155" value="PVC1 RD in app ns" style="swimlane;fontStyle=0;childLayout=stackLayout;horizontal=1;startSize=30;horizontalStack=0;resizeParent=1;resizeParentMax=0;resizeLast=0;collapsible=1;marginBottom=0;whiteSpace=wrap;html=1;" parent="1" vertex="1" collapsed="1">
          <mxGeometry x="665" y="822" width="165" height="30" as="geometry">
            <mxRectangle x="665" y="940" width="580" height="810" as="alternateBounds" />
          </mxGeometry>
        </mxCell>
        <mxCell id="Rm11WEUQjzfcoIPD6hnw-156" value="&lt;div&gt;apiVersion: volsync.backube/v1alpha1&lt;/div&gt;&lt;div&gt;kind: ReplicationDestination&lt;/div&gt;&lt;div&gt;metadata:&lt;/div&gt;&lt;div&gt;&amp;nbsp; annotations:&lt;/div&gt;&lt;div&gt;&amp;nbsp; &amp;nbsp; ramendr.openshift.io/owner-name: deployment-cephfs-drpc&lt;/div&gt;&lt;div&gt;&amp;nbsp; &amp;nbsp; ramendr.openshift.io/owner-namespace: deployment-cephfs&lt;/div&gt;&lt;div&gt;&amp;nbsp; creationTimestamp: &quot;2024-04-07T07:30:20Z&quot;&lt;/div&gt;&lt;div&gt;&amp;nbsp; generation: 1&lt;/div&gt;&lt;div&gt;&amp;nbsp; labels:&lt;/div&gt;&lt;div&gt;&amp;nbsp; &amp;nbsp; volumereplicationgroups-owner: deployment-cephfs-drpc&lt;/div&gt;&lt;div&gt;&amp;nbsp; name: busybox-pvc&lt;/div&gt;&lt;div&gt;&amp;nbsp; namespace: deployment-cephfs&lt;/div&gt;&lt;div&gt;&amp;nbsp; ownerReferences:&lt;/div&gt;&lt;div&gt;&amp;nbsp; - apiVersion: ramendr.openshift.io/v1alpha1&lt;/div&gt;&lt;div&gt;&amp;nbsp; &amp;nbsp; blockOwnerDeletion: true&lt;/div&gt;&lt;div&gt;&amp;nbsp; &amp;nbsp; controller: true&lt;/div&gt;&lt;div&gt;&amp;nbsp; &amp;nbsp; kind: VolumeReplicationGroup&lt;/div&gt;&lt;div&gt;&amp;nbsp; &amp;nbsp; name: deployment-cephfs-drpc&lt;/div&gt;&lt;div&gt;&amp;nbsp; &amp;nbsp; uid: 791016dd-8119-465f-a663-dace34bbfb57&lt;/div&gt;&lt;div&gt;&amp;nbsp; resourceVersion: &quot;66907&quot;&lt;/div&gt;&lt;div&gt;&amp;nbsp; uid: 27bbd9af-218e-4829-804d-247882d46e0f&lt;/div&gt;&lt;div&gt;spec:&lt;/div&gt;&lt;div&gt;&amp;nbsp; rsyncTLS:&lt;/div&gt;&lt;div&gt;&amp;nbsp; &amp;nbsp; accessModes:&lt;/div&gt;&lt;div&gt;&amp;nbsp; &amp;nbsp; - ReadWriteMany&lt;/div&gt;&lt;div&gt;&amp;nbsp; &amp;nbsp; capacity: 1Gi&lt;/div&gt;&lt;div&gt;&amp;nbsp; &amp;nbsp; copyMethod: Snapshot&lt;/div&gt;&lt;div&gt;&amp;nbsp; &amp;nbsp; keySecret: deployment-cephfs-drpc-vs-secret&lt;/div&gt;&lt;div&gt;&amp;nbsp; &amp;nbsp; serviceType: ClusterIP&lt;/div&gt;&lt;div&gt;&amp;nbsp; &amp;nbsp; storageClassName: ocs-storagecluster-cephfs&lt;/div&gt;&lt;div&gt;&amp;nbsp; &amp;nbsp; volumeSnapshotClassName: cephfs-snapclass&lt;/div&gt;&lt;div&gt;status:&lt;/div&gt;&lt;div&gt;&amp;nbsp; conditions:&lt;/div&gt;&lt;div&gt;&amp;nbsp; - lastTransitionTime: &quot;2024-04-07T07:55:54Z&quot;&lt;/div&gt;&lt;div&gt;&amp;nbsp; &amp;nbsp; message: Synchronization in-progress&lt;/div&gt;&lt;div&gt;&amp;nbsp; &amp;nbsp; reason: SyncInProgress&lt;/div&gt;&lt;div&gt;&amp;nbsp; &amp;nbsp; status: &quot;True&quot;&lt;/div&gt;&lt;div&gt;&amp;nbsp; &amp;nbsp; type: Synchronizing&lt;/div&gt;&lt;div&gt;&amp;nbsp; lastSyncDuration: 49.79908757s&lt;/div&gt;&lt;div&gt;&amp;nbsp; lastSyncStartTime: &quot;2024-04-07T07:55:52Z&quot;&lt;/div&gt;&lt;div&gt;&amp;nbsp; lastSyncTime: &quot;2024-04-07T07:55:50Z&quot;&lt;/div&gt;&lt;div&gt;&amp;nbsp; latestImage:&lt;/div&gt;&lt;div&gt;&amp;nbsp; &amp;nbsp; apiGroup: snapshot.storage.k8s.io&lt;/div&gt;&lt;div&gt;&amp;nbsp; &amp;nbsp; kind: VolumeSnapshot&lt;/div&gt;&lt;div&gt;&amp;nbsp; &amp;nbsp; name: volsync-busybox-pvc-dst-20240407075549&lt;/div&gt;&lt;div&gt;&amp;nbsp; latestMoverStatus:&lt;/div&gt;&lt;div&gt;&amp;nbsp; &amp;nbsp; logs: |-&lt;/div&gt;&lt;div&gt;&amp;nbsp; &amp;nbsp; &amp;nbsp; 2024/04/07 07:55:39 [47] sent 88 bytes&amp;nbsp; received 187 bytes&amp;nbsp; total size 5183&lt;/div&gt;&lt;div&gt;&amp;nbsp; &amp;nbsp; &amp;nbsp; 2024/04/07 07:55:39 [51] sent 24 bytes&amp;nbsp; received 80 bytes&amp;nbsp; total size 5183&lt;/div&gt;&lt;div&gt;&amp;nbsp; &amp;nbsp; &amp;nbsp; 2024/04/07 07:55:39 [54] sent 40 bytes&amp;nbsp; received 4576 bytes&amp;nbsp; total size 4469&lt;/div&gt;&lt;div&gt;&amp;nbsp; &amp;nbsp; result: Successful&lt;/div&gt;&lt;div&gt;&amp;nbsp; rsyncTLS:&lt;/div&gt;&lt;div&gt;&amp;nbsp; &amp;nbsp; address: 10.100.225.187&lt;/div&gt;" style="text;strokeColor=none;fillColor=default;align=left;verticalAlign=middle;spacingLeft=4;spacingRight=4;overflow=hidden;points=[[0,0.5],[1,0.5]];portConstraint=eastwest;rotatable=0;whiteSpace=wrap;html=1;" parent="Rm11WEUQjzfcoIPD6hnw-155" vertex="1">
          <mxGeometry y="30" width="580" height="780" as="geometry" />
        </mxCell>
        <mxCell id="Rm11WEUQjzfcoIPD6hnw-114" value="VRG in app ns" style="swimlane;fontStyle=0;childLayout=stackLayout;horizontal=1;startSize=30;horizontalStack=0;resizeParent=1;resizeParentMax=0;resizeLast=0;collapsible=1;marginBottom=0;whiteSpace=wrap;html=1;" parent="1" vertex="1" collapsed="1">
          <mxGeometry x="636" y="709" width="210" height="30" as="geometry">
            <mxRectangle x="333.5" y="640" width="580" height="1790" as="alternateBounds" />
          </mxGeometry>
        </mxCell>
        <mxCell id="Rm11WEUQjzfcoIPD6hnw-115" value="&lt;div&gt;apiVersion: ramendr.openshift.io/v1alpha1&lt;/div&gt;&lt;div&gt;kind: VolumeReplicationGroup&lt;/div&gt;&lt;div&gt;metadata:&lt;/div&gt;&lt;div&gt;&amp;nbsp; annotations:&lt;/div&gt;&lt;div&gt;&amp;nbsp; &amp;nbsp; drplacementcontrol.ramendr.openshift.io/destination-cluster: dr1&lt;/div&gt;&lt;div&gt;&amp;nbsp; &amp;nbsp; drplacementcontrol.ramendr.openshift.io/do-not-delete-pvc: &quot;&quot;&lt;/div&gt;&lt;div&gt;&amp;nbsp; &amp;nbsp; drplacementcontrol.ramendr.openshift.io/drpc-uid: bc7853c1-4010-422c-9bf7-e80980cdd97a&lt;/div&gt;&lt;div&gt;&lt;span style=&quot;background-color: initial;&quot;&gt;&amp;nbsp; finalizers:&lt;/span&gt;&lt;br&gt;&lt;/div&gt;&lt;div&gt;&amp;nbsp; - volumereplicationgroups.ramendr.openshift.io/vrg-protection&lt;/div&gt;&lt;div&gt;&lt;span style=&quot;background-color: initial;&quot;&gt;&amp;nbsp; name: deployment-cephfs-drpc&lt;/span&gt;&lt;br&gt;&lt;/div&gt;&lt;div&gt;&amp;nbsp; namespace: deployment-cephfs&lt;/div&gt;&lt;div&gt;&amp;nbsp; ownerReferences:&lt;/div&gt;&lt;div&gt;&amp;nbsp; - apiVersion: work.open-cluster-management.io/v1&lt;/div&gt;&lt;div&gt;&amp;nbsp; &amp;nbsp; kind: AppliedManifestWork&lt;/div&gt;&lt;div&gt;&amp;nbsp; &amp;nbsp; name: 8b4a44398ddb4f2707e665034e4abba63f5a1d7dec9b2f9dce8c9d4cd1fade06-deployment-cephfs-drpc-deployment-cephfs-vrg-mw&lt;/div&gt;&lt;div&gt;&amp;nbsp; &amp;nbsp; uid: c62aa27c-e5b6-492e-ab70-eab567ab7ea6&lt;/div&gt;&lt;div&gt;&lt;span style=&quot;background-color: initial;&quot;&gt;spec:&lt;/span&gt;&lt;br&gt;&lt;/div&gt;&lt;div&gt;&amp;nbsp; async:&lt;/div&gt;&lt;div&gt;&amp;nbsp; &amp;nbsp; replicationClassSelector: {}&lt;/div&gt;&lt;div&gt;&amp;nbsp; &amp;nbsp; schedulingInterval: 1m&lt;/div&gt;&lt;div&gt;&amp;nbsp; &amp;nbsp; volumeSnapshotClassSelector: {}&lt;/div&gt;&lt;div&gt;&amp;nbsp; pvcSelector:&lt;/div&gt;&lt;div&gt;&amp;nbsp; &amp;nbsp; matchLabels:&lt;/div&gt;&lt;div&gt;&amp;nbsp; &amp;nbsp; &amp;nbsp; appname: busybox&lt;/div&gt;&lt;div&gt;&amp;nbsp; replicationState: primary&lt;/div&gt;&lt;div&gt;&amp;nbsp; s3Profiles:&lt;/div&gt;&lt;div&gt;&amp;nbsp; - minio-on-dr1&lt;/div&gt;&lt;div&gt;&amp;nbsp; - minio-on-dr2&lt;/div&gt;&lt;div&gt;&amp;nbsp; volSync: {}&lt;/div&gt;&lt;div&gt;status:&lt;/div&gt;&lt;div&gt;&amp;nbsp; conditions:&lt;/div&gt;&lt;div&gt;&amp;nbsp; - lastTransitionTime: &quot;2024-04-03T03:27:09Z&quot;&lt;/div&gt;&lt;div&gt;&amp;nbsp; &amp;nbsp; message: All VolSync PVCs are ready&lt;/div&gt;&lt;div&gt;&amp;nbsp; &amp;nbsp; observedGeneration: 1&lt;/div&gt;&lt;div&gt;&amp;nbsp; &amp;nbsp; reason: Ready&lt;/div&gt;&lt;div&gt;&amp;nbsp; &amp;nbsp; status: &quot;True&quot;&lt;/div&gt;&lt;div&gt;&amp;nbsp; &amp;nbsp; type: DataReady&lt;/div&gt;&lt;div&gt;&amp;nbsp; - lastTransitionTime: &quot;2024-04-03T03:28:03Z&quot;&lt;/div&gt;&lt;div&gt;&amp;nbsp; &amp;nbsp; message: All VolSync PVCs are protected&lt;/div&gt;&lt;div&gt;&amp;nbsp; &amp;nbsp; observedGeneration: 1&lt;/div&gt;&lt;div&gt;&amp;nbsp; &amp;nbsp; reason: DataProtected&lt;/div&gt;&lt;div&gt;&amp;nbsp; &amp;nbsp; status: &quot;True&quot;&lt;/div&gt;&lt;div&gt;&amp;nbsp; &amp;nbsp; type: DataProtected&lt;/div&gt;&lt;div&gt;&amp;nbsp; - lastTransitionTime: &quot;2024-04-03T03:26:03Z&quot;&lt;/div&gt;&lt;div&gt;&amp;nbsp; &amp;nbsp; message: Nothing to restore&lt;/div&gt;&lt;div&gt;&amp;nbsp; &amp;nbsp; observedGeneration: 1&lt;/div&gt;&lt;div&gt;&amp;nbsp; &amp;nbsp; reason: Restored&lt;/div&gt;&lt;div&gt;&amp;nbsp; &amp;nbsp; status: &quot;True&quot;&lt;/div&gt;&lt;div&gt;&amp;nbsp; &amp;nbsp; type: ClusterDataReady&lt;/div&gt;&lt;div&gt;&amp;nbsp; - lastTransitionTime: &quot;2024-04-03T12:48:45Z&quot;&lt;/div&gt;&lt;div&gt;&amp;nbsp; &amp;nbsp; message: Kube objects protected&lt;/div&gt;&lt;div&gt;&amp;nbsp; &amp;nbsp; observedGeneration: 1&lt;/div&gt;&lt;div&gt;&amp;nbsp; &amp;nbsp; reason: Uploaded&lt;/div&gt;&lt;div&gt;&amp;nbsp; &amp;nbsp; status: &quot;True&quot;&lt;/div&gt;&lt;div&gt;&amp;nbsp; &amp;nbsp; type: ClusterDataProtected&lt;/div&gt;&lt;div&gt;&amp;nbsp; kubeObjectProtection: {}&lt;/div&gt;&lt;div&gt;&amp;nbsp; lastGroupSyncDuration: 1m4.629171366s&lt;/div&gt;&lt;div&gt;&amp;nbsp; lastGroupSyncTime: &quot;2024-04-03T12:43:02Z&quot;&lt;/div&gt;&lt;div&gt;&amp;nbsp; lastUpdateTime: &quot;2024-04-03T12:48:45Z&quot;&lt;/div&gt;&lt;div&gt;&amp;nbsp; observedGeneration: 1&lt;/div&gt;&lt;div&gt;&amp;nbsp; protectedPVCs:&lt;/div&gt;&lt;div&gt;&amp;nbsp; - accessModes:&lt;/div&gt;&lt;div&gt;&amp;nbsp; &amp;nbsp; - ReadWriteOnce&lt;/div&gt;&lt;div&gt;&amp;nbsp; &amp;nbsp; annotations:&lt;/div&gt;&lt;div&gt;&amp;nbsp; &amp;nbsp; &amp;nbsp; apps.open-cluster-management.io/hosting-subscription: deployment-cephfs/subscription&lt;/div&gt;&lt;div&gt;&amp;nbsp; &amp;nbsp; &amp;nbsp; apps.open-cluster-management.io/reconcile-option: merge&lt;/div&gt;&lt;div&gt;&amp;nbsp; &amp;nbsp; conditions:&lt;/div&gt;&lt;div&gt;&amp;nbsp; &amp;nbsp; - lastTransitionTime: &quot;2024-04-03T03:27:09Z&quot;&lt;/div&gt;&lt;div&gt;&amp;nbsp; &amp;nbsp; &amp;nbsp; message: Ready&lt;/div&gt;&lt;div&gt;&amp;nbsp; &amp;nbsp; &amp;nbsp; observedGeneration: 1&lt;/div&gt;&lt;div&gt;&amp;nbsp; &amp;nbsp; &amp;nbsp; reason: SourceInitialized&lt;/div&gt;&lt;div&gt;&amp;nbsp; &amp;nbsp; &amp;nbsp; status: &quot;True&quot;&lt;/div&gt;&lt;div&gt;&amp;nbsp; &amp;nbsp; &amp;nbsp; type: ReplicationSourceSetup&lt;/div&gt;&lt;div&gt;&amp;nbsp; &amp;nbsp; labels:&lt;/div&gt;&lt;div&gt;&amp;nbsp; &amp;nbsp; &amp;nbsp; app: deployment-cephfs&lt;/div&gt;&lt;div&gt;&amp;nbsp; &amp;nbsp; &amp;nbsp; app.kubernetes.io/part-of: deployment-cephfs&lt;/div&gt;&lt;div&gt;&amp;nbsp; &amp;nbsp; &amp;nbsp; appname: busybox&lt;/div&gt;&lt;div&gt;&amp;nbsp; &amp;nbsp; lastSyncDuration: 1m4.629171366s&lt;/div&gt;&lt;div&gt;&amp;nbsp; &amp;nbsp; lastSyncTime: &quot;2024-04-03T12:43:04Z&quot;&lt;/div&gt;&lt;div&gt;&amp;nbsp; &amp;nbsp; name: busybox-another-pvc&lt;/div&gt;&lt;div&gt;&amp;nbsp; &amp;nbsp; namespace: deployment-cephfs&lt;/div&gt;&lt;div&gt;&amp;nbsp; &amp;nbsp; protectedByVolSync: true&lt;/div&gt;&lt;div&gt;&amp;nbsp; &amp;nbsp; replicationID:&lt;/div&gt;&lt;div&gt;&amp;nbsp; &amp;nbsp; &amp;nbsp; id: &quot;&quot;&lt;/div&gt;&lt;div&gt;&amp;nbsp; &amp;nbsp; resources:&lt;/div&gt;&lt;div&gt;&amp;nbsp; &amp;nbsp; &amp;nbsp; requests:&lt;/div&gt;&lt;div&gt;&amp;nbsp; &amp;nbsp; &amp;nbsp; &amp;nbsp; storage: 1Gi&lt;/div&gt;&lt;div&gt;&amp;nbsp; &amp;nbsp; storageClassName: ocs-storagecluster-cephfs&lt;/div&gt;&lt;div&gt;&amp;nbsp; &amp;nbsp; storageID:&lt;/div&gt;&lt;div&gt;&amp;nbsp; &amp;nbsp; &amp;nbsp; id: &quot;&quot;&lt;/div&gt;&lt;div&gt;&amp;nbsp; - accessModes:&lt;/div&gt;&lt;div&gt;&amp;nbsp; &amp;nbsp; - ReadWriteMany&lt;/div&gt;&lt;div&gt;&amp;nbsp; &amp;nbsp; annotations:&lt;/div&gt;&lt;div&gt;&amp;nbsp; &amp;nbsp; &amp;nbsp; apps.open-cluster-management.io/hosting-subscription: deployment-cephfs/subscription&lt;/div&gt;&lt;div&gt;&amp;nbsp; &amp;nbsp; &amp;nbsp; apps.open-cluster-management.io/reconcile-option: merge&lt;/div&gt;&lt;div&gt;&amp;nbsp; &amp;nbsp; conditions:&lt;/div&gt;&lt;div&gt;&amp;nbsp; &amp;nbsp; - lastTransitionTime: &quot;2024-04-03T03:27:09Z&quot;&lt;/div&gt;&lt;div&gt;&amp;nbsp; &amp;nbsp; &amp;nbsp; message: Ready&lt;/div&gt;&lt;div&gt;&amp;nbsp; &amp;nbsp; &amp;nbsp; observedGeneration: 1&lt;/div&gt;&lt;div&gt;&amp;nbsp; &amp;nbsp; &amp;nbsp; reason: SourceInitialized&lt;/div&gt;&lt;div&gt;&amp;nbsp; &amp;nbsp; &amp;nbsp; status: &quot;True&quot;&lt;/div&gt;&lt;div&gt;&amp;nbsp; &amp;nbsp; &amp;nbsp; type: ReplicationSourceSetup&lt;/div&gt;&lt;div&gt;&amp;nbsp; &amp;nbsp; labels:&lt;/div&gt;&lt;div&gt;&amp;nbsp; &amp;nbsp; &amp;nbsp; app: deployment-cephfs&lt;/div&gt;&lt;div&gt;&amp;nbsp; &amp;nbsp; &amp;nbsp; app.kubernetes.io/part-of: deployment-cephfs&lt;/div&gt;&lt;div&gt;&amp;nbsp; &amp;nbsp; &amp;nbsp; appname: busybox&lt;/div&gt;&lt;div&gt;&amp;nbsp; &amp;nbsp; lastSyncDuration: 1m2.473563563s&lt;/div&gt;&lt;div&gt;&amp;nbsp; &amp;nbsp; lastSyncTime: &quot;2024-04-03T12:43:02Z&quot;&lt;/div&gt;&lt;div&gt;&amp;nbsp; &amp;nbsp; name: busybox-pvc&lt;/div&gt;&lt;div&gt;&amp;nbsp; &amp;nbsp; namespace: deployment-cephfs&lt;/div&gt;&lt;div&gt;&amp;nbsp; &amp;nbsp; protectedByVolSync: true&lt;/div&gt;&lt;div&gt;&amp;nbsp; &amp;nbsp; replicationID:&lt;/div&gt;&lt;div&gt;&amp;nbsp; &amp;nbsp; &amp;nbsp; id: &quot;&quot;&lt;/div&gt;&lt;div&gt;&amp;nbsp; &amp;nbsp; resources:&lt;/div&gt;&lt;div&gt;&amp;nbsp; &amp;nbsp; &amp;nbsp; requests:&lt;/div&gt;&lt;div&gt;&amp;nbsp; &amp;nbsp; &amp;nbsp; &amp;nbsp; storage: 1Gi&lt;/div&gt;&lt;div&gt;&amp;nbsp; &amp;nbsp; storageClassName: ocs-storagecluster-cephfs&lt;/div&gt;&lt;div&gt;&amp;nbsp; &amp;nbsp; storageID:&lt;/div&gt;&lt;div&gt;&amp;nbsp; &amp;nbsp; &amp;nbsp; id: &quot;&quot;&lt;/div&gt;&lt;div&gt;&amp;nbsp; state: Primary&lt;/div&gt;" style="text;strokeColor=none;fillColor=default;align=left;verticalAlign=middle;spacingLeft=4;spacingRight=4;overflow=hidden;points=[[0,0.5],[1,0.5]];portConstraint=eastwest;rotatable=0;whiteSpace=wrap;html=1;" parent="Rm11WEUQjzfcoIPD6hnw-114" vertex="1">
          <mxGeometry y="30" width="580" height="1760" as="geometry" />
        </mxCell>
        <mxCell id="Rm11WEUQjzfcoIPD6hnw-130" value="vs secret" style="swimlane;fontStyle=0;childLayout=stackLayout;horizontal=1;startSize=30;horizontalStack=0;resizeParent=1;resizeParentMax=0;resizeLast=0;collapsible=1;marginBottom=0;whiteSpace=wrap;html=1;" parent="1" vertex="1" collapsed="1">
          <mxGeometry x="335" y="1130" width="90" height="30" as="geometry">
            <mxRectangle x="830" y="1180" width="1470" height="340" as="alternateBounds" />
          </mxGeometry>
        </mxCell>
        <mxCell id="Rm11WEUQjzfcoIPD6hnw-131" value="&lt;div&gt;apiVersion: v1&lt;/div&gt;&lt;div&gt;data:&lt;/div&gt;&lt;div&gt;&amp;nbsp; psk.txt: dm9sc3luY3JhbWVuOjQ4NWQ3ZGQ4MWQwMWYyYmE3MWZjNTE5ZmJkZGRiMWRmMDVhNjMzYTRhZTBjMzM0MDU2OGRkMDVlZDQ5MmZlNWY5YWJjMTJiMTExM2EyOGJjYzBlMzkzMDFlY2E1MGYzMTJiZjhhMjQxYWJkODlhMzM4MzRjODIzZDk2NzllODM3&lt;/div&gt;&lt;div&gt;kind: Secret&lt;/div&gt;&lt;div&gt;metadata:&lt;/div&gt;&lt;div&gt;&amp;nbsp; creationTimestamp: &quot;2024-04-07T07:30:11Z&quot;&lt;/div&gt;&lt;div&gt;&amp;nbsp; labels:&lt;/div&gt;&lt;div&gt;&amp;nbsp; &amp;nbsp; cluster.open-cluster-management.io/backup: ramen&lt;/div&gt;&lt;div&gt;&amp;nbsp; name: deployment-cephfs-drpc-vs-secret-hub&lt;/div&gt;&lt;div&gt;&amp;nbsp; namespace: deployment-cephfs&lt;/div&gt;&lt;div&gt;&amp;nbsp; ownerReferences:&lt;/div&gt;&lt;div&gt;&amp;nbsp; - apiVersion: ramendr.openshift.io/v1alpha1&lt;/div&gt;&lt;div&gt;&amp;nbsp; &amp;nbsp; blockOwnerDeletion: true&lt;/div&gt;&lt;div&gt;&amp;nbsp; &amp;nbsp; controller: true&lt;/div&gt;&lt;div&gt;&amp;nbsp; &amp;nbsp; kind: DRPlacementControl&lt;/div&gt;&lt;div&gt;&amp;nbsp; &amp;nbsp; name: deployment-cephfs-drpc&lt;/div&gt;&lt;div&gt;&amp;nbsp; &amp;nbsp; uid: 3e846889-d6a6-4652-9198-0b9da0662790&lt;/div&gt;&lt;div&gt;&amp;nbsp; resourceVersion: &quot;32269&quot;&lt;/div&gt;&lt;div&gt;&amp;nbsp; uid: 012ec379-80fe-4c58-b7d0-7fde7fdd6e67&lt;/div&gt;&lt;div&gt;type: Opaque&lt;/div&gt;" style="text;strokeColor=none;fillColor=default;align=left;verticalAlign=middle;spacingLeft=4;spacingRight=4;overflow=hidden;points=[[0,0.5],[1,0.5]];portConstraint=eastwest;rotatable=0;whiteSpace=wrap;html=1;" parent="Rm11WEUQjzfcoIPD6hnw-130" vertex="1">
          <mxGeometry y="30" width="1470" height="310" as="geometry" />
        </mxCell>
        <mxCell id="Rm11WEUQjzfcoIPD6hnw-172" value="PVC2 from Snapshot" style="swimlane;fontStyle=0;childLayout=stackLayout;horizontal=1;startSize=30;horizontalStack=0;resizeParent=1;resizeParentMax=0;resizeLast=0;collapsible=1;marginBottom=0;whiteSpace=wrap;html=1;" parent="1" vertex="1" collapsed="1">
          <mxGeometry x="300" y="1060" width="141" height="30" as="geometry">
            <mxRectangle x="321" y="1060" width="380" height="780" as="alternateBounds" />
          </mxGeometry>
        </mxCell>
        <mxCell id="Rm11WEUQjzfcoIPD6hnw-173" value="&lt;div&gt;apiVersion: v1&lt;/div&gt;&lt;div&gt;kind: PersistentVolumeClaim&lt;/div&gt;&lt;div&gt;metadata:&lt;/div&gt;&lt;div&gt;&amp;nbsp; annotations:&lt;/div&gt;&lt;div&gt;&amp;nbsp; &amp;nbsp; pv.kubernetes.io/bind-completed: &quot;yes&quot;&lt;/div&gt;&lt;div&gt;&amp;nbsp; &amp;nbsp; pv.kubernetes.io/bound-by-controller: &quot;yes&quot;&lt;/div&gt;&lt;div&gt;&amp;nbsp; &amp;nbsp; volume.beta.kubernetes.io/storage-provisioner: rook-ceph.cephfs.csi.ceph.com&lt;/div&gt;&lt;div&gt;&amp;nbsp; &amp;nbsp; volume.kubernetes.io/storage-provisioner: rook-ceph.cephfs.csi.ceph.com&lt;/div&gt;&lt;div&gt;&amp;nbsp; creationTimestamp: &quot;2024-04-07T08:05:03Z&quot;&lt;/div&gt;&lt;div&gt;&amp;nbsp; finalizers:&lt;/div&gt;&lt;div&gt;&amp;nbsp; - kubernetes.io/pvc-protection&lt;/div&gt;&lt;div&gt;&amp;nbsp; labels:&lt;/div&gt;&lt;div&gt;&amp;nbsp; &amp;nbsp; app.kubernetes.io/created-by: volsync&lt;/div&gt;&lt;div&gt;&amp;nbsp; &amp;nbsp; volsync.backube/cleanup: 06991a5e-9eef-46ed-a461-8d9ea68e4e06&lt;/div&gt;&lt;div&gt;&amp;nbsp; name: volsync-busybox-another-pvc-src&lt;/div&gt;&lt;div&gt;&amp;nbsp; namespace: deployment-cephfs&lt;/div&gt;&lt;div&gt;&amp;nbsp; ownerReferences:&lt;/div&gt;&lt;div&gt;&amp;nbsp; - apiVersion: volsync.backube/v1alpha1&lt;/div&gt;&lt;div&gt;&amp;nbsp; &amp;nbsp; blockOwnerDeletion: true&lt;/div&gt;&lt;div&gt;&amp;nbsp; &amp;nbsp; controller: true&lt;/div&gt;&lt;div&gt;&amp;nbsp; &amp;nbsp; kind: ReplicationSource&lt;/div&gt;&lt;div&gt;&amp;nbsp; &amp;nbsp; name: busybox-another-pvc&lt;/div&gt;&lt;div&gt;&amp;nbsp; &amp;nbsp; uid: 06991a5e-9eef-46ed-a461-8d9ea68e4e06&lt;/div&gt;&lt;div&gt;&amp;nbsp; resourceVersion: &quot;72215&quot;&lt;/div&gt;&lt;div&gt;&amp;nbsp; uid: 13c24a5c-7f88-4d1b-ab38-04cf82bc6660&lt;/div&gt;&lt;div&gt;spec:&lt;/div&gt;&lt;div&gt;&amp;nbsp; accessModes:&lt;/div&gt;&lt;div&gt;&amp;nbsp; - ReadWriteOnce&lt;/div&gt;&lt;div&gt;&amp;nbsp; dataSource:&lt;/div&gt;&lt;div&gt;&amp;nbsp; &amp;nbsp; apiGroup: snapshot.storage.k8s.io&lt;/div&gt;&lt;div&gt;&amp;nbsp; &amp;nbsp; kind: VolumeSnapshot&lt;/div&gt;&lt;div&gt;&amp;nbsp; &amp;nbsp; name: volsync-busybox-another-pvc-src&lt;/div&gt;&lt;div&gt;&amp;nbsp; dataSourceRef:&lt;/div&gt;&lt;div&gt;&amp;nbsp; &amp;nbsp; apiGroup: snapshot.storage.k8s.io&lt;/div&gt;&lt;div&gt;&amp;nbsp; &amp;nbsp; kind: VolumeSnapshot&lt;/div&gt;&lt;div&gt;&amp;nbsp; &amp;nbsp; name: volsync-busybox-another-pvc-src&lt;/div&gt;&lt;div&gt;&amp;nbsp; resources:&lt;/div&gt;&lt;div&gt;&amp;nbsp; &amp;nbsp; requests:&lt;/div&gt;&lt;div&gt;&amp;nbsp; &amp;nbsp; &amp;nbsp; storage: 1Gi&lt;/div&gt;&lt;div&gt;&amp;nbsp; storageClassName: ocs-storagecluster-cephfs&lt;/div&gt;&lt;div&gt;&amp;nbsp; volumeMode: Filesystem&lt;/div&gt;&lt;div&gt;&amp;nbsp; volumeName: pvc-13c24a5c-7f88-4d1b-ab38-04cf82bc6660&lt;/div&gt;&lt;div&gt;status:&lt;/div&gt;&lt;div&gt;&amp;nbsp; accessModes:&lt;/div&gt;&lt;div&gt;&amp;nbsp; - ReadWriteOnce&lt;/div&gt;&lt;div&gt;&amp;nbsp; capacity:&lt;/div&gt;&lt;div&gt;&amp;nbsp; &amp;nbsp; storage: 1Gi&lt;/div&gt;&lt;div&gt;&amp;nbsp; phase: Bound&lt;/div&gt;" style="text;strokeColor=none;fillColor=default;align=left;verticalAlign=middle;spacingLeft=4;spacingRight=4;overflow=hidden;points=[[0,0.5],[1,0.5]];portConstraint=eastwest;rotatable=0;whiteSpace=wrap;html=1;" parent="Rm11WEUQjzfcoIPD6hnw-172" vertex="1">
          <mxGeometry y="30" width="380" height="750" as="geometry" />
        </mxCell>
        <mxCell id="Rm11WEUQjzfcoIPD6hnw-170" value="PVC1 from Snapshot" style="swimlane;fontStyle=0;childLayout=stackLayout;horizontal=1;startSize=30;horizontalStack=0;resizeParent=1;resizeParentMax=0;resizeLast=0;collapsible=1;marginBottom=0;whiteSpace=wrap;html=1;" parent="1" vertex="1" collapsed="1">
          <mxGeometry x="300" y="1030" width="141" height="30" as="geometry">
            <mxRectangle x="320.9999999999999" y="1030" width="400" height="780" as="alternateBounds" />
          </mxGeometry>
        </mxCell>
        <mxCell id="Rm11WEUQjzfcoIPD6hnw-171" value="&lt;div&gt;apiVersion: v1&lt;/div&gt;&lt;div&gt;kind: PersistentVolumeClaim&lt;/div&gt;&lt;div&gt;metadata:&lt;/div&gt;&lt;div&gt;&amp;nbsp; annotations:&lt;/div&gt;&lt;div&gt;&amp;nbsp; &amp;nbsp; pv.kubernetes.io/bind-completed: &quot;yes&quot;&lt;/div&gt;&lt;div&gt;&amp;nbsp; &amp;nbsp; pv.kubernetes.io/bound-by-controller: &quot;yes&quot;&lt;/div&gt;&lt;div&gt;&amp;nbsp; &amp;nbsp; volume.beta.kubernetes.io/storage-provisioner: rook-ceph.cephfs.csi.ceph.com&lt;/div&gt;&lt;div&gt;&amp;nbsp; &amp;nbsp; volume.kubernetes.io/storage-provisioner: rook-ceph.cephfs.csi.ceph.com&lt;/div&gt;&lt;div&gt;&amp;nbsp; creationTimestamp: &quot;2024-04-07T08:04:04Z&quot;&lt;/div&gt;&lt;div&gt;&amp;nbsp; finalizers:&lt;/div&gt;&lt;div&gt;&amp;nbsp; - kubernetes.io/pvc-protection&lt;/div&gt;&lt;div&gt;&amp;nbsp; labels:&lt;/div&gt;&lt;div&gt;&amp;nbsp; &amp;nbsp; app.kubernetes.io/created-by: volsync&lt;/div&gt;&lt;div&gt;&amp;nbsp; &amp;nbsp; volsync.backube/cleanup: 17d6ace8-55e2-4f46-abb0-17c20570f420&lt;/div&gt;&lt;div&gt;&amp;nbsp; name: volsync-busybox-pvc-src&lt;/div&gt;&lt;div&gt;&amp;nbsp; namespace: deployment-cephfs&lt;/div&gt;&lt;div&gt;&amp;nbsp; ownerReferences:&lt;/div&gt;&lt;div&gt;&amp;nbsp; - apiVersion: volsync.backube/v1alpha1&lt;/div&gt;&lt;div&gt;&amp;nbsp; &amp;nbsp; blockOwnerDeletion: true&lt;/div&gt;&lt;div&gt;&amp;nbsp; &amp;nbsp; controller: true&lt;/div&gt;&lt;div&gt;&amp;nbsp; &amp;nbsp; kind: ReplicationSource&lt;/div&gt;&lt;div&gt;&amp;nbsp; &amp;nbsp; name: busybox-pvc&lt;/div&gt;&lt;div&gt;&amp;nbsp; &amp;nbsp; uid: 17d6ace8-55e2-4f46-abb0-17c20570f420&lt;/div&gt;&lt;div&gt;&amp;nbsp; resourceVersion: &quot;71771&quot;&lt;/div&gt;&lt;div&gt;&amp;nbsp; uid: edcca613-24b9-4660-a55c-615149da1044&lt;/div&gt;&lt;div&gt;spec:&lt;/div&gt;&lt;div&gt;&amp;nbsp; accessModes:&lt;/div&gt;&lt;div&gt;&amp;nbsp; - ReadWriteMany&lt;/div&gt;&lt;div&gt;&amp;nbsp; dataSource:&lt;/div&gt;&lt;div&gt;&amp;nbsp; &amp;nbsp; apiGroup: snapshot.storage.k8s.io&lt;/div&gt;&lt;div&gt;&amp;nbsp; &amp;nbsp; kind: VolumeSnapshot&lt;/div&gt;&lt;div&gt;&amp;nbsp; &amp;nbsp; name: volsync-busybox-pvc-src&lt;/div&gt;&lt;div&gt;&amp;nbsp; dataSourceRef:&lt;/div&gt;&lt;div&gt;&amp;nbsp; &amp;nbsp; apiGroup: snapshot.storage.k8s.io&lt;/div&gt;&lt;div&gt;&amp;nbsp; &amp;nbsp; kind: VolumeSnapshot&lt;/div&gt;&lt;div&gt;&amp;nbsp; &amp;nbsp; name: volsync-busybox-pvc-src&lt;/div&gt;&lt;div&gt;&amp;nbsp; resources:&lt;/div&gt;&lt;div&gt;&amp;nbsp; &amp;nbsp; requests:&lt;/div&gt;&lt;div&gt;&amp;nbsp; &amp;nbsp; &amp;nbsp; storage: 1Gi&lt;/div&gt;&lt;div&gt;&amp;nbsp; storageClassName: ocs-storagecluster-cephfs&lt;/div&gt;&lt;div&gt;&amp;nbsp; volumeMode: Filesystem&lt;/div&gt;&lt;div&gt;&amp;nbsp; volumeName: pvc-edcca613-24b9-4660-a55c-615149da1044&lt;/div&gt;&lt;div&gt;status:&lt;/div&gt;&lt;div&gt;&amp;nbsp; accessModes:&lt;/div&gt;&lt;div&gt;&amp;nbsp; - ReadWriteMany&lt;/div&gt;&lt;div&gt;&amp;nbsp; capacity:&lt;/div&gt;&lt;div&gt;&amp;nbsp; &amp;nbsp; storage: 1Gi&lt;/div&gt;&lt;div&gt;&amp;nbsp; phase: Bound&lt;/div&gt;" style="text;strokeColor=none;fillColor=default;align=left;verticalAlign=middle;spacingLeft=4;spacingRight=4;overflow=hidden;points=[[0,0.5],[1,0.5]];portConstraint=eastwest;rotatable=0;whiteSpace=wrap;html=1;" parent="Rm11WEUQjzfcoIPD6hnw-170" vertex="1">
          <mxGeometry y="30" width="400" height="750" as="geometry" />
        </mxCell>
        <mxCell id="Rm11WEUQjzfcoIPD6hnw-39" value="PVC2 RS in app ns" style="swimlane;fontStyle=0;childLayout=stackLayout;horizontal=1;startSize=30;horizontalStack=0;resizeParent=1;resizeParentMax=0;resizeLast=0;collapsible=1;marginBottom=0;whiteSpace=wrap;html=1;" parent="1" vertex="1" collapsed="1">
          <mxGeometry x="306.12" y="991" width="165" height="30" as="geometry">
            <mxRectangle x="306.12" y="991" width="580" height="750" as="alternateBounds" />
          </mxGeometry>
        </mxCell>
        <mxCell id="Rm11WEUQjzfcoIPD6hnw-40" value="&lt;div&gt;apiVersion: volsync.backube/v1alpha1&lt;/div&gt;&lt;div&gt;kind: ReplicationSource&lt;/div&gt;&lt;div&gt;metadata:&lt;/div&gt;&lt;div&gt;&amp;nbsp; creationTimestamp: &quot;2024-04-03T03:27:09Z&quot;&lt;/div&gt;&lt;div&gt;&amp;nbsp; generation: 1&lt;/div&gt;&lt;div&gt;&amp;nbsp; labels:&lt;/div&gt;&lt;div&gt;&amp;nbsp; &amp;nbsp; volumereplicationgroups-owner: deployment-cephfs-drpc&lt;/div&gt;&lt;div&gt;&amp;nbsp; name: busybox-pvc&lt;/div&gt;&lt;div&gt;&amp;nbsp; namespace: deployment-cephfs&lt;/div&gt;&lt;div&gt;&amp;nbsp; ownerReferences:&lt;/div&gt;&lt;div&gt;&amp;nbsp; - apiVersion: ramendr.openshift.io/v1alpha1&lt;/div&gt;&lt;div&gt;&amp;nbsp; &amp;nbsp; blockOwnerDeletion: true&lt;/div&gt;&lt;div&gt;&amp;nbsp; &amp;nbsp; controller: true&lt;/div&gt;&lt;div&gt;&amp;nbsp; &amp;nbsp; kind: VolumeReplicationGroup&lt;/div&gt;&lt;div&gt;&amp;nbsp; &amp;nbsp; name: deployment-cephfs-drpc&lt;/div&gt;&lt;div&gt;&amp;nbsp; &amp;nbsp; uid: 6b1b9f92-9ca1-47eb-b98c-731bc1aab586&lt;/div&gt;&lt;div&gt;&amp;nbsp; resourceVersion: &quot;223111&quot;&lt;/div&gt;&lt;div&gt;&amp;nbsp; uid: d7b2fae6-e834-40b7-8285-a0dbc2fe6c0a&lt;/div&gt;&lt;div&gt;spec:&lt;/div&gt;&lt;div&gt;&amp;nbsp; rsyncTLS:&lt;/div&gt;&lt;div&gt;&amp;nbsp; &amp;nbsp; accessModes:&lt;/div&gt;&lt;div&gt;&amp;nbsp; &amp;nbsp; - ReadWriteMany&lt;/div&gt;&lt;div&gt;&amp;nbsp; &amp;nbsp; address: volsync-rsync-tls-dst-busybox-pvc.deployment-cephfs.svc.clusterset.local&lt;/div&gt;&lt;div&gt;&amp;nbsp; &amp;nbsp; copyMethod: Snapshot&lt;/div&gt;&lt;div&gt;&amp;nbsp; &amp;nbsp; keySecret: deployment-cephfs-drpc-vs-secret&lt;/div&gt;&lt;div&gt;&amp;nbsp; &amp;nbsp; storageClassName:&amp;nbsp;&lt;span style=&quot;background-color: initial;&quot;&gt;ocs-storagecluster-cephfs-vrg&lt;/span&gt;&lt;/div&gt;&lt;div&gt;&amp;nbsp; &amp;nbsp; volumeSnapshotClassName: cephfs-snapclass&lt;/div&gt;&lt;div&gt;&amp;nbsp; sourcePVC: busybox-pvc&lt;/div&gt;&lt;div&gt;&amp;nbsp; trigger:&lt;/div&gt;&lt;div&gt;&amp;nbsp; &amp;nbsp; schedule: &#39;*/1 * * * *&#39;&lt;/div&gt;&lt;div&gt;status:&lt;/div&gt;&lt;div&gt;&amp;nbsp; conditions:&lt;/div&gt;&lt;div&gt;&amp;nbsp; - lastTransitionTime: &quot;2024-04-03T13:01:06Z&quot;&lt;/div&gt;&lt;div&gt;&amp;nbsp; &amp;nbsp; message: Synchronization in-progress&lt;/div&gt;&lt;div&gt;&amp;nbsp; &amp;nbsp; reason: SyncInProgress&lt;/div&gt;&lt;div&gt;&amp;nbsp; &amp;nbsp; status: &quot;True&quot;&lt;/div&gt;&lt;div&gt;&amp;nbsp; &amp;nbsp; type: Synchronizing&lt;/div&gt;&lt;div&gt;&amp;nbsp; lastSyncDuration: 1m10.094483958s&lt;/div&gt;&lt;div&gt;&amp;nbsp; lastSyncStartTime: &quot;2024-04-03T13:01:00Z&quot;&lt;/div&gt;&lt;div&gt;&amp;nbsp; lastSyncTime: &quot;2024-04-03T13:00:10Z&quot;&lt;/div&gt;&lt;div&gt;&amp;nbsp; latestMoverStatus:&lt;/div&gt;&lt;div&gt;&amp;nbsp; &amp;nbsp; logs: |-&lt;/div&gt;&lt;div&gt;&amp;nbsp; &amp;nbsp; &amp;nbsp; sent 218 bytes&amp;nbsp; received 617 bytes&amp;nbsp; 556.67 bytes/sec&lt;/div&gt;&lt;div&gt;&amp;nbsp; &amp;nbsp; &amp;nbsp; total size is 67.89K&amp;nbsp; speedup is 81.31&lt;/div&gt;&lt;div&gt;&amp;nbsp; &amp;nbsp; &amp;nbsp; sent 75 bytes&amp;nbsp; received 19 bytes&amp;nbsp; 188.00 bytes/sec&lt;/div&gt;&lt;div&gt;&amp;nbsp; &amp;nbsp; &amp;nbsp; total size is 67,895&amp;nbsp; speedup is 722.29&lt;/div&gt;&lt;div&gt;&amp;nbsp; &amp;nbsp; &amp;nbsp; rsync completed in 1s&lt;/div&gt;&lt;div&gt;&amp;nbsp; &amp;nbsp; result: Successful&lt;/div&gt;&lt;div&gt;&amp;nbsp; nextSyncTime: &quot;2024-04-03T13:01:00Z&quot;&lt;/div&gt;&lt;div&gt;&amp;nbsp; rsyncTLS: {}&lt;/div&gt;" style="text;strokeColor=none;fillColor=default;align=left;verticalAlign=middle;spacingLeft=4;spacingRight=4;overflow=hidden;points=[[0,0.5],[1,0.5]];portConstraint=eastwest;rotatable=0;whiteSpace=wrap;html=1;" parent="Rm11WEUQjzfcoIPD6hnw-39" vertex="1">
          <mxGeometry y="30" width="580" height="720" as="geometry" />
        </mxCell>
        <mxCell id="Rm11WEUQjzfcoIPD6hnw-35" value="PVC1 RS in app ns" style="swimlane;fontStyle=0;childLayout=stackLayout;horizontal=1;startSize=30;horizontalStack=0;resizeParent=1;resizeParentMax=0;resizeLast=0;collapsible=1;marginBottom=0;whiteSpace=wrap;html=1;" parent="1" vertex="1" collapsed="1">
          <mxGeometry x="306.12" y="961" width="165" height="30" as="geometry">
            <mxRectangle x="306.12" y="961" width="580" height="750" as="alternateBounds" />
          </mxGeometry>
        </mxCell>
        <mxCell id="Rm11WEUQjzfcoIPD6hnw-36" value="&lt;div&gt;apiVersion: volsync.backube/v1alpha1&lt;/div&gt;&lt;div&gt;kind: ReplicationSource&lt;/div&gt;&lt;div&gt;metadata:&lt;/div&gt;&lt;div&gt;&amp;nbsp; creationTimestamp: &quot;2024-04-03T03:27:08Z&quot;&lt;/div&gt;&lt;div&gt;&amp;nbsp; generation: 1&lt;/div&gt;&lt;div&gt;&amp;nbsp; labels:&lt;/div&gt;&lt;div&gt;&amp;nbsp; &amp;nbsp; volumereplicationgroups-owner: deployment-cephfs-drpc&lt;/div&gt;&lt;div&gt;&amp;nbsp; name: busybox-another-pvc&lt;/div&gt;&lt;div&gt;&amp;nbsp; namespace: deployment-cephfs&lt;/div&gt;&lt;div&gt;&amp;nbsp; ownerReferences:&lt;/div&gt;&lt;div&gt;&amp;nbsp; - apiVersion: ramendr.openshift.io/v1alpha1&lt;/div&gt;&lt;div&gt;&amp;nbsp; &amp;nbsp; blockOwnerDeletion: true&lt;/div&gt;&lt;div&gt;&amp;nbsp; &amp;nbsp; controller: true&lt;/div&gt;&lt;div&gt;&amp;nbsp; &amp;nbsp; kind: VolumeReplicationGroup&lt;/div&gt;&lt;div&gt;&amp;nbsp; &amp;nbsp; name: deployment-cephfs-drpc&lt;/div&gt;&lt;div&gt;&amp;nbsp; &amp;nbsp; uid: 6b1b9f92-9ca1-47eb-b98c-731bc1aab586&lt;/div&gt;&lt;div&gt;&amp;nbsp; resourceVersion: &quot;222811&quot;&lt;/div&gt;&lt;div&gt;&amp;nbsp; uid: 244b1ed5-812c-4d5e-8efd-179ca7da9d42&lt;/div&gt;&lt;div&gt;spec:&lt;/div&gt;&lt;div&gt;&amp;nbsp; rsyncTLS:&lt;/div&gt;&lt;div&gt;&amp;nbsp; &amp;nbsp; accessModes:&lt;/div&gt;&lt;div&gt;&amp;nbsp; &amp;nbsp; - ReadWriteOnce&lt;/div&gt;&lt;div&gt;&amp;nbsp; &amp;nbsp; address: volsync-rsync-tls-dst-busybox-another-pvc.deployment-cephfs.svc.clusterset.local&lt;/div&gt;&lt;div&gt;&amp;nbsp; &amp;nbsp; copyMethod: Snapshot&lt;/div&gt;&lt;div&gt;&amp;nbsp; &amp;nbsp; keySecret: deployment-cephfs-drpc-vs-secret&lt;/div&gt;&lt;div&gt;&amp;nbsp; &amp;nbsp; storageClassName:&amp;nbsp;&lt;span style=&quot;background-color: initial;&quot;&gt;ocs-storagecluster-cephfs-vrg&lt;/span&gt;&lt;/div&gt;&lt;div&gt;&amp;nbsp; &amp;nbsp; volumeSnapshotClassName: cephfs-snapclass&lt;/div&gt;&lt;div&gt;&amp;nbsp; sourcePVC: busybox-another-pvc&lt;/div&gt;&lt;div&gt;&amp;nbsp; trigger:&lt;/div&gt;&lt;div&gt;&amp;nbsp; &amp;nbsp; schedule: &#39;*/1 * * * *&#39;&lt;/div&gt;&lt;div&gt;status:&lt;/div&gt;&lt;div&gt;&amp;nbsp; conditions:&lt;/div&gt;&lt;div&gt;&amp;nbsp; - lastTransitionTime: &quot;2024-04-03T13:00:10Z&quot;&lt;/div&gt;&lt;div&gt;&amp;nbsp; &amp;nbsp; message: Waiting for next scheduled synchronization&lt;/div&gt;&lt;div&gt;&amp;nbsp; &amp;nbsp; reason: WaitingForSchedule&lt;/div&gt;&lt;div&gt;&amp;nbsp; &amp;nbsp; status: &quot;False&quot;&lt;/div&gt;&lt;div&gt;&amp;nbsp; &amp;nbsp; type: Synchronizing&lt;/div&gt;&lt;div&gt;&amp;nbsp; lastSyncDuration: 1m10.106345825s&lt;/div&gt;&lt;div&gt;&amp;nbsp; lastSyncTime: &quot;2024-04-03T13:00:10Z&quot;&lt;/div&gt;&lt;div&gt;&amp;nbsp; latestMoverStatus:&lt;/div&gt;&lt;div&gt;&amp;nbsp; &amp;nbsp; logs: |-&lt;/div&gt;&lt;div&gt;&amp;nbsp; &amp;nbsp; &amp;nbsp; sent 218 bytes&amp;nbsp; received 617 bytes&amp;nbsp; 556.67 bytes/sec&lt;/div&gt;&lt;div&gt;&amp;nbsp; &amp;nbsp; &amp;nbsp; total size is 67.89K&amp;nbsp; speedup is 81.31&lt;/div&gt;&lt;div&gt;&amp;nbsp; &amp;nbsp; &amp;nbsp; sent 75 bytes&amp;nbsp; received 19 bytes&amp;nbsp; 188.00 bytes/sec&lt;/div&gt;&lt;div&gt;&amp;nbsp; &amp;nbsp; &amp;nbsp; total size is 67,895&amp;nbsp; speedup is 722.29&lt;/div&gt;&lt;div&gt;&amp;nbsp; &amp;nbsp; &amp;nbsp; rsync completed in 1s&lt;/div&gt;&lt;div&gt;&amp;nbsp; &amp;nbsp; result: Successful&lt;/div&gt;&lt;div&gt;&amp;nbsp; nextSyncTime: &quot;2024-04-03T13:01:00Z&quot;&lt;/div&gt;&lt;div&gt;&amp;nbsp; rsyncTLS: {}&lt;/div&gt;" style="text;strokeColor=none;fillColor=default;align=left;verticalAlign=middle;spacingLeft=4;spacingRight=4;overflow=hidden;points=[[0,0.5],[1,0.5]];portConstraint=eastwest;rotatable=0;whiteSpace=wrap;html=1;" parent="Rm11WEUQjzfcoIPD6hnw-35" vertex="1">
          <mxGeometry y="30" width="580" height="720" as="geometry" />
        </mxCell>
        <mxCell id="jeuQz1zi4D_dj_DM9fPx-1" value="Readonly SC" style="swimlane;fontStyle=0;childLayout=stackLayout;horizontal=1;startSize=30;horizontalStack=0;resizeParent=1;resizeParentMax=0;resizeLast=0;collapsible=1;marginBottom=0;whiteSpace=wrap;html=1;" parent="1" vertex="1" collapsed="1">
          <mxGeometry x="305" y="917" width="165" height="30" as="geometry">
            <mxRectangle x="305" y="917" width="580" height="350" as="alternateBounds" />
          </mxGeometry>
        </mxCell>
        <mxCell id="jeuQz1zi4D_dj_DM9fPx-2" value="&lt;div&gt;apiVersion: storage.k8s.io/v1&lt;/div&gt;&lt;div&gt;kind: StorageClass&lt;/div&gt;&lt;div&gt;metadata:&lt;/div&gt;&lt;div&gt;&amp;nbsp; creationTimestamp: &quot;2024-04-09T06:46:26Z&quot;&lt;/div&gt;&lt;div&gt;&amp;nbsp; name: ocs-storagecluster-cephfs-vrg&lt;/div&gt;&lt;div&gt;&amp;nbsp; resourceVersion: &quot;16158&quot;&lt;/div&gt;&lt;div&gt;&amp;nbsp; uid: d6614172-7f65-426d-816a-afbaae648a17&lt;/div&gt;&lt;div&gt;parameters:&lt;/div&gt;&lt;div&gt;&amp;nbsp; backingSnapshot: &quot;true&quot;&lt;/div&gt;&lt;div&gt;&amp;nbsp; clusterID: rook-ceph&lt;/div&gt;&lt;div&gt;&amp;nbsp; csi.storage.k8s.io/controller-expand-secret-name: rook-csi-cephfs-provisioner&lt;/div&gt;&lt;div&gt;&amp;nbsp; csi.storage.k8s.io/controller-expand-secret-namespace: rook-ceph&lt;/div&gt;&lt;div&gt;&amp;nbsp; csi.storage.k8s.io/node-stage-secret-name: rook-csi-cephfs-node&lt;/div&gt;&lt;div&gt;&amp;nbsp; csi.storage.k8s.io/node-stage-secret-namespace: rook-ceph&lt;/div&gt;&lt;div&gt;&amp;nbsp; csi.storage.k8s.io/provisioner-secret-name: rook-csi-cephfs-provisioner&lt;/div&gt;&lt;div&gt;&amp;nbsp; csi.storage.k8s.io/provisioner-secret-namespace: rook-ceph&lt;/div&gt;&lt;div&gt;&amp;nbsp; fsName: cephfs&lt;/div&gt;&lt;div&gt;provisioner: rook-ceph.cephfs.csi.ceph.com&lt;/div&gt;&lt;div&gt;reclaimPolicy: Delete&lt;/div&gt;&lt;div&gt;volumeBindingMode: Immediate&lt;/div&gt;" style="text;strokeColor=none;fillColor=default;align=left;verticalAlign=middle;spacingLeft=4;spacingRight=4;overflow=hidden;points=[[0,0.5],[1,0.5]];portConstraint=eastwest;rotatable=0;whiteSpace=wrap;html=1;" parent="jeuQz1zi4D_dj_DM9fPx-1" vertex="1">
          <mxGeometry y="30" width="580" height="320" as="geometry" />
        </mxCell>
        <mxCell id="Rm11WEUQjzfcoIPD6hnw-25" value="VRG in app ns" style="swimlane;fontStyle=0;childLayout=stackLayout;horizontal=1;startSize=30;horizontalStack=0;resizeParent=1;resizeParentMax=0;resizeLast=0;collapsible=1;marginBottom=0;whiteSpace=wrap;html=1;" parent="1" vertex="1" collapsed="1">
          <mxGeometry x="276" y="720" width="210" height="30" as="geometry">
            <mxRectangle x="333.5" y="640" width="580" height="1790" as="alternateBounds" />
          </mxGeometry>
        </mxCell>
        <mxCell id="Rm11WEUQjzfcoIPD6hnw-26" value="&lt;div&gt;apiVersion: ramendr.openshift.io/v1alpha1&lt;/div&gt;&lt;div&gt;kind: VolumeReplicationGroup&lt;/div&gt;&lt;div&gt;metadata:&lt;/div&gt;&lt;div&gt;&amp;nbsp; annotations:&lt;/div&gt;&lt;div&gt;&amp;nbsp; &amp;nbsp; drplacementcontrol.ramendr.openshift.io/destination-cluster: dr1&lt;/div&gt;&lt;div&gt;&amp;nbsp; &amp;nbsp; drplacementcontrol.ramendr.openshift.io/do-not-delete-pvc: &quot;&quot;&lt;/div&gt;&lt;div&gt;&amp;nbsp; &amp;nbsp; drplacementcontrol.ramendr.openshift.io/drpc-uid: bc7853c1-4010-422c-9bf7-e80980cdd97a&lt;/div&gt;&lt;div&gt;&lt;span style=&quot;background-color: initial;&quot;&gt;&amp;nbsp; finalizers:&lt;/span&gt;&lt;br&gt;&lt;/div&gt;&lt;div&gt;&amp;nbsp; - volumereplicationgroups.ramendr.openshift.io/vrg-protection&lt;/div&gt;&lt;div&gt;&lt;span style=&quot;background-color: initial;&quot;&gt;&amp;nbsp; name: deployment-cephfs-drpc&lt;/span&gt;&lt;br&gt;&lt;/div&gt;&lt;div&gt;&amp;nbsp; namespace: deployment-cephfs&lt;/div&gt;&lt;div&gt;&amp;nbsp; ownerReferences:&lt;/div&gt;&lt;div&gt;&amp;nbsp; - apiVersion: work.open-cluster-management.io/v1&lt;/div&gt;&lt;div&gt;&amp;nbsp; &amp;nbsp; kind: AppliedManifestWork&lt;/div&gt;&lt;div&gt;&amp;nbsp; &amp;nbsp; name: 8b4a44398ddb4f2707e665034e4abba63f5a1d7dec9b2f9dce8c9d4cd1fade06-deployment-cephfs-drpc-deployment-cephfs-vrg-mw&lt;/div&gt;&lt;div&gt;&amp;nbsp; &amp;nbsp; uid: c62aa27c-e5b6-492e-ab70-eab567ab7ea6&lt;/div&gt;&lt;div&gt;&lt;span style=&quot;background-color: initial;&quot;&gt;spec:&lt;/span&gt;&lt;br&gt;&lt;/div&gt;&lt;div&gt;&amp;nbsp; async:&lt;/div&gt;&lt;div&gt;&amp;nbsp; &amp;nbsp; replicationClassSelector: {}&lt;/div&gt;&lt;div&gt;&amp;nbsp; &amp;nbsp; schedulingInterval: 1m&lt;/div&gt;&lt;div&gt;&amp;nbsp; &amp;nbsp; volumeSnapshotClassSelector: {}&lt;/div&gt;&lt;div&gt;&amp;nbsp; pvcSelector:&lt;/div&gt;&lt;div&gt;&amp;nbsp; &amp;nbsp; matchLabels:&lt;/div&gt;&lt;div&gt;&amp;nbsp; &amp;nbsp; &amp;nbsp; appname: busybox&lt;/div&gt;&lt;div&gt;&amp;nbsp; replicationState: primary&lt;/div&gt;&lt;div&gt;&amp;nbsp; s3Profiles:&lt;/div&gt;&lt;div&gt;&amp;nbsp; - minio-on-dr1&lt;/div&gt;&lt;div&gt;&amp;nbsp; - minio-on-dr2&lt;/div&gt;&lt;div&gt;&amp;nbsp; volSync: {}&lt;/div&gt;&lt;div&gt;status:&lt;/div&gt;&lt;div&gt;&amp;nbsp; conditions:&lt;/div&gt;&lt;div&gt;&amp;nbsp; - lastTransitionTime: &quot;2024-04-03T03:27:09Z&quot;&lt;/div&gt;&lt;div&gt;&amp;nbsp; &amp;nbsp; message: All VolSync PVCs are ready&lt;/div&gt;&lt;div&gt;&amp;nbsp; &amp;nbsp; observedGeneration: 1&lt;/div&gt;&lt;div&gt;&amp;nbsp; &amp;nbsp; reason: Ready&lt;/div&gt;&lt;div&gt;&amp;nbsp; &amp;nbsp; status: &quot;True&quot;&lt;/div&gt;&lt;div&gt;&amp;nbsp; &amp;nbsp; type: DataReady&lt;/div&gt;&lt;div&gt;&amp;nbsp; - lastTransitionTime: &quot;2024-04-03T03:28:03Z&quot;&lt;/div&gt;&lt;div&gt;&amp;nbsp; &amp;nbsp; message: All VolSync PVCs are protected&lt;/div&gt;&lt;div&gt;&amp;nbsp; &amp;nbsp; observedGeneration: 1&lt;/div&gt;&lt;div&gt;&amp;nbsp; &amp;nbsp; reason: DataProtected&lt;/div&gt;&lt;div&gt;&amp;nbsp; &amp;nbsp; status: &quot;True&quot;&lt;/div&gt;&lt;div&gt;&amp;nbsp; &amp;nbsp; type: DataProtected&lt;/div&gt;&lt;div&gt;&amp;nbsp; - lastTransitionTime: &quot;2024-04-03T03:26:03Z&quot;&lt;/div&gt;&lt;div&gt;&amp;nbsp; &amp;nbsp; message: Nothing to restore&lt;/div&gt;&lt;div&gt;&amp;nbsp; &amp;nbsp; observedGeneration: 1&lt;/div&gt;&lt;div&gt;&amp;nbsp; &amp;nbsp; reason: Restored&lt;/div&gt;&lt;div&gt;&amp;nbsp; &amp;nbsp; status: &quot;True&quot;&lt;/div&gt;&lt;div&gt;&amp;nbsp; &amp;nbsp; type: ClusterDataReady&lt;/div&gt;&lt;div&gt;&amp;nbsp; - lastTransitionTime: &quot;2024-04-03T12:48:45Z&quot;&lt;/div&gt;&lt;div&gt;&amp;nbsp; &amp;nbsp; message: Kube objects protected&lt;/div&gt;&lt;div&gt;&amp;nbsp; &amp;nbsp; observedGeneration: 1&lt;/div&gt;&lt;div&gt;&amp;nbsp; &amp;nbsp; reason: Uploaded&lt;/div&gt;&lt;div&gt;&amp;nbsp; &amp;nbsp; status: &quot;True&quot;&lt;/div&gt;&lt;div&gt;&amp;nbsp; &amp;nbsp; type: ClusterDataProtected&lt;/div&gt;&lt;div&gt;&amp;nbsp; kubeObjectProtection: {}&lt;/div&gt;&lt;div&gt;&amp;nbsp; lastGroupSyncDuration: 1m4.629171366s&lt;/div&gt;&lt;div&gt;&amp;nbsp; lastGroupSyncTime: &quot;2024-04-03T12:43:02Z&quot;&lt;/div&gt;&lt;div&gt;&amp;nbsp; lastUpdateTime: &quot;2024-04-03T12:48:45Z&quot;&lt;/div&gt;&lt;div&gt;&amp;nbsp; observedGeneration: 1&lt;/div&gt;&lt;div&gt;&amp;nbsp; protectedPVCs:&lt;/div&gt;&lt;div&gt;&amp;nbsp; - accessModes:&lt;/div&gt;&lt;div&gt;&amp;nbsp; &amp;nbsp; - ReadWriteOnce&lt;/div&gt;&lt;div&gt;&amp;nbsp; &amp;nbsp; annotations:&lt;/div&gt;&lt;div&gt;&amp;nbsp; &amp;nbsp; &amp;nbsp; apps.open-cluster-management.io/hosting-subscription: deployment-cephfs/subscription&lt;/div&gt;&lt;div&gt;&amp;nbsp; &amp;nbsp; &amp;nbsp; apps.open-cluster-management.io/reconcile-option: merge&lt;/div&gt;&lt;div&gt;&amp;nbsp; &amp;nbsp; conditions:&lt;/div&gt;&lt;div&gt;&amp;nbsp; &amp;nbsp; - lastTransitionTime: &quot;2024-04-03T03:27:09Z&quot;&lt;/div&gt;&lt;div&gt;&amp;nbsp; &amp;nbsp; &amp;nbsp; message: Ready&lt;/div&gt;&lt;div&gt;&amp;nbsp; &amp;nbsp; &amp;nbsp; observedGeneration: 1&lt;/div&gt;&lt;div&gt;&amp;nbsp; &amp;nbsp; &amp;nbsp; reason: SourceInitialized&lt;/div&gt;&lt;div&gt;&amp;nbsp; &amp;nbsp; &amp;nbsp; status: &quot;True&quot;&lt;/div&gt;&lt;div&gt;&amp;nbsp; &amp;nbsp; &amp;nbsp; type: ReplicationSourceSetup&lt;/div&gt;&lt;div&gt;&amp;nbsp; &amp;nbsp; labels:&lt;/div&gt;&lt;div&gt;&amp;nbsp; &amp;nbsp; &amp;nbsp; app: deployment-cephfs&lt;/div&gt;&lt;div&gt;&amp;nbsp; &amp;nbsp; &amp;nbsp; app.kubernetes.io/part-of: deployment-cephfs&lt;/div&gt;&lt;div&gt;&amp;nbsp; &amp;nbsp; &amp;nbsp; appname: busybox&lt;/div&gt;&lt;div&gt;&amp;nbsp; &amp;nbsp; lastSyncDuration: 1m4.629171366s&lt;/div&gt;&lt;div&gt;&amp;nbsp; &amp;nbsp; lastSyncTime: &quot;2024-04-03T12:43:04Z&quot;&lt;/div&gt;&lt;div&gt;&amp;nbsp; &amp;nbsp; name: busybox-another-pvc&lt;/div&gt;&lt;div&gt;&amp;nbsp; &amp;nbsp; namespace: deployment-cephfs&lt;/div&gt;&lt;div&gt;&amp;nbsp; &amp;nbsp; protectedByVolSync: true&lt;/div&gt;&lt;div&gt;&amp;nbsp; &amp;nbsp; replicationID:&lt;/div&gt;&lt;div&gt;&amp;nbsp; &amp;nbsp; &amp;nbsp; id: &quot;&quot;&lt;/div&gt;&lt;div&gt;&amp;nbsp; &amp;nbsp; resources:&lt;/div&gt;&lt;div&gt;&amp;nbsp; &amp;nbsp; &amp;nbsp; requests:&lt;/div&gt;&lt;div&gt;&amp;nbsp; &amp;nbsp; &amp;nbsp; &amp;nbsp; storage: 1Gi&lt;/div&gt;&lt;div&gt;&amp;nbsp; &amp;nbsp; storageClassName: ocs-storagecluster-cephfs&lt;/div&gt;&lt;div&gt;&amp;nbsp; &amp;nbsp; storageID:&lt;/div&gt;&lt;div&gt;&amp;nbsp; &amp;nbsp; &amp;nbsp; id: &quot;&quot;&lt;/div&gt;&lt;div&gt;&amp;nbsp; - accessModes:&lt;/div&gt;&lt;div&gt;&amp;nbsp; &amp;nbsp; - ReadWriteMany&lt;/div&gt;&lt;div&gt;&amp;nbsp; &amp;nbsp; annotations:&lt;/div&gt;&lt;div&gt;&amp;nbsp; &amp;nbsp; &amp;nbsp; apps.open-cluster-management.io/hosting-subscription: deployment-cephfs/subscription&lt;/div&gt;&lt;div&gt;&amp;nbsp; &amp;nbsp; &amp;nbsp; apps.open-cluster-management.io/reconcile-option: merge&lt;/div&gt;&lt;div&gt;&amp;nbsp; &amp;nbsp; conditions:&lt;/div&gt;&lt;div&gt;&amp;nbsp; &amp;nbsp; - lastTransitionTime: &quot;2024-04-03T03:27:09Z&quot;&lt;/div&gt;&lt;div&gt;&amp;nbsp; &amp;nbsp; &amp;nbsp; message: Ready&lt;/div&gt;&lt;div&gt;&amp;nbsp; &amp;nbsp; &amp;nbsp; observedGeneration: 1&lt;/div&gt;&lt;div&gt;&amp;nbsp; &amp;nbsp; &amp;nbsp; reason: SourceInitialized&lt;/div&gt;&lt;div&gt;&amp;nbsp; &amp;nbsp; &amp;nbsp; status: &quot;True&quot;&lt;/div&gt;&lt;div&gt;&amp;nbsp; &amp;nbsp; &amp;nbsp; type: ReplicationSourceSetup&lt;/div&gt;&lt;div&gt;&amp;nbsp; &amp;nbsp; labels:&lt;/div&gt;&lt;div&gt;&amp;nbsp; &amp;nbsp; &amp;nbsp; app: deployment-cephfs&lt;/div&gt;&lt;div&gt;&amp;nbsp; &amp;nbsp; &amp;nbsp; app.kubernetes.io/part-of: deployment-cephfs&lt;/div&gt;&lt;div&gt;&amp;nbsp; &amp;nbsp; &amp;nbsp; appname: busybox&lt;/div&gt;&lt;div&gt;&amp;nbsp; &amp;nbsp; lastSyncDuration: 1m2.473563563s&lt;/div&gt;&lt;div&gt;&amp;nbsp; &amp;nbsp; lastSyncTime: &quot;2024-04-03T12:43:02Z&quot;&lt;/div&gt;&lt;div&gt;&amp;nbsp; &amp;nbsp; name: busybox-pvc&lt;/div&gt;&lt;div&gt;&amp;nbsp; &amp;nbsp; namespace: deployment-cephfs&lt;/div&gt;&lt;div&gt;&amp;nbsp; &amp;nbsp; protectedByVolSync: true&lt;/div&gt;&lt;div&gt;&amp;nbsp; &amp;nbsp; replicationID:&lt;/div&gt;&lt;div&gt;&amp;nbsp; &amp;nbsp; &amp;nbsp; id: &quot;&quot;&lt;/div&gt;&lt;div&gt;&amp;nbsp; &amp;nbsp; resources:&lt;/div&gt;&lt;div&gt;&amp;nbsp; &amp;nbsp; &amp;nbsp; requests:&lt;/div&gt;&lt;div&gt;&amp;nbsp; &amp;nbsp; &amp;nbsp; &amp;nbsp; storage: 1Gi&lt;/div&gt;&lt;div&gt;&amp;nbsp; &amp;nbsp; storageClassName: ocs-storagecluster-cephfs&lt;/div&gt;&lt;div&gt;&amp;nbsp; &amp;nbsp; storageID:&lt;/div&gt;&lt;div&gt;&amp;nbsp; &amp;nbsp; &amp;nbsp; id: &quot;&quot;&lt;/div&gt;&lt;div&gt;&amp;nbsp; state: Primary&lt;/div&gt;" style="text;strokeColor=none;fillColor=default;align=left;verticalAlign=middle;spacingLeft=4;spacingRight=4;overflow=hidden;points=[[0,0.5],[1,0.5]];portConstraint=eastwest;rotatable=0;whiteSpace=wrap;html=1;" parent="Rm11WEUQjzfcoIPD6hnw-25" vertex="1">
          <mxGeometry y="30" width="580" height="1760" as="geometry" />
        </mxCell>
        <mxCell id="Rm11WEUQjzfcoIPD6hnw-120" value="Secondary VRG MW in app ns" style="swimlane;fontStyle=0;childLayout=stackLayout;horizontal=1;startSize=30;horizontalStack=0;resizeParent=1;resizeParentMax=0;resizeLast=0;collapsible=1;marginBottom=0;whiteSpace=wrap;html=1;" parent="1" vertex="1" collapsed="1">
          <mxGeometry x="648.5" y="499" width="187.5" height="30" as="geometry">
            <mxRectangle x="648.5" y="499" width="580" height="1850" as="alternateBounds" />
          </mxGeometry>
        </mxCell>
        <mxCell id="Rm11WEUQjzfcoIPD6hnw-121" value="&lt;div&gt;apiVersion: work.open-cluster-management.io/v1&lt;/div&gt;&lt;div&gt;kind: ManifestWork&lt;/div&gt;&lt;div&gt;metadata:&lt;/div&gt;&lt;div&gt;&amp;nbsp; annotations:&lt;/div&gt;&lt;div&gt;&amp;nbsp; &amp;nbsp; drplacementcontrol.ramendr.openshift.io/drpc-name: deployment-cephfs-drpc&lt;/div&gt;&lt;div&gt;&amp;nbsp; &amp;nbsp; drplacementcontrol.ramendr.openshift.io/drpc-namespace: deployment-cephfs&lt;/div&gt;&lt;div&gt;&amp;nbsp; creationTimestamp: &quot;2024-04-07T07:29:41Z&quot;&lt;/div&gt;&lt;div&gt;&amp;nbsp; finalizers:&lt;/div&gt;&lt;div&gt;&amp;nbsp; - cluster.open-cluster-management.io/manifest-work-cleanup&lt;/div&gt;&lt;div&gt;&amp;nbsp; generation: 2&lt;/div&gt;&lt;div&gt;&amp;nbsp; name: deployment-cephfs-drpc-deployment-cephfs-vrg-mw&lt;/div&gt;&lt;div&gt;&amp;nbsp; namespace: dr2&lt;/div&gt;&lt;div&gt;&amp;nbsp; resourceVersion: &quot;32285&quot;&lt;/div&gt;&lt;div&gt;&amp;nbsp; uid: e507f19a-2fd9-40bf-8ef4-ffd2c5dc4c9d&lt;/div&gt;&lt;div&gt;spec:&lt;/div&gt;&lt;div&gt;&amp;nbsp; workload:&lt;/div&gt;&lt;div&gt;&amp;nbsp; &amp;nbsp; manifests:&lt;/div&gt;&lt;div&gt;&amp;nbsp; &amp;nbsp; - apiVersion: ramendr.openshift.io/v1alpha1&lt;/div&gt;&lt;div&gt;&amp;nbsp; &amp;nbsp; &amp;nbsp; kind: VolumeReplicationGroup&lt;/div&gt;&lt;div&gt;&amp;nbsp; &amp;nbsp; &amp;nbsp; metadata:&lt;/div&gt;&lt;div&gt;&amp;nbsp; &amp;nbsp; &amp;nbsp; &amp;nbsp; annotations:&lt;/div&gt;&lt;div&gt;&amp;nbsp; &amp;nbsp; &amp;nbsp; &amp;nbsp; &amp;nbsp; drplacementcontrol.ramendr.openshift.io/destination-cluster: dr2&lt;/div&gt;&lt;div&gt;&amp;nbsp; &amp;nbsp; &amp;nbsp; &amp;nbsp; &amp;nbsp; drplacementcontrol.ramendr.openshift.io/do-not-delete-pvc: &quot;&quot;&lt;/div&gt;&lt;div&gt;&amp;nbsp; &amp;nbsp; &amp;nbsp; &amp;nbsp; &amp;nbsp; drplacementcontrol.ramendr.openshift.io/drpc-uid: 3e846889-d6a6-4652-9198-0b9da0662790&lt;/div&gt;&lt;div&gt;&amp;nbsp; &amp;nbsp; &amp;nbsp; &amp;nbsp; name: deployment-cephfs-drpc&lt;/div&gt;&lt;div&gt;&amp;nbsp; &amp;nbsp; &amp;nbsp; &amp;nbsp; namespace: deployment-cephfs&lt;/div&gt;&lt;div&gt;&amp;nbsp; &amp;nbsp; &amp;nbsp; spec:&lt;/div&gt;&lt;div&gt;&amp;nbsp; &amp;nbsp; &amp;nbsp; &amp;nbsp; async:&lt;/div&gt;&lt;div&gt;&amp;nbsp; &amp;nbsp; &amp;nbsp; &amp;nbsp; &amp;nbsp; replicationClassSelector: {}&lt;/div&gt;&lt;div&gt;&amp;nbsp; &amp;nbsp; &amp;nbsp; &amp;nbsp; &amp;nbsp; schedulingInterval: 1m&lt;/div&gt;&lt;div&gt;&amp;nbsp; &amp;nbsp; &amp;nbsp; &amp;nbsp; &amp;nbsp; volumeSnapshotClassSelector: {}&lt;/div&gt;&lt;div&gt;&amp;nbsp; &amp;nbsp; &amp;nbsp; &amp;nbsp; pvcSelector:&lt;/div&gt;&lt;div&gt;&amp;nbsp; &amp;nbsp; &amp;nbsp; &amp;nbsp; &amp;nbsp; matchLabels:&lt;/div&gt;&lt;div&gt;&amp;nbsp; &amp;nbsp; &amp;nbsp; &amp;nbsp; &amp;nbsp; &amp;nbsp; appname: busybox&lt;/div&gt;&lt;div&gt;&amp;nbsp; &amp;nbsp; &amp;nbsp; &amp;nbsp; replicationState: secondary&lt;/div&gt;&lt;div&gt;&amp;nbsp; &amp;nbsp; &amp;nbsp; &amp;nbsp; s3Profiles:&lt;/div&gt;&lt;div&gt;&amp;nbsp; &amp;nbsp; &amp;nbsp; &amp;nbsp; - minio-on-dr1&lt;/div&gt;&lt;div&gt;&amp;nbsp; &amp;nbsp; &amp;nbsp; &amp;nbsp; - minio-on-dr2&lt;/div&gt;&lt;div&gt;&amp;nbsp; &amp;nbsp; &amp;nbsp; &amp;nbsp; volSync:&lt;/div&gt;&lt;div&gt;&amp;nbsp; &amp;nbsp; &amp;nbsp; &amp;nbsp; &amp;nbsp; rdSpec:&lt;/div&gt;&lt;div&gt;&amp;nbsp; &amp;nbsp; &amp;nbsp; &amp;nbsp; &amp;nbsp; - protectedPVC:&lt;/div&gt;&lt;div&gt;&amp;nbsp; &amp;nbsp; &amp;nbsp; &amp;nbsp; &amp;nbsp; &amp;nbsp; &amp;nbsp; accessModes:&lt;/div&gt;&lt;div&gt;&amp;nbsp; &amp;nbsp; &amp;nbsp; &amp;nbsp; &amp;nbsp; &amp;nbsp; &amp;nbsp; - ReadWriteOnce&lt;/div&gt;&lt;div&gt;&amp;nbsp; &amp;nbsp; &amp;nbsp; &amp;nbsp; &amp;nbsp; &amp;nbsp; &amp;nbsp; annotations:&lt;/div&gt;&lt;div&gt;&amp;nbsp; &amp;nbsp; &amp;nbsp; &amp;nbsp; &amp;nbsp; &amp;nbsp; &amp;nbsp; &amp;nbsp; apps.open-cluster-management.io/hosting-subscription: deployment-cephfs/subscription&lt;/div&gt;&lt;div&gt;&amp;nbsp; &amp;nbsp; &amp;nbsp; &amp;nbsp; &amp;nbsp; &amp;nbsp; &amp;nbsp; &amp;nbsp; apps.open-cluster-management.io/reconcile-option: merge&lt;/div&gt;&lt;div&gt;&amp;nbsp; &amp;nbsp; &amp;nbsp; &amp;nbsp; &amp;nbsp; &amp;nbsp; &amp;nbsp; labels:&lt;/div&gt;&lt;div&gt;&amp;nbsp; &amp;nbsp; &amp;nbsp; &amp;nbsp; &amp;nbsp; &amp;nbsp; &amp;nbsp; &amp;nbsp; app: deployment-cephfs&lt;/div&gt;&lt;div&gt;&amp;nbsp; &amp;nbsp; &amp;nbsp; &amp;nbsp; &amp;nbsp; &amp;nbsp; &amp;nbsp; &amp;nbsp; app.kubernetes.io/part-of: deployment-cephfs&lt;/div&gt;&lt;div&gt;&amp;nbsp; &amp;nbsp; &amp;nbsp; &amp;nbsp; &amp;nbsp; &amp;nbsp; &amp;nbsp; &amp;nbsp; appname: busybox&lt;/div&gt;&lt;div&gt;&amp;nbsp; &amp;nbsp; &amp;nbsp; &amp;nbsp; &amp;nbsp; &amp;nbsp; &amp;nbsp; name: busybox-another-pvc&lt;/div&gt;&lt;div&gt;&amp;nbsp; &amp;nbsp; &amp;nbsp; &amp;nbsp; &amp;nbsp; &amp;nbsp; &amp;nbsp; namespace: deployment-cephfs&lt;/div&gt;&lt;div&gt;&amp;nbsp; &amp;nbsp; &amp;nbsp; &amp;nbsp; &amp;nbsp; &amp;nbsp; &amp;nbsp; protectedByVolSync: true&lt;/div&gt;&lt;div&gt;&amp;nbsp; &amp;nbsp; &amp;nbsp; &amp;nbsp; &amp;nbsp; &amp;nbsp; &amp;nbsp; replicationID:&lt;/div&gt;&lt;div&gt;&amp;nbsp; &amp;nbsp; &amp;nbsp; &amp;nbsp; &amp;nbsp; &amp;nbsp; &amp;nbsp; &amp;nbsp; id: &quot;&quot;&lt;/div&gt;&lt;div&gt;&amp;nbsp; &amp;nbsp; &amp;nbsp; &amp;nbsp; &amp;nbsp; &amp;nbsp; &amp;nbsp; resources:&lt;/div&gt;&lt;div&gt;&amp;nbsp; &amp;nbsp; &amp;nbsp; &amp;nbsp; &amp;nbsp; &amp;nbsp; &amp;nbsp; &amp;nbsp; requests:&lt;/div&gt;&lt;div&gt;&amp;nbsp; &amp;nbsp; &amp;nbsp; &amp;nbsp; &amp;nbsp; &amp;nbsp; &amp;nbsp; &amp;nbsp; &amp;nbsp; storage: 1Gi&lt;/div&gt;&lt;div&gt;&amp;nbsp; &amp;nbsp; &amp;nbsp; &amp;nbsp; &amp;nbsp; &amp;nbsp; &amp;nbsp; storageClassName: ocs-storagecluster-cephfs&lt;/div&gt;&lt;div&gt;&amp;nbsp; &amp;nbsp; &amp;nbsp; &amp;nbsp; &amp;nbsp; &amp;nbsp; &amp;nbsp; storageID:&lt;/div&gt;&lt;div&gt;&amp;nbsp; &amp;nbsp; &amp;nbsp; &amp;nbsp; &amp;nbsp; &amp;nbsp; &amp;nbsp; &amp;nbsp; id: &quot;&quot;&lt;/div&gt;&lt;div&gt;&amp;nbsp; &amp;nbsp; &amp;nbsp; &amp;nbsp; &amp;nbsp; - protectedPVC:&lt;/div&gt;&lt;div&gt;&amp;nbsp; &amp;nbsp; &amp;nbsp; &amp;nbsp; &amp;nbsp; &amp;nbsp; &amp;nbsp; accessModes:&lt;/div&gt;&lt;div&gt;&amp;nbsp; &amp;nbsp; &amp;nbsp; &amp;nbsp; &amp;nbsp; &amp;nbsp; &amp;nbsp; - ReadWriteMany&lt;/div&gt;&lt;div&gt;&amp;nbsp; &amp;nbsp; &amp;nbsp; &amp;nbsp; &amp;nbsp; &amp;nbsp; &amp;nbsp; annotations:&lt;/div&gt;&lt;div&gt;&amp;nbsp; &amp;nbsp; &amp;nbsp; &amp;nbsp; &amp;nbsp; &amp;nbsp; &amp;nbsp; &amp;nbsp; apps.open-cluster-management.io/hosting-subscription: deployment-cephfs/subscription&lt;/div&gt;&lt;div&gt;&amp;nbsp; &amp;nbsp; &amp;nbsp; &amp;nbsp; &amp;nbsp; &amp;nbsp; &amp;nbsp; &amp;nbsp; apps.open-cluster-management.io/reconcile-option: merge&lt;/div&gt;&lt;div&gt;&amp;nbsp; &amp;nbsp; &amp;nbsp; &amp;nbsp; &amp;nbsp; &amp;nbsp; &amp;nbsp; labels:&lt;/div&gt;&lt;div&gt;&amp;nbsp; &amp;nbsp; &amp;nbsp; &amp;nbsp; &amp;nbsp; &amp;nbsp; &amp;nbsp; &amp;nbsp; app: deployment-cephfs&lt;/div&gt;&lt;div&gt;&amp;nbsp; &amp;nbsp; &amp;nbsp; &amp;nbsp; &amp;nbsp; &amp;nbsp; &amp;nbsp; &amp;nbsp; app.kubernetes.io/part-of: deployment-cephfs&lt;/div&gt;&lt;div&gt;&amp;nbsp; &amp;nbsp; &amp;nbsp; &amp;nbsp; &amp;nbsp; &amp;nbsp; &amp;nbsp; &amp;nbsp; appname: busybox&lt;/div&gt;&lt;div&gt;&amp;nbsp; &amp;nbsp; &amp;nbsp; &amp;nbsp; &amp;nbsp; &amp;nbsp; &amp;nbsp; name: busybox-pvc&lt;/div&gt;&lt;div&gt;&amp;nbsp; &amp;nbsp; &amp;nbsp; &amp;nbsp; &amp;nbsp; &amp;nbsp; &amp;nbsp; namespace: deployment-cephfs&lt;/div&gt;&lt;div&gt;&amp;nbsp; &amp;nbsp; &amp;nbsp; &amp;nbsp; &amp;nbsp; &amp;nbsp; &amp;nbsp; protectedByVolSync: true&lt;/div&gt;&lt;div&gt;&amp;nbsp; &amp;nbsp; &amp;nbsp; &amp;nbsp; &amp;nbsp; &amp;nbsp; &amp;nbsp; replicationID:&lt;/div&gt;&lt;div&gt;&amp;nbsp; &amp;nbsp; &amp;nbsp; &amp;nbsp; &amp;nbsp; &amp;nbsp; &amp;nbsp; &amp;nbsp; id: &quot;&quot;&lt;/div&gt;&lt;div&gt;&amp;nbsp; &amp;nbsp; &amp;nbsp; &amp;nbsp; &amp;nbsp; &amp;nbsp; &amp;nbsp; resources:&lt;/div&gt;&lt;div&gt;&amp;nbsp; &amp;nbsp; &amp;nbsp; &amp;nbsp; &amp;nbsp; &amp;nbsp; &amp;nbsp; &amp;nbsp; requests:&lt;/div&gt;&lt;div&gt;&amp;nbsp; &amp;nbsp; &amp;nbsp; &amp;nbsp; &amp;nbsp; &amp;nbsp; &amp;nbsp; &amp;nbsp; &amp;nbsp; storage: 1Gi&lt;/div&gt;&lt;div&gt;&amp;nbsp; &amp;nbsp; &amp;nbsp; &amp;nbsp; &amp;nbsp; &amp;nbsp; &amp;nbsp; storageClassName: ocs-storagecluster-cephfs&lt;/div&gt;&lt;div&gt;&amp;nbsp; &amp;nbsp; &amp;nbsp; &amp;nbsp; &amp;nbsp; &amp;nbsp; &amp;nbsp; storageID:&lt;/div&gt;&lt;div&gt;&amp;nbsp; &amp;nbsp; &amp;nbsp; &amp;nbsp; &amp;nbsp; &amp;nbsp; &amp;nbsp; &amp;nbsp; id: &quot;&quot;&lt;/div&gt;&lt;div&gt;&amp;nbsp; &amp;nbsp; &amp;nbsp; status:&lt;/div&gt;&lt;div&gt;&amp;nbsp; &amp;nbsp; &amp;nbsp; &amp;nbsp; kubeObjectProtection: {}&lt;/div&gt;&lt;div&gt;&amp;nbsp; &amp;nbsp; &amp;nbsp; &amp;nbsp; lastUpdateTime: null&lt;/div&gt;&lt;div&gt;status:&lt;/div&gt;&lt;div&gt;&amp;nbsp; conditions:&lt;/div&gt;&lt;div&gt;&amp;nbsp; - lastTransitionTime: &quot;2024-04-07T07:29:42Z&quot;&lt;/div&gt;&lt;div&gt;&amp;nbsp; &amp;nbsp; message: Apply manifest work complete&lt;/div&gt;&lt;div&gt;&amp;nbsp; &amp;nbsp; observedGeneration: 2&lt;/div&gt;&lt;div&gt;&amp;nbsp; &amp;nbsp; reason: AppliedManifestWorkComplete&lt;/div&gt;&lt;div&gt;&amp;nbsp; &amp;nbsp; status: &quot;True&quot;&lt;/div&gt;&lt;div&gt;&amp;nbsp; &amp;nbsp; type: Applied&lt;/div&gt;&lt;div&gt;&amp;nbsp; - lastTransitionTime: &quot;2024-04-07T07:29:42Z&quot;&lt;/div&gt;&lt;div&gt;&amp;nbsp; &amp;nbsp; message: All resources are available&lt;/div&gt;&lt;div&gt;&amp;nbsp; &amp;nbsp; observedGeneration: 2&lt;/div&gt;&lt;div&gt;&amp;nbsp; &amp;nbsp; reason: ResourcesAvailable&lt;/div&gt;&lt;div&gt;&amp;nbsp; &amp;nbsp; status: &quot;True&quot;&lt;/div&gt;&lt;div&gt;&amp;nbsp; &amp;nbsp; type: Available&lt;/div&gt;&lt;div&gt;&amp;nbsp; resourceStatus:&lt;/div&gt;&lt;div&gt;&amp;nbsp; &amp;nbsp; manifests:&lt;/div&gt;&lt;div&gt;&amp;nbsp; &amp;nbsp; - conditions:&lt;/div&gt;&lt;div&gt;&amp;nbsp; &amp;nbsp; &amp;nbsp; - lastTransitionTime: &quot;2024-04-07T07:29:42Z&quot;&lt;/div&gt;&lt;div&gt;&amp;nbsp; &amp;nbsp; &amp;nbsp; &amp;nbsp; message: Apply manifest complete&lt;/div&gt;&lt;div&gt;&amp;nbsp; &amp;nbsp; &amp;nbsp; &amp;nbsp; reason: AppliedManifestComplete&lt;/div&gt;&lt;div&gt;&amp;nbsp; &amp;nbsp; &amp;nbsp; &amp;nbsp; status: &quot;True&quot;&lt;/div&gt;&lt;div&gt;&amp;nbsp; &amp;nbsp; &amp;nbsp; &amp;nbsp; type: Applied&lt;/div&gt;&lt;div&gt;&amp;nbsp; &amp;nbsp; &amp;nbsp; - lastTransitionTime: &quot;2024-04-07T07:29:42Z&quot;&lt;/div&gt;&lt;div&gt;&amp;nbsp; &amp;nbsp; &amp;nbsp; &amp;nbsp; message: Resource is available&lt;/div&gt;&lt;div&gt;&amp;nbsp; &amp;nbsp; &amp;nbsp; &amp;nbsp; reason: ResourceAvailable&lt;/div&gt;&lt;div&gt;&amp;nbsp; &amp;nbsp; &amp;nbsp; &amp;nbsp; status: &quot;True&quot;&lt;/div&gt;&lt;div&gt;&amp;nbsp; &amp;nbsp; &amp;nbsp; &amp;nbsp; type: Available&lt;/div&gt;&lt;div&gt;&amp;nbsp; &amp;nbsp; &amp;nbsp; - lastTransitionTime: &quot;2024-04-07T07:29:42Z&quot;&lt;/div&gt;&lt;div&gt;&amp;nbsp; &amp;nbsp; &amp;nbsp; &amp;nbsp; message: &quot;&quot;&lt;/div&gt;&lt;div&gt;&amp;nbsp; &amp;nbsp; &amp;nbsp; &amp;nbsp; reason: NoStatusFeedbackSynced&lt;/div&gt;&lt;div&gt;&amp;nbsp; &amp;nbsp; &amp;nbsp; &amp;nbsp; status: &quot;True&quot;&lt;/div&gt;&lt;div&gt;&amp;nbsp; &amp;nbsp; &amp;nbsp; &amp;nbsp; type: StatusFeedbackSynced&lt;/div&gt;&lt;div&gt;&amp;nbsp; &amp;nbsp; &amp;nbsp; resourceMeta:&lt;/div&gt;&lt;div&gt;&amp;nbsp; &amp;nbsp; &amp;nbsp; &amp;nbsp; group: ramendr.openshift.io&lt;/div&gt;&lt;div&gt;&amp;nbsp; &amp;nbsp; &amp;nbsp; &amp;nbsp; kind: VolumeReplicationGroup&lt;/div&gt;&lt;div&gt;&amp;nbsp; &amp;nbsp; &amp;nbsp; &amp;nbsp; name: deployment-cephfs-drpc&lt;/div&gt;&lt;div&gt;&amp;nbsp; &amp;nbsp; &amp;nbsp; &amp;nbsp; namespace: deployment-cephfs&lt;/div&gt;&lt;div&gt;&amp;nbsp; &amp;nbsp; &amp;nbsp; &amp;nbsp; ordinal: 0&lt;/div&gt;&lt;div&gt;&amp;nbsp; &amp;nbsp; &amp;nbsp; &amp;nbsp; resource: volumereplicationgroups&lt;/div&gt;&lt;div&gt;&amp;nbsp; &amp;nbsp; &amp;nbsp; &amp;nbsp; version: v1alpha1&lt;/div&gt;&lt;div&gt;&amp;nbsp; &amp;nbsp; &amp;nbsp; statusFeedback: {}&lt;/div&gt;" style="text;strokeColor=none;fillColor=default;align=left;verticalAlign=middle;spacingLeft=4;spacingRight=4;overflow=hidden;points=[[0,0.5],[1,0.5]];portConstraint=eastwest;rotatable=0;whiteSpace=wrap;html=1;" parent="Rm11WEUQjzfcoIPD6hnw-120" vertex="1">
          <mxGeometry y="30" width="580" height="1820" as="geometry" />
        </mxCell>
        <mxCell id="Rm11WEUQjzfcoIPD6hnw-30" value="Primary VRG MW in app ns" style="swimlane;fontStyle=0;childLayout=stackLayout;horizontal=1;startSize=30;horizontalStack=0;resizeParent=1;resizeParentMax=0;resizeLast=0;collapsible=1;marginBottom=0;whiteSpace=wrap;html=1;" parent="1" vertex="1" collapsed="1">
          <mxGeometry x="290" y="500" width="182" height="30" as="geometry">
            <mxRectangle x="290" y="500" width="580" height="1230" as="alternateBounds" />
          </mxGeometry>
        </mxCell>
        <mxCell id="Rm11WEUQjzfcoIPD6hnw-31" value="&lt;div&gt;apiVersion: work.open-cluster-management.io/v1&lt;/div&gt;&lt;div&gt;kind: ManifestWork&lt;/div&gt;&lt;div&gt;metadata:&lt;/div&gt;&lt;div&gt;&amp;nbsp; annotations:&lt;/div&gt;&lt;div&gt;&amp;nbsp; &amp;nbsp; drplacementcontrol.ramendr.openshift.io/drpc-name: deployment-cephfs-drpc&lt;/div&gt;&lt;div&gt;&amp;nbsp; &amp;nbsp; drplacementcontrol.ramendr.openshift.io/drpc-namespace: deployment-cephfs&lt;/div&gt;&lt;div&gt;&amp;nbsp; creationTimestamp: &quot;2024-04-03T03:26:01Z&quot;&lt;/div&gt;&lt;div&gt;&amp;nbsp; finalizers:&lt;/div&gt;&lt;div&gt;&amp;nbsp; - cluster.open-cluster-management.io/manifest-work-cleanup&lt;/div&gt;&lt;div&gt;&amp;nbsp; generation: 1&lt;/div&gt;&lt;div&gt;&amp;nbsp; name: deployment-cephfs-drpc-deployment-cephfs-vrg-mw&lt;/div&gt;&lt;div&gt;&amp;nbsp; namespace: dr1&lt;/div&gt;&lt;div&gt;&amp;nbsp; resourceVersion: &quot;16516&quot;&lt;/div&gt;&lt;div&gt;&amp;nbsp; uid: a860b2a4-e303-4ea5-9014-6f0726f6bb00&lt;/div&gt;&lt;div&gt;spec:&lt;/div&gt;&lt;div&gt;&amp;nbsp; workload:&lt;/div&gt;&lt;div&gt;&amp;nbsp; &amp;nbsp; manifests:&lt;/div&gt;&lt;div&gt;&amp;nbsp; &amp;nbsp; - apiVersion: ramendr.openshift.io/v1alpha1&lt;/div&gt;&lt;div&gt;&amp;nbsp; &amp;nbsp; &amp;nbsp; kind: VolumeReplicationGroup&lt;/div&gt;&lt;div&gt;&amp;nbsp; &amp;nbsp; &amp;nbsp; metadata:&lt;/div&gt;&lt;div&gt;&amp;nbsp; &amp;nbsp; &amp;nbsp; &amp;nbsp; annotations:&lt;/div&gt;&lt;div&gt;&amp;nbsp; &amp;nbsp; &amp;nbsp; &amp;nbsp; &amp;nbsp; drplacementcontrol.ramendr.openshift.io/destination-cluster: dr1&lt;/div&gt;&lt;div&gt;&amp;nbsp; &amp;nbsp; &amp;nbsp; &amp;nbsp; &amp;nbsp; drplacementcontrol.ramendr.openshift.io/do-not-delete-pvc: &quot;&quot;&lt;/div&gt;&lt;div&gt;&amp;nbsp; &amp;nbsp; &amp;nbsp; &amp;nbsp; &amp;nbsp; drplacementcontrol.ramendr.openshift.io/drpc-uid: bc7853c1-4010-422c-9bf7-e80980cdd97a&lt;/div&gt;&lt;div&gt;&amp;nbsp; &amp;nbsp; &amp;nbsp; &amp;nbsp; name: deployment-cephfs-drpc&lt;/div&gt;&lt;div&gt;&amp;nbsp; &amp;nbsp; &amp;nbsp; &amp;nbsp; namespace: deployment-cephfs&lt;/div&gt;&lt;div&gt;&amp;nbsp; &amp;nbsp; &amp;nbsp; spec:&lt;/div&gt;&lt;div&gt;&amp;nbsp; &amp;nbsp; &amp;nbsp; &amp;nbsp; async:&lt;/div&gt;&lt;div&gt;&amp;nbsp; &amp;nbsp; &amp;nbsp; &amp;nbsp; &amp;nbsp; replicationClassSelector: {}&lt;/div&gt;&lt;div&gt;&amp;nbsp; &amp;nbsp; &amp;nbsp; &amp;nbsp; &amp;nbsp; schedulingInterval: 1m&lt;/div&gt;&lt;div&gt;&amp;nbsp; &amp;nbsp; &amp;nbsp; &amp;nbsp; &amp;nbsp; volumeSnapshotClassSelector: {}&lt;/div&gt;&lt;div&gt;&amp;nbsp; &amp;nbsp; &amp;nbsp; &amp;nbsp; pvcSelector:&lt;/div&gt;&lt;div&gt;&amp;nbsp; &amp;nbsp; &amp;nbsp; &amp;nbsp; &amp;nbsp; matchLabels:&lt;/div&gt;&lt;div&gt;&amp;nbsp; &amp;nbsp; &amp;nbsp; &amp;nbsp; &amp;nbsp; &amp;nbsp; appname: busybox&lt;/div&gt;&lt;div&gt;&amp;nbsp; &amp;nbsp; &amp;nbsp; &amp;nbsp; replicationState: primary&lt;/div&gt;&lt;div&gt;&amp;nbsp; &amp;nbsp; &amp;nbsp; &amp;nbsp; s3Profiles:&lt;/div&gt;&lt;div&gt;&amp;nbsp; &amp;nbsp; &amp;nbsp; &amp;nbsp; - minio-on-dr1&lt;/div&gt;&lt;div&gt;&amp;nbsp; &amp;nbsp; &amp;nbsp; &amp;nbsp; - minio-on-dr2&lt;/div&gt;&lt;div&gt;&amp;nbsp; &amp;nbsp; &amp;nbsp; &amp;nbsp; volSync: {}&lt;/div&gt;&lt;div&gt;&amp;nbsp; &amp;nbsp; &amp;nbsp; status:&lt;/div&gt;&lt;div&gt;&amp;nbsp; &amp;nbsp; &amp;nbsp; &amp;nbsp; kubeObjectProtection: {}&lt;/div&gt;&lt;div&gt;&amp;nbsp; &amp;nbsp; &amp;nbsp; &amp;nbsp; lastUpdateTime: null&lt;/div&gt;&lt;div&gt;status:&lt;/div&gt;&lt;div&gt;&amp;nbsp; conditions:&lt;/div&gt;&lt;div&gt;&amp;nbsp; - lastTransitionTime: &quot;2024-04-03T03:26:02Z&quot;&lt;/div&gt;&lt;div&gt;&amp;nbsp; &amp;nbsp; message: Apply manifest work complete&lt;/div&gt;&lt;div&gt;&amp;nbsp; &amp;nbsp; observedGeneration: 1&lt;/div&gt;&lt;div&gt;&amp;nbsp; &amp;nbsp; reason: AppliedManifestWorkComplete&lt;/div&gt;&lt;div&gt;&amp;nbsp; &amp;nbsp; status: &quot;True&quot;&lt;/div&gt;&lt;div&gt;&amp;nbsp; &amp;nbsp; type: Applied&lt;/div&gt;&lt;div&gt;&amp;nbsp; - lastTransitionTime: &quot;2024-04-03T03:26:02Z&quot;&lt;/div&gt;&lt;div&gt;&amp;nbsp; &amp;nbsp; message: All resources are available&lt;/div&gt;&lt;div&gt;&amp;nbsp; &amp;nbsp; observedGeneration: 1&lt;/div&gt;&lt;div&gt;&amp;nbsp; &amp;nbsp; reason: ResourcesAvailable&lt;/div&gt;&lt;div&gt;&amp;nbsp; &amp;nbsp; status: &quot;True&quot;&lt;/div&gt;&lt;div&gt;&amp;nbsp; &amp;nbsp; type: Available&lt;/div&gt;&lt;div&gt;&amp;nbsp; resourceStatus:&lt;/div&gt;&lt;div&gt;&amp;nbsp; &amp;nbsp; manifests:&lt;/div&gt;&lt;div&gt;&amp;nbsp; &amp;nbsp; - conditions:&lt;/div&gt;&lt;div&gt;&amp;nbsp; &amp;nbsp; &amp;nbsp; - lastTransitionTime: &quot;2024-04-03T03:26:02Z&quot;&lt;/div&gt;&lt;div&gt;&amp;nbsp; &amp;nbsp; &amp;nbsp; &amp;nbsp; message: Apply manifest complete&lt;/div&gt;&lt;div&gt;&amp;nbsp; &amp;nbsp; &amp;nbsp; &amp;nbsp; reason: AppliedManifestComplete&lt;/div&gt;&lt;div&gt;&amp;nbsp; &amp;nbsp; &amp;nbsp; &amp;nbsp; status: &quot;True&quot;&lt;/div&gt;&lt;div&gt;&amp;nbsp; &amp;nbsp; &amp;nbsp; &amp;nbsp; type: Applied&lt;/div&gt;&lt;div&gt;&amp;nbsp; &amp;nbsp; &amp;nbsp; - lastTransitionTime: &quot;2024-04-03T03:26:02Z&quot;&lt;/div&gt;&lt;div&gt;&amp;nbsp; &amp;nbsp; &amp;nbsp; &amp;nbsp; message: Resource is available&lt;/div&gt;&lt;div&gt;&amp;nbsp; &amp;nbsp; &amp;nbsp; &amp;nbsp; reason: ResourceAvailable&lt;/div&gt;&lt;div&gt;&amp;nbsp; &amp;nbsp; &amp;nbsp; &amp;nbsp; status: &quot;True&quot;&lt;/div&gt;&lt;div&gt;&amp;nbsp; &amp;nbsp; &amp;nbsp; &amp;nbsp; type: Available&lt;/div&gt;&lt;div&gt;&amp;nbsp; &amp;nbsp; &amp;nbsp; - lastTransitionTime: &quot;2024-04-03T03:26:02Z&quot;&lt;/div&gt;&lt;div&gt;&amp;nbsp; &amp;nbsp; &amp;nbsp; &amp;nbsp; message: &quot;&quot;&lt;/div&gt;&lt;div&gt;&amp;nbsp; &amp;nbsp; &amp;nbsp; &amp;nbsp; reason: NoStatusFeedbackSynced&lt;/div&gt;&lt;div&gt;&amp;nbsp; &amp;nbsp; &amp;nbsp; &amp;nbsp; status: &quot;True&quot;&lt;/div&gt;&lt;div&gt;&amp;nbsp; &amp;nbsp; &amp;nbsp; &amp;nbsp; type: StatusFeedbackSynced&lt;/div&gt;&lt;div&gt;&amp;nbsp; &amp;nbsp; &amp;nbsp; resourceMeta:&lt;/div&gt;&lt;div&gt;&amp;nbsp; &amp;nbsp; &amp;nbsp; &amp;nbsp; group: ramendr.openshift.io&lt;/div&gt;&lt;div&gt;&amp;nbsp; &amp;nbsp; &amp;nbsp; &amp;nbsp; kind: VolumeReplicationGroup&lt;/div&gt;&lt;div&gt;&amp;nbsp; &amp;nbsp; &amp;nbsp; &amp;nbsp; name: deployment-cephfs-drpc&lt;/div&gt;&lt;div&gt;&amp;nbsp; &amp;nbsp; &amp;nbsp; &amp;nbsp; namespace: deployment-cephfs&lt;/div&gt;&lt;div&gt;&amp;nbsp; &amp;nbsp; &amp;nbsp; &amp;nbsp; ordinal: 0&lt;/div&gt;&lt;div&gt;&amp;nbsp; &amp;nbsp; &amp;nbsp; &amp;nbsp; resource: volumereplicationgroups&lt;/div&gt;&lt;div&gt;&amp;nbsp; &amp;nbsp; &amp;nbsp; &amp;nbsp; version: v1alpha1&lt;/div&gt;&lt;div&gt;&amp;nbsp; &amp;nbsp; &amp;nbsp; statusFeedback: {}&lt;/div&gt;" style="text;strokeColor=none;fillColor=default;align=left;verticalAlign=middle;spacingLeft=4;spacingRight=4;overflow=hidden;points=[[0,0.5],[1,0.5]];portConstraint=eastwest;rotatable=0;whiteSpace=wrap;html=1;" parent="Rm11WEUQjzfcoIPD6hnw-30" vertex="1">
          <mxGeometry y="30" width="580" height="1200" as="geometry" />
        </mxCell>
        <mxCell id="Rm11WEUQjzfcoIPD6hnw-33" value="VRG MCV in app ns" style="swimlane;fontStyle=0;childLayout=stackLayout;horizontal=1;startSize=30;horizontalStack=0;resizeParent=1;resizeParentMax=0;resizeLast=0;collapsible=1;marginBottom=0;whiteSpace=wrap;html=1;" parent="1" vertex="1" collapsed="1">
          <mxGeometry x="97.5" y="500" width="165" height="30" as="geometry">
            <mxRectangle x="90" y="535" width="580" height="3050" as="alternateBounds" />
          </mxGeometry>
        </mxCell>
        <mxCell id="Rm11WEUQjzfcoIPD6hnw-34" value="&lt;div&gt;apiVersion: view.open-cluster-management.io/v1beta1&lt;/div&gt;&lt;div&gt;kind: ManagedClusterView&lt;/div&gt;&lt;div&gt;metadata:&lt;/div&gt;&lt;div&gt;&amp;nbsp; annotations:&lt;/div&gt;&lt;div&gt;&amp;nbsp; &amp;nbsp; drplacementcontrol.ramendr.openshift.io/drpc-name: deployment-cephfs-drpc&lt;/div&gt;&lt;div&gt;&amp;nbsp; &amp;nbsp; drplacementcontrol.ramendr.openshift.io/drpc-namespace: deployment-cephfs&lt;/div&gt;&lt;div&gt;&amp;nbsp; creationTimestamp: &quot;2024-04-03T03:18:43Z&quot;&lt;/div&gt;&lt;div&gt;&amp;nbsp; generation: 1&lt;/div&gt;&lt;div&gt;&amp;nbsp; name: deployment-cephfs-drpc-deployment-cephfs-vrg-mcv&lt;/div&gt;&lt;div&gt;&amp;nbsp; namespace: dr1&lt;/div&gt;&lt;div&gt;&amp;nbsp; resourceVersion: &quot;112840&quot;&lt;/div&gt;&lt;div&gt;&amp;nbsp; uid: a27b5e7d-fdb0-4992-bda6-3a446e83cc88&lt;/div&gt;&lt;div&gt;spec:&lt;/div&gt;&lt;div&gt;&amp;nbsp; scope:&lt;/div&gt;&lt;div&gt;&amp;nbsp; &amp;nbsp; apiGroup: ramendr.openshift.io&lt;/div&gt;&lt;div&gt;&amp;nbsp; &amp;nbsp; kind: VolumeReplicationGroup&lt;/div&gt;&lt;div&gt;&amp;nbsp; &amp;nbsp; name: deployment-cephfs-drpc&lt;/div&gt;&lt;div&gt;&amp;nbsp; &amp;nbsp; namespace: deployment-cephfs&lt;/div&gt;&lt;div&gt;&amp;nbsp; &amp;nbsp; version: v1alpha1&lt;/div&gt;&lt;div&gt;status:&lt;/div&gt;&lt;div&gt;&amp;nbsp; conditions:&lt;/div&gt;&lt;div&gt;&amp;nbsp; - lastTransitionTime: &quot;2024-04-03T03:26:14Z&quot;&lt;/div&gt;&lt;div&gt;&amp;nbsp; &amp;nbsp; message: Watching resources successfully&lt;/div&gt;&lt;div&gt;&amp;nbsp; &amp;nbsp; reason: GetResourceProcessing&lt;/div&gt;&lt;div&gt;&amp;nbsp; &amp;nbsp; status: &quot;True&quot;&lt;/div&gt;&lt;div&gt;&amp;nbsp; &amp;nbsp; type: Processing&lt;/div&gt;&lt;div&gt;&amp;nbsp; result:&lt;/div&gt;&lt;div&gt;&amp;nbsp; &amp;nbsp; apiVersion: ramendr.openshift.io/v1alpha1&lt;/div&gt;&lt;div&gt;&amp;nbsp; &amp;nbsp; kind: VolumeReplicationGroup&lt;/div&gt;&lt;div&gt;&amp;nbsp; &amp;nbsp; metadata:&lt;/div&gt;&lt;div&gt;&amp;nbsp; &amp;nbsp; &amp;nbsp; annotations:&lt;/div&gt;&lt;div&gt;&amp;nbsp; &amp;nbsp; &amp;nbsp; &amp;nbsp; drplacementcontrol.ramendr.openshift.io/destination-cluster: dr1&lt;/div&gt;&lt;div&gt;&amp;nbsp; &amp;nbsp; &amp;nbsp; &amp;nbsp; drplacementcontrol.ramendr.openshift.io/do-not-delete-pvc: &quot;&quot;&lt;/div&gt;&lt;div&gt;&amp;nbsp; &amp;nbsp; &amp;nbsp; &amp;nbsp; drplacementcontrol.ramendr.openshift.io/drpc-uid: bc7853c1-4010-422c-9bf7-e80980cdd97a&lt;/div&gt;&lt;div&gt;&amp;nbsp; &amp;nbsp; &amp;nbsp; creationTimestamp: &quot;2024-04-03T03:26:02Z&quot;&lt;/div&gt;&lt;div&gt;&amp;nbsp; &amp;nbsp; &amp;nbsp; finalizers:&lt;/div&gt;&lt;div&gt;&amp;nbsp; &amp;nbsp; &amp;nbsp; - volumereplicationgroups.ramendr.openshift.io/vrg-protection&lt;/div&gt;&lt;div&gt;&amp;nbsp; &amp;nbsp; &amp;nbsp; generation: 1&lt;/div&gt;&lt;div&gt;&amp;nbsp; &amp;nbsp; &amp;nbsp; managedFields:&lt;/div&gt;&lt;div&gt;&amp;nbsp; &amp;nbsp; &amp;nbsp; - apiVersion: ramendr.openshift.io/v1alpha1&lt;/div&gt;&lt;div&gt;&amp;nbsp; &amp;nbsp; &amp;nbsp; &amp;nbsp; fieldsType: FieldsV1&lt;/div&gt;&lt;div&gt;&amp;nbsp; &amp;nbsp; &amp;nbsp; &amp;nbsp; fieldsV1:&lt;/div&gt;&lt;div&gt;&amp;nbsp; &amp;nbsp; &amp;nbsp; &amp;nbsp; &amp;nbsp; f:metadata:&lt;/div&gt;&lt;div&gt;&amp;nbsp; &amp;nbsp; &amp;nbsp; &amp;nbsp; &amp;nbsp; &amp;nbsp; f:finalizers:&lt;/div&gt;&lt;div&gt;&amp;nbsp; &amp;nbsp; &amp;nbsp; &amp;nbsp; &amp;nbsp; &amp;nbsp; &amp;nbsp; .: {}&lt;/div&gt;&lt;div&gt;&amp;nbsp; &amp;nbsp; &amp;nbsp; &amp;nbsp; &amp;nbsp; &amp;nbsp; &amp;nbsp; v:&quot;volumereplicationgroups.ramendr.openshift.io/vrg-protection&quot;: {}&lt;/div&gt;&lt;div&gt;&amp;nbsp; &amp;nbsp; &amp;nbsp; &amp;nbsp; manager: manager&lt;/div&gt;&lt;div&gt;&amp;nbsp; &amp;nbsp; &amp;nbsp; &amp;nbsp; operation: Update&lt;/div&gt;&lt;div&gt;&amp;nbsp; &amp;nbsp; &amp;nbsp; &amp;nbsp; time: &quot;2024-04-03T03:26:02Z&quot;&lt;/div&gt;&lt;div&gt;&amp;nbsp; &amp;nbsp; &amp;nbsp; - apiVersion: ramendr.openshift.io/v1alpha1&lt;/div&gt;&lt;div&gt;&amp;nbsp; &amp;nbsp; &amp;nbsp; &amp;nbsp; fieldsType: FieldsV1&lt;/div&gt;&lt;div&gt;&amp;nbsp; &amp;nbsp; &amp;nbsp; &amp;nbsp; fieldsV1:&lt;/div&gt;&lt;div&gt;&amp;nbsp; &amp;nbsp; &amp;nbsp; &amp;nbsp; &amp;nbsp; f:metadata:&lt;/div&gt;&lt;div&gt;&amp;nbsp; &amp;nbsp; &amp;nbsp; &amp;nbsp; &amp;nbsp; &amp;nbsp; f:annotations:&lt;/div&gt;&lt;div&gt;&amp;nbsp; &amp;nbsp; &amp;nbsp; &amp;nbsp; &amp;nbsp; &amp;nbsp; &amp;nbsp; .: {}&lt;/div&gt;&lt;div&gt;&amp;nbsp; &amp;nbsp; &amp;nbsp; &amp;nbsp; &amp;nbsp; &amp;nbsp; &amp;nbsp; f:drplacementcontrol.ramendr.openshift.io/destination-cluster: {}&lt;/div&gt;&lt;div&gt;&amp;nbsp; &amp;nbsp; &amp;nbsp; &amp;nbsp; &amp;nbsp; &amp;nbsp; &amp;nbsp; f:drplacementcontrol.ramendr.openshift.io/do-not-delete-pvc: {}&lt;/div&gt;&lt;div&gt;&amp;nbsp; &amp;nbsp; &amp;nbsp; &amp;nbsp; &amp;nbsp; &amp;nbsp; &amp;nbsp; f:drplacementcontrol.ramendr.openshift.io/drpc-uid: {}&lt;/div&gt;&lt;div&gt;&amp;nbsp; &amp;nbsp; &amp;nbsp; &amp;nbsp; &amp;nbsp; &amp;nbsp; f:ownerReferences:&lt;/div&gt;&lt;div&gt;&amp;nbsp; &amp;nbsp; &amp;nbsp; &amp;nbsp; &amp;nbsp; &amp;nbsp; &amp;nbsp; .: {}&lt;/div&gt;&lt;div&gt;&amp;nbsp; &amp;nbsp; &amp;nbsp; &amp;nbsp; &amp;nbsp; &amp;nbsp; &amp;nbsp; k:{&quot;uid&quot;:&quot;c62aa27c-e5b6-492e-ab70-eab567ab7ea6&quot;}: {}&lt;/div&gt;&lt;div&gt;&amp;nbsp; &amp;nbsp; &amp;nbsp; &amp;nbsp; &amp;nbsp; f:spec:&lt;/div&gt;&lt;div&gt;&amp;nbsp; &amp;nbsp; &amp;nbsp; &amp;nbsp; &amp;nbsp; &amp;nbsp; .: {}&lt;/div&gt;&lt;div&gt;&amp;nbsp; &amp;nbsp; &amp;nbsp; &amp;nbsp; &amp;nbsp; &amp;nbsp; f:async:&lt;/div&gt;&lt;div&gt;&amp;nbsp; &amp;nbsp; &amp;nbsp; &amp;nbsp; &amp;nbsp; &amp;nbsp; &amp;nbsp; .: {}&lt;/div&gt;&lt;div&gt;&amp;nbsp; &amp;nbsp; &amp;nbsp; &amp;nbsp; &amp;nbsp; &amp;nbsp; &amp;nbsp; f:replicationClassSelector: {}&lt;/div&gt;&lt;div&gt;&amp;nbsp; &amp;nbsp; &amp;nbsp; &amp;nbsp; &amp;nbsp; &amp;nbsp; &amp;nbsp; f:schedulingInterval: {}&lt;/div&gt;&lt;div&gt;&amp;nbsp; &amp;nbsp; &amp;nbsp; &amp;nbsp; &amp;nbsp; &amp;nbsp; &amp;nbsp; f:volumeSnapshotClassSelector: {}&lt;/div&gt;&lt;div&gt;&amp;nbsp; &amp;nbsp; &amp;nbsp; &amp;nbsp; &amp;nbsp; &amp;nbsp; f:pvcSelector: {}&lt;/div&gt;&lt;div&gt;&amp;nbsp; &amp;nbsp; &amp;nbsp; &amp;nbsp; &amp;nbsp; &amp;nbsp; f:replicationState: {}&lt;/div&gt;&lt;div&gt;&amp;nbsp; &amp;nbsp; &amp;nbsp; &amp;nbsp; &amp;nbsp; &amp;nbsp; f:s3Profiles: {}&lt;/div&gt;&lt;div&gt;&amp;nbsp; &amp;nbsp; &amp;nbsp; &amp;nbsp; &amp;nbsp; &amp;nbsp; f:volSync: {}&lt;/div&gt;&lt;div&gt;&amp;nbsp; &amp;nbsp; &amp;nbsp; &amp;nbsp; manager: work&lt;/div&gt;&lt;div&gt;&amp;nbsp; &amp;nbsp; &amp;nbsp; &amp;nbsp; operation: Update&lt;/div&gt;&lt;div&gt;&amp;nbsp; &amp;nbsp; &amp;nbsp; &amp;nbsp; time: &quot;2024-04-03T03:26:02Z&quot;&lt;/div&gt;&lt;div&gt;&amp;nbsp; &amp;nbsp; &amp;nbsp; - apiVersion: ramendr.openshift.io/v1alpha1&lt;/div&gt;&lt;div&gt;&amp;nbsp; &amp;nbsp; &amp;nbsp; &amp;nbsp; fieldsType: FieldsV1&lt;/div&gt;&lt;div&gt;&amp;nbsp; &amp;nbsp; &amp;nbsp; &amp;nbsp; fieldsV1:&lt;/div&gt;&lt;div&gt;&amp;nbsp; &amp;nbsp; &amp;nbsp; &amp;nbsp; &amp;nbsp; f:status:&lt;/div&gt;&lt;div&gt;&amp;nbsp; &amp;nbsp; &amp;nbsp; &amp;nbsp; &amp;nbsp; &amp;nbsp; .: {}&lt;/div&gt;&lt;div&gt;&amp;nbsp; &amp;nbsp; &amp;nbsp; &amp;nbsp; &amp;nbsp; &amp;nbsp; f:conditions: {}&lt;/div&gt;&lt;div&gt;&amp;nbsp; &amp;nbsp; &amp;nbsp; &amp;nbsp; &amp;nbsp; &amp;nbsp; f:kubeObjectProtection: {}&lt;/div&gt;&lt;div&gt;&amp;nbsp; &amp;nbsp; &amp;nbsp; &amp;nbsp; &amp;nbsp; &amp;nbsp; f:lastGroupSyncDuration: {}&lt;/div&gt;&lt;div&gt;&amp;nbsp; &amp;nbsp; &amp;nbsp; &amp;nbsp; &amp;nbsp; &amp;nbsp; f:lastGroupSyncTime: {}&lt;/div&gt;&lt;div&gt;&amp;nbsp; &amp;nbsp; &amp;nbsp; &amp;nbsp; &amp;nbsp; &amp;nbsp; f:lastUpdateTime: {}&lt;/div&gt;&lt;div&gt;&amp;nbsp; &amp;nbsp; &amp;nbsp; &amp;nbsp; &amp;nbsp; &amp;nbsp; f:observedGeneration: {}&lt;/div&gt;&lt;div&gt;&amp;nbsp; &amp;nbsp; &amp;nbsp; &amp;nbsp; &amp;nbsp; &amp;nbsp; f:protectedPVCs: {}&lt;/div&gt;&lt;div&gt;&amp;nbsp; &amp;nbsp; &amp;nbsp; &amp;nbsp; &amp;nbsp; &amp;nbsp; f:state: {}&lt;/div&gt;&lt;div&gt;&amp;nbsp; &amp;nbsp; &amp;nbsp; &amp;nbsp; manager: manager&lt;/div&gt;&lt;div&gt;&amp;nbsp; &amp;nbsp; &amp;nbsp; &amp;nbsp; operation: Update&lt;/div&gt;&lt;div&gt;&amp;nbsp; &amp;nbsp; &amp;nbsp; &amp;nbsp; subresource: status&lt;/div&gt;&lt;div&gt;&amp;nbsp; &amp;nbsp; &amp;nbsp; &amp;nbsp; time: &quot;2024-04-03T12:55:09Z&quot;&lt;/div&gt;&lt;div&gt;&amp;nbsp; &amp;nbsp; &amp;nbsp; name: deployment-cephfs-drpc&lt;/div&gt;&lt;div&gt;&amp;nbsp; &amp;nbsp; &amp;nbsp; namespace: deployment-cephfs&lt;/div&gt;&lt;div&gt;&amp;nbsp; &amp;nbsp; &amp;nbsp; ownerReferences:&lt;/div&gt;&lt;div&gt;&amp;nbsp; &amp;nbsp; &amp;nbsp; - apiVersion: work.open-cluster-management.io/v1&lt;/div&gt;&lt;div&gt;&amp;nbsp; &amp;nbsp; &amp;nbsp; &amp;nbsp; kind: AppliedManifestWork&lt;/div&gt;&lt;div&gt;&amp;nbsp; &amp;nbsp; &amp;nbsp; &amp;nbsp; name: 8b4a44398ddb4f2707e665034e4abba63f5a1d7dec9b2f9dce8c9d4cd1fade06-deployment-cephfs-drpc-deployment-cephfs-vrg-mw&lt;/div&gt;&lt;div&gt;&amp;nbsp; &amp;nbsp; &amp;nbsp; &amp;nbsp; uid: c62aa27c-e5b6-492e-ab70-eab567ab7ea6&lt;/div&gt;&lt;div&gt;&amp;nbsp; &amp;nbsp; &amp;nbsp; resourceVersion: &quot;220701&quot;&lt;/div&gt;&lt;div&gt;&amp;nbsp; &amp;nbsp; &amp;nbsp; uid: 6b1b9f92-9ca1-47eb-b98c-731bc1aab586&lt;/div&gt;&lt;div&gt;&amp;nbsp; &amp;nbsp; spec:&lt;/div&gt;&lt;div&gt;&amp;nbsp; &amp;nbsp; &amp;nbsp; async:&lt;/div&gt;&lt;div&gt;&amp;nbsp; &amp;nbsp; &amp;nbsp; &amp;nbsp; replicationClassSelector: {}&lt;/div&gt;&lt;div&gt;&amp;nbsp; &amp;nbsp; &amp;nbsp; &amp;nbsp; schedulingInterval: 1m&lt;/div&gt;&lt;div&gt;&amp;nbsp; &amp;nbsp; &amp;nbsp; &amp;nbsp; volumeSnapshotClassSelector: {}&lt;/div&gt;&lt;div&gt;&amp;nbsp; &amp;nbsp; &amp;nbsp; pvcSelector:&lt;/div&gt;&lt;div&gt;&amp;nbsp; &amp;nbsp; &amp;nbsp; &amp;nbsp; matchLabels:&lt;/div&gt;&lt;div&gt;&amp;nbsp; &amp;nbsp; &amp;nbsp; &amp;nbsp; &amp;nbsp; appname: busybox&lt;/div&gt;&lt;div&gt;&amp;nbsp; &amp;nbsp; &amp;nbsp; replicationState: primary&lt;/div&gt;&lt;div&gt;&amp;nbsp; &amp;nbsp; &amp;nbsp; s3Profiles:&lt;/div&gt;&lt;div&gt;&amp;nbsp; &amp;nbsp; &amp;nbsp; - minio-on-dr1&lt;/div&gt;&lt;div&gt;&amp;nbsp; &amp;nbsp; &amp;nbsp; - minio-on-dr2&lt;/div&gt;&lt;div&gt;&amp;nbsp; &amp;nbsp; &amp;nbsp; volSync: {}&lt;/div&gt;&lt;div&gt;&amp;nbsp; &amp;nbsp; status:&lt;/div&gt;&lt;div&gt;&amp;nbsp; &amp;nbsp; &amp;nbsp; conditions:&lt;/div&gt;&lt;div&gt;&amp;nbsp; &amp;nbsp; &amp;nbsp; - lastTransitionTime: &quot;2024-04-03T03:27:09Z&quot;&lt;/div&gt;&lt;div&gt;&amp;nbsp; &amp;nbsp; &amp;nbsp; &amp;nbsp; message: All VolSync PVCs are ready&lt;/div&gt;&lt;div&gt;&amp;nbsp; &amp;nbsp; &amp;nbsp; &amp;nbsp; observedGeneration: 1&lt;/div&gt;&lt;div&gt;&amp;nbsp; &amp;nbsp; &amp;nbsp; &amp;nbsp; reason: Ready&lt;/div&gt;&lt;div&gt;&amp;nbsp; &amp;nbsp; &amp;nbsp; &amp;nbsp; status: &quot;True&quot;&lt;/div&gt;&lt;div&gt;&amp;nbsp; &amp;nbsp; &amp;nbsp; &amp;nbsp; type: DataReady&lt;/div&gt;&lt;div&gt;&amp;nbsp; &amp;nbsp; &amp;nbsp; - lastTransitionTime: &quot;2024-04-03T03:28:03Z&quot;&lt;/div&gt;&lt;div&gt;&amp;nbsp; &amp;nbsp; &amp;nbsp; &amp;nbsp; message: All VolSync PVCs are protected&lt;/div&gt;&lt;div&gt;&amp;nbsp; &amp;nbsp; &amp;nbsp; &amp;nbsp; observedGeneration: 1&lt;/div&gt;&lt;div&gt;&amp;nbsp; &amp;nbsp; &amp;nbsp; &amp;nbsp; reason: DataProtected&lt;/div&gt;&lt;div&gt;&amp;nbsp; &amp;nbsp; &amp;nbsp; &amp;nbsp; status: &quot;True&quot;&lt;/div&gt;&lt;div&gt;&amp;nbsp; &amp;nbsp; &amp;nbsp; &amp;nbsp; type: DataProtected&lt;/div&gt;&lt;div&gt;&amp;nbsp; &amp;nbsp; &amp;nbsp; - lastTransitionTime: &quot;2024-04-03T03:26:03Z&quot;&lt;/div&gt;&lt;div&gt;&amp;nbsp; &amp;nbsp; &amp;nbsp; &amp;nbsp; message: Nothing to restore&lt;/div&gt;&lt;div&gt;&amp;nbsp; &amp;nbsp; &amp;nbsp; &amp;nbsp; observedGeneration: 1&lt;/div&gt;&lt;div&gt;&amp;nbsp; &amp;nbsp; &amp;nbsp; &amp;nbsp; reason: Restored&lt;/div&gt;&lt;div&gt;&amp;nbsp; &amp;nbsp; &amp;nbsp; &amp;nbsp; status: &quot;True&quot;&lt;/div&gt;&lt;div&gt;&amp;nbsp; &amp;nbsp; &amp;nbsp; &amp;nbsp; type: ClusterDataReady&lt;/div&gt;&lt;div&gt;&amp;nbsp; &amp;nbsp; &amp;nbsp; - lastTransitionTime: &quot;2024-04-03T12:48:45Z&quot;&lt;/div&gt;&lt;div&gt;&amp;nbsp; &amp;nbsp; &amp;nbsp; &amp;nbsp; message: Kube objects protected&lt;/div&gt;&lt;div&gt;&amp;nbsp; &amp;nbsp; &amp;nbsp; &amp;nbsp; observedGeneration: 1&lt;/div&gt;&lt;div&gt;&amp;nbsp; &amp;nbsp; &amp;nbsp; &amp;nbsp; reason: Uploaded&lt;/div&gt;&lt;div&gt;&amp;nbsp; &amp;nbsp; &amp;nbsp; &amp;nbsp; status: &quot;True&quot;&lt;/div&gt;&lt;div&gt;&amp;nbsp; &amp;nbsp; &amp;nbsp; &amp;nbsp; type: ClusterDataProtected&lt;/div&gt;&lt;div&gt;&amp;nbsp; &amp;nbsp; &amp;nbsp; kubeObjectProtection: {}&lt;/div&gt;&lt;div&gt;&amp;nbsp; &amp;nbsp; &amp;nbsp; lastGroupSyncDuration: 1m6.36247143s&lt;/div&gt;&lt;div&gt;&amp;nbsp; &amp;nbsp; &amp;nbsp; lastGroupSyncTime: &quot;2024-04-03T12:55:06Z&quot;&lt;/div&gt;&lt;div&gt;&amp;nbsp; &amp;nbsp; &amp;nbsp; lastUpdateTime: &quot;2024-04-03T12:55:09Z&quot;&lt;/div&gt;&lt;div&gt;&amp;nbsp; &amp;nbsp; &amp;nbsp; observedGeneration: 1&lt;/div&gt;&lt;div&gt;&amp;nbsp; &amp;nbsp; &amp;nbsp; protectedPVCs:&lt;/div&gt;&lt;div&gt;&amp;nbsp; &amp;nbsp; &amp;nbsp; - accessModes:&lt;/div&gt;&lt;div&gt;&amp;nbsp; &amp;nbsp; &amp;nbsp; &amp;nbsp; - ReadWriteOnce&lt;/div&gt;&lt;div&gt;&amp;nbsp; &amp;nbsp; &amp;nbsp; &amp;nbsp; annotations:&lt;/div&gt;&lt;div&gt;&amp;nbsp; &amp;nbsp; &amp;nbsp; &amp;nbsp; &amp;nbsp; apps.open-cluster-management.io/hosting-subscription: deployment-cephfs/subscription&lt;/div&gt;&lt;div&gt;&amp;nbsp; &amp;nbsp; &amp;nbsp; &amp;nbsp; &amp;nbsp; apps.open-cluster-management.io/reconcile-option: merge&lt;/div&gt;&lt;div&gt;&amp;nbsp; &amp;nbsp; &amp;nbsp; &amp;nbsp; conditions:&lt;/div&gt;&lt;div&gt;&amp;nbsp; &amp;nbsp; &amp;nbsp; &amp;nbsp; - lastTransitionTime: &quot;2024-04-03T03:27:09Z&quot;&lt;/div&gt;&lt;div&gt;&amp;nbsp; &amp;nbsp; &amp;nbsp; &amp;nbsp; &amp;nbsp; message: Ready&lt;/div&gt;&lt;div&gt;&amp;nbsp; &amp;nbsp; &amp;nbsp; &amp;nbsp; &amp;nbsp; observedGeneration: 1&lt;/div&gt;&lt;div&gt;&amp;nbsp; &amp;nbsp; &amp;nbsp; &amp;nbsp; &amp;nbsp; reason: SourceInitialized&lt;/div&gt;&lt;div&gt;&amp;nbsp; &amp;nbsp; &amp;nbsp; &amp;nbsp; &amp;nbsp; status: &quot;True&quot;&lt;/div&gt;&lt;div&gt;&amp;nbsp; &amp;nbsp; &amp;nbsp; &amp;nbsp; &amp;nbsp; type: ReplicationSourceSetup&lt;/div&gt;&lt;div&gt;&amp;nbsp; &amp;nbsp; &amp;nbsp; &amp;nbsp; labels:&lt;/div&gt;&lt;div&gt;&amp;nbsp; &amp;nbsp; &amp;nbsp; &amp;nbsp; &amp;nbsp; app: deployment-cephfs&lt;/div&gt;&lt;div&gt;&amp;nbsp; &amp;nbsp; &amp;nbsp; &amp;nbsp; &amp;nbsp; app.kubernetes.io/part-of: deployment-cephfs&lt;/div&gt;&lt;div&gt;&amp;nbsp; &amp;nbsp; &amp;nbsp; &amp;nbsp; &amp;nbsp; appname: busybox&lt;/div&gt;&lt;div&gt;&amp;nbsp; &amp;nbsp; &amp;nbsp; &amp;nbsp; lastSyncDuration: 1m6.36247143s&lt;/div&gt;&lt;div&gt;&amp;nbsp; &amp;nbsp; &amp;nbsp; &amp;nbsp; lastSyncTime: &quot;2024-04-03T12:55:06Z&quot;&lt;/div&gt;&lt;div&gt;&amp;nbsp; &amp;nbsp; &amp;nbsp; &amp;nbsp; name: busybox-another-pvc&lt;/div&gt;&lt;div&gt;&amp;nbsp; &amp;nbsp; &amp;nbsp; &amp;nbsp; namespace: deployment-cephfs&lt;/div&gt;&lt;div&gt;&amp;nbsp; &amp;nbsp; &amp;nbsp; &amp;nbsp; protectedByVolSync: true&lt;/div&gt;&lt;div&gt;&amp;nbsp; &amp;nbsp; &amp;nbsp; &amp;nbsp; replicationID:&lt;/div&gt;&lt;div&gt;&amp;nbsp; &amp;nbsp; &amp;nbsp; &amp;nbsp; &amp;nbsp; id: &quot;&quot;&lt;/div&gt;&lt;div&gt;&amp;nbsp; &amp;nbsp; &amp;nbsp; &amp;nbsp; resources:&lt;/div&gt;&lt;div&gt;&amp;nbsp; &amp;nbsp; &amp;nbsp; &amp;nbsp; &amp;nbsp; requests:&lt;/div&gt;&lt;div&gt;&amp;nbsp; &amp;nbsp; &amp;nbsp; &amp;nbsp; &amp;nbsp; &amp;nbsp; storage: 1Gi&lt;/div&gt;&lt;div&gt;&amp;nbsp; &amp;nbsp; &amp;nbsp; &amp;nbsp; storageClassName: ocs-storagecluster-cephfs&lt;/div&gt;&lt;div&gt;&amp;nbsp; &amp;nbsp; &amp;nbsp; &amp;nbsp; storageID:&lt;/div&gt;&lt;div&gt;&amp;nbsp; &amp;nbsp; &amp;nbsp; &amp;nbsp; &amp;nbsp; id: &quot;&quot;&lt;/div&gt;&lt;div&gt;&amp;nbsp; &amp;nbsp; &amp;nbsp; - accessModes:&lt;/div&gt;&lt;div&gt;&amp;nbsp; &amp;nbsp; &amp;nbsp; &amp;nbsp; - ReadWriteMany&lt;/div&gt;&lt;div&gt;&amp;nbsp; &amp;nbsp; &amp;nbsp; &amp;nbsp; annotations:&lt;/div&gt;&lt;div&gt;&amp;nbsp; &amp;nbsp; &amp;nbsp; &amp;nbsp; &amp;nbsp; apps.open-cluster-management.io/hosting-subscription: deployment-cephfs/subscription&lt;/div&gt;&lt;div&gt;&amp;nbsp; &amp;nbsp; &amp;nbsp; &amp;nbsp; &amp;nbsp; apps.open-cluster-management.io/reconcile-option: merge&lt;/div&gt;&lt;div&gt;&amp;nbsp; &amp;nbsp; &amp;nbsp; &amp;nbsp; conditions:&lt;/div&gt;&lt;div&gt;&amp;nbsp; &amp;nbsp; &amp;nbsp; &amp;nbsp; - lastTransitionTime: &quot;2024-04-03T03:27:09Z&quot;&lt;/div&gt;&lt;div&gt;&amp;nbsp; &amp;nbsp; &amp;nbsp; &amp;nbsp; &amp;nbsp; message: Ready&lt;/div&gt;&lt;div&gt;&amp;nbsp; &amp;nbsp; &amp;nbsp; &amp;nbsp; &amp;nbsp; observedGeneration: 1&lt;/div&gt;&lt;div&gt;&amp;nbsp; &amp;nbsp; &amp;nbsp; &amp;nbsp; &amp;nbsp; reason: SourceInitialized&lt;/div&gt;&lt;div&gt;&amp;nbsp; &amp;nbsp; &amp;nbsp; &amp;nbsp; &amp;nbsp; status: &quot;True&quot;&lt;/div&gt;&lt;div&gt;&amp;nbsp; &amp;nbsp; &amp;nbsp; &amp;nbsp; &amp;nbsp; type: ReplicationSourceSetup&lt;/div&gt;&lt;div&gt;&amp;nbsp; &amp;nbsp; &amp;nbsp; &amp;nbsp; labels:&lt;/div&gt;&lt;div&gt;&amp;nbsp; &amp;nbsp; &amp;nbsp; &amp;nbsp; &amp;nbsp; app: deployment-cephfs&lt;/div&gt;&lt;div&gt;&amp;nbsp; &amp;nbsp; &amp;nbsp; &amp;nbsp; &amp;nbsp; app.kubernetes.io/part-of: deployment-cephfs&lt;/div&gt;&lt;div&gt;&amp;nbsp; &amp;nbsp; &amp;nbsp; &amp;nbsp; &amp;nbsp; appname: busybox&lt;/div&gt;&lt;div&gt;&amp;nbsp; &amp;nbsp; &amp;nbsp; &amp;nbsp; lastSyncDuration: 1m5.377762853s&lt;/div&gt;&lt;div&gt;&amp;nbsp; &amp;nbsp; &amp;nbsp; &amp;nbsp; lastSyncTime: &quot;2024-04-03T12:55:06Z&quot;&lt;/div&gt;&lt;div&gt;&amp;nbsp; &amp;nbsp; &amp;nbsp; &amp;nbsp; name: busybox-pvc&lt;/div&gt;&lt;div&gt;&amp;nbsp; &amp;nbsp; &amp;nbsp; &amp;nbsp; namespace: deployment-cephfs&lt;/div&gt;&lt;div&gt;&amp;nbsp; &amp;nbsp; &amp;nbsp; &amp;nbsp; protectedByVolSync: true&lt;/div&gt;&lt;div&gt;&amp;nbsp; &amp;nbsp; &amp;nbsp; &amp;nbsp; replicationID:&lt;/div&gt;&lt;div&gt;&amp;nbsp; &amp;nbsp; &amp;nbsp; &amp;nbsp; &amp;nbsp; id: &quot;&quot;&lt;/div&gt;&lt;div&gt;&amp;nbsp; &amp;nbsp; &amp;nbsp; &amp;nbsp; resources:&lt;/div&gt;&lt;div&gt;&amp;nbsp; &amp;nbsp; &amp;nbsp; &amp;nbsp; &amp;nbsp; requests:&lt;/div&gt;&lt;div&gt;&amp;nbsp; &amp;nbsp; &amp;nbsp; &amp;nbsp; &amp;nbsp; &amp;nbsp; storage: 1Gi&lt;/div&gt;&lt;div&gt;&amp;nbsp; &amp;nbsp; &amp;nbsp; &amp;nbsp; storageClassName: ocs-storagecluster-cephfs&lt;/div&gt;&lt;div&gt;&amp;nbsp; &amp;nbsp; &amp;nbsp; &amp;nbsp; storageID:&lt;/div&gt;&lt;div&gt;&amp;nbsp; &amp;nbsp; &amp;nbsp; &amp;nbsp; &amp;nbsp; id: &quot;&quot;&lt;/div&gt;&lt;div&gt;&amp;nbsp; &amp;nbsp; &amp;nbsp; state: Primary&lt;/div&gt;" style="text;strokeColor=none;fillColor=default;align=left;verticalAlign=middle;spacingLeft=4;spacingRight=4;overflow=hidden;points=[[0,0.5],[1,0.5]];portConstraint=eastwest;rotatable=0;whiteSpace=wrap;html=1;" parent="Rm11WEUQjzfcoIPD6hnw-33" vertex="1">
          <mxGeometry y="30" width="580" height="3020" as="geometry" />
        </mxCell>
        <mxCell id="Rm11WEUQjzfcoIPD6hnw-4" value="DRPC in app ns" style="swimlane;fontStyle=0;childLayout=stackLayout;horizontal=1;startSize=30;horizontalStack=0;resizeParent=1;resizeParentMax=0;resizeLast=0;collapsible=1;marginBottom=0;whiteSpace=wrap;html=1;" parent="1" vertex="1" collapsed="1">
          <mxGeometry x="450" y="120" width="165" height="30" as="geometry">
            <mxRectangle x="450" y="120" width="580" height="1310" as="alternateBounds" />
          </mxGeometry>
        </mxCell>
        <mxCell id="Rm11WEUQjzfcoIPD6hnw-5" value="&lt;div&gt;apiVersion: ramendr.openshift.io/v1alpha1&lt;/div&gt;&lt;div&gt;kind: DRPlacementControl&lt;/div&gt;&lt;div&gt;metadata:&lt;/div&gt;&lt;div&gt;&amp;nbsp; annotations:&lt;/div&gt;&lt;div&gt;&amp;nbsp; &amp;nbsp; drplacementcontrol.ramendr.openshift.io/app-namespace: deployment-cephfs&lt;/div&gt;&lt;div&gt;&amp;nbsp; &amp;nbsp; drplacementcontrol.ramendr.openshift.io/last-app-deployment-cluster: dr1&lt;/div&gt;&lt;div&gt;&lt;span style=&quot;background-color: initial;&quot;&gt;&amp;nbsp; finalizers:&lt;/span&gt;&lt;br&gt;&lt;/div&gt;&lt;div&gt;&amp;nbsp; - drpc.ramendr.openshift.io/finalizer&lt;/div&gt;&lt;div&gt;&lt;span style=&quot;background-color: initial;&quot;&gt;&amp;nbsp; labels:&lt;/span&gt;&lt;br&gt;&lt;/div&gt;&lt;div&gt;&amp;nbsp; &amp;nbsp; app: deployment-cephfs&lt;/div&gt;&lt;div&gt;&amp;nbsp; &amp;nbsp; cluster.open-cluster-management.io/backup: ramen&lt;/div&gt;&lt;div&gt;&amp;nbsp; name: deployment-cephfs-drpc&lt;/div&gt;&lt;div&gt;&amp;nbsp; namespace: deployment-cephfs&lt;/div&gt;&lt;div&gt;&amp;nbsp; ownerReferences:&lt;/div&gt;&lt;div&gt;&amp;nbsp; - apiVersion: cluster.open-cluster-management.io/v1beta1&lt;/div&gt;&lt;div&gt;&amp;nbsp; &amp;nbsp; blockOwnerDeletion: true&lt;/div&gt;&lt;div&gt;&amp;nbsp; &amp;nbsp; controller: true&lt;/div&gt;&lt;div&gt;&amp;nbsp; &amp;nbsp; kind: Placement&lt;/div&gt;&lt;div&gt;&amp;nbsp; &amp;nbsp; name: placement&lt;/div&gt;&lt;div&gt;&amp;nbsp; &amp;nbsp; uid: 06794744-ce17-47d4-9c96-51e45af28bc3&lt;/div&gt;&lt;div&gt;&lt;span style=&quot;background-color: initial;&quot;&gt;spec:&lt;/span&gt;&lt;br&gt;&lt;/div&gt;&lt;div&gt;&amp;nbsp; drPolicyRef:&lt;/div&gt;&lt;div&gt;&amp;nbsp; &amp;nbsp; name: dr-policy&lt;/div&gt;&lt;div&gt;&amp;nbsp; placementRef:&lt;/div&gt;&lt;div&gt;&amp;nbsp; &amp;nbsp; kind: Placement&lt;/div&gt;&lt;div&gt;&amp;nbsp; &amp;nbsp; name: placement&lt;/div&gt;&lt;div&gt;&lt;b&gt;&lt;font color=&quot;#ff3333&quot;&gt;&amp;nbsp; preferredCluster: dr1&lt;/font&gt;&lt;/b&gt;&lt;/div&gt;&lt;div&gt;&amp;nbsp; pvcSelector:&lt;/div&gt;&lt;div&gt;&amp;nbsp; &amp;nbsp; matchLabels:&lt;/div&gt;&lt;div&gt;&amp;nbsp; &amp;nbsp; &amp;nbsp; appname: busybox&lt;/div&gt;&lt;div&gt;status:&lt;/div&gt;&lt;div&gt;&amp;nbsp; actionDuration: 20.926550263s&lt;/div&gt;&lt;div&gt;&amp;nbsp; actionStartTime: &quot;2024-04-03T03:26:10Z&quot;&lt;/div&gt;&lt;div&gt;&amp;nbsp; conditions:&lt;/div&gt;&lt;div&gt;&amp;nbsp; - lastTransitionTime: &quot;2024-04-03T03:26:01Z&quot;&lt;/div&gt;&lt;div&gt;&amp;nbsp; &amp;nbsp; message: Initial deployment completed&lt;/div&gt;&lt;div&gt;&amp;nbsp; &amp;nbsp; observedGeneration: 1&lt;/div&gt;&lt;div&gt;&amp;nbsp; &amp;nbsp; reason: Deployed&lt;/div&gt;&lt;div&gt;&amp;nbsp; &amp;nbsp; status: &quot;True&quot;&lt;/div&gt;&lt;div&gt;&amp;nbsp; &amp;nbsp; type: Available&lt;/div&gt;&lt;div&gt;&amp;nbsp; - lastTransitionTime: &quot;2024-04-03T03:26:01Z&quot;&lt;/div&gt;&lt;div&gt;&amp;nbsp; &amp;nbsp; message: Ready&lt;/div&gt;&lt;div&gt;&amp;nbsp; &amp;nbsp; observedGeneration: 1&lt;/div&gt;&lt;div&gt;&amp;nbsp; &amp;nbsp; reason: Success&lt;/div&gt;&lt;div&gt;&amp;nbsp; &amp;nbsp; status: &quot;True&quot;&lt;/div&gt;&lt;div&gt;&amp;nbsp; &amp;nbsp; type: PeerReady&lt;/div&gt;&lt;div&gt;&amp;nbsp; lastGroupSyncDuration: 1m1.906916364s&lt;/div&gt;&lt;div&gt;&amp;nbsp; lastGroupSyncTime: &quot;2024-04-03T12:19:00Z&quot;&lt;/div&gt;&lt;div&gt;&amp;nbsp; lastUpdateTime: &quot;2024-04-03T12:19:16Z&quot;&lt;/div&gt;&lt;div&gt;&amp;nbsp; phase: Deployed&lt;/div&gt;&lt;div&gt;&amp;nbsp; preferredDecision:&lt;/div&gt;&lt;div&gt;&amp;nbsp; &amp;nbsp; clusterName: dr1&lt;/div&gt;&lt;div&gt;&amp;nbsp; &amp;nbsp; clusterNamespace: dr1&lt;/div&gt;&lt;div&gt;&amp;nbsp; progression: Completed&lt;/div&gt;&lt;div&gt;&amp;nbsp; resourceConditions:&lt;/div&gt;&lt;div&gt;&amp;nbsp; &amp;nbsp; conditions:&lt;/div&gt;&lt;div&gt;&amp;nbsp; &amp;nbsp; - lastTransitionTime: &quot;2024-04-03T03:27:09Z&quot;&lt;/div&gt;&lt;div&gt;&amp;nbsp; &amp;nbsp; &amp;nbsp; message: All VolSync PVCs are ready&lt;/div&gt;&lt;div&gt;&amp;nbsp; &amp;nbsp; &amp;nbsp; observedGeneration: 1&lt;/div&gt;&lt;div&gt;&amp;nbsp; &amp;nbsp; &amp;nbsp; reason: Ready&lt;/div&gt;&lt;div&gt;&amp;nbsp; &amp;nbsp; &amp;nbsp; status: &quot;True&quot;&lt;/div&gt;&lt;div&gt;&amp;nbsp; &amp;nbsp; &amp;nbsp; type: DataReady&lt;/div&gt;&lt;div&gt;&amp;nbsp; &amp;nbsp; - lastTransitionTime: &quot;2024-04-03T03:28:03Z&quot;&lt;/div&gt;&lt;div&gt;&amp;nbsp; &amp;nbsp; &amp;nbsp; message: All VolSync PVCs are protected&lt;/div&gt;&lt;div&gt;&amp;nbsp; &amp;nbsp; &amp;nbsp; observedGeneration: 1&lt;/div&gt;&lt;div&gt;&amp;nbsp; &amp;nbsp; &amp;nbsp; reason: DataProtected&lt;/div&gt;&lt;div&gt;&amp;nbsp; &amp;nbsp; &amp;nbsp; status: &quot;True&quot;&lt;/div&gt;&lt;div&gt;&amp;nbsp; &amp;nbsp; &amp;nbsp; type: DataProtected&lt;/div&gt;&lt;div&gt;&amp;nbsp; &amp;nbsp; - lastTransitionTime: &quot;2024-04-03T03:26:03Z&quot;&lt;/div&gt;&lt;div&gt;&amp;nbsp; &amp;nbsp; &amp;nbsp; message: Nothing to restore&lt;/div&gt;&lt;div&gt;&amp;nbsp; &amp;nbsp; &amp;nbsp; observedGeneration: 1&lt;/div&gt;&lt;div&gt;&amp;nbsp; &amp;nbsp; &amp;nbsp; reason: Restored&lt;/div&gt;&lt;div&gt;&amp;nbsp; &amp;nbsp; &amp;nbsp; status: &quot;True&quot;&lt;/div&gt;&lt;div&gt;&amp;nbsp; &amp;nbsp; &amp;nbsp; type: ClusterDataReady&lt;/div&gt;&lt;div&gt;&amp;nbsp; &amp;nbsp; - lastTransitionTime: &quot;2024-04-03T11:51:01Z&quot;&lt;/div&gt;&lt;div&gt;&amp;nbsp; &amp;nbsp; &amp;nbsp; message: Kube objects protected&lt;/div&gt;&lt;div&gt;&amp;nbsp; &amp;nbsp; &amp;nbsp; observedGeneration: 1&lt;/div&gt;&lt;div&gt;&amp;nbsp; &amp;nbsp; &amp;nbsp; reason: Uploaded&lt;/div&gt;&lt;div&gt;&amp;nbsp; &amp;nbsp; &amp;nbsp; status: &quot;True&quot;&lt;/div&gt;&lt;div&gt;&amp;nbsp; &amp;nbsp; &amp;nbsp; type: ClusterDataProtected&lt;/div&gt;&lt;div&gt;&amp;nbsp; &amp;nbsp; resourceMeta:&lt;/div&gt;&lt;div&gt;&amp;nbsp; &amp;nbsp; &amp;nbsp; generation: 1&lt;/div&gt;&lt;div&gt;&amp;nbsp; &amp;nbsp; &amp;nbsp; kind: VolumeReplicationGroup&lt;/div&gt;&lt;div&gt;&amp;nbsp; &amp;nbsp; &amp;nbsp; name: deployment-cephfs-drpc&lt;/div&gt;&lt;div&gt;&amp;nbsp; &amp;nbsp; &amp;nbsp; namespace: deployment-cephfs&lt;/div&gt;&lt;div&gt;&amp;nbsp; &amp;nbsp; &amp;nbsp; protectedpvcs:&lt;/div&gt;&lt;div&gt;&amp;nbsp; &amp;nbsp; &amp;nbsp; - busybox-another-pvc&lt;/div&gt;&lt;div&gt;&amp;nbsp; &amp;nbsp; &amp;nbsp; - busybox-pvc&lt;/div&gt;" style="text;strokeColor=none;fillColor=default;align=left;verticalAlign=middle;spacingLeft=4;spacingRight=4;overflow=hidden;points=[[0,0.5],[1,0.5]];portConstraint=eastwest;rotatable=0;whiteSpace=wrap;html=1;" parent="Rm11WEUQjzfcoIPD6hnw-4" vertex="1">
          <mxGeometry y="30" width="580" height="1280" as="geometry" />
        </mxCell>
        <mxCell id="Rm11WEUQjzfcoIPD6hnw-10" value="Placement in app ns" style="swimlane;fontStyle=0;childLayout=stackLayout;horizontal=1;startSize=30;horizontalStack=0;resizeParent=1;resizeParentMax=0;resizeLast=0;collapsible=1;marginBottom=0;whiteSpace=wrap;html=1;" parent="1" vertex="1" collapsed="1">
          <mxGeometry x="-20" y="210" width="165" height="30" as="geometry">
            <mxRectangle x="-20" y="210" width="580" height="610" as="alternateBounds" />
          </mxGeometry>
        </mxCell>
        <mxCell id="Rm11WEUQjzfcoIPD6hnw-11" value="&lt;div&gt;apiVersion: cluster.open-cluster-management.io/v1beta1&lt;/div&gt;&lt;div&gt;kind: Placement&lt;/div&gt;&lt;div&gt;metadata:&lt;/div&gt;&lt;div&gt;&amp;nbsp; annotations:&lt;/div&gt;&lt;div&gt;&lt;b&gt;&lt;font color=&quot;#ff3333&quot;&gt;&amp;nbsp; &amp;nbsp; cluster.open-cluster-management.io/experimental-scheduling-disable: &quot;true&quot;&lt;/font&gt;&lt;/b&gt;&lt;/div&gt;&lt;div&gt;&amp;nbsp; &amp;nbsp; drplacementcontrol.ramendr.openshift.io/drpc-name: deployment-cephfs-drpc&lt;/div&gt;&lt;div&gt;&amp;nbsp; &amp;nbsp; drplacementcontrol.ramendr.openshift.io/drpc-namespace: deployment-cephfs&lt;/div&gt;&lt;div&gt;&lt;span style=&quot;background-color: initial;&quot;&gt;&amp;nbsp; finalizers:&lt;/span&gt;&lt;br&gt;&lt;/div&gt;&lt;div&gt;&amp;nbsp; - drpc.ramendr.openshift.io/finalizer&lt;/div&gt;&lt;div&gt;&lt;span style=&quot;background-color: initial;&quot;&gt;&amp;nbsp; labels:&lt;/span&gt;&lt;br&gt;&lt;/div&gt;&lt;div&gt;&amp;nbsp; &amp;nbsp; app: deployment-cephfs&lt;/div&gt;&lt;div&gt;&amp;nbsp; name: placement&lt;/div&gt;&lt;div&gt;&amp;nbsp; namespace: deployment-cephfs&lt;/div&gt;&lt;div&gt;&lt;span style=&quot;background-color: initial;&quot;&gt;spec:&lt;/span&gt;&lt;br&gt;&lt;/div&gt;&lt;div&gt;&amp;nbsp; clusterSets:&lt;/div&gt;&lt;div&gt;&amp;nbsp; - default&lt;/div&gt;&lt;div&gt;&amp;nbsp; numberOfClusters: 1&lt;/div&gt;&lt;div&gt;&amp;nbsp; prioritizerPolicy:&lt;/div&gt;&lt;div&gt;&amp;nbsp; &amp;nbsp; mode: Additive&lt;/div&gt;&lt;div&gt;&amp;nbsp; spreadPolicy: {}&lt;/div&gt;&lt;div&gt;status:&lt;/div&gt;&lt;div&gt;&amp;nbsp; conditions:&lt;/div&gt;&lt;div&gt;&amp;nbsp; - lastTransitionTime: &quot;2024-04-03T03:17:46Z&quot;&lt;/div&gt;&lt;div&gt;&amp;nbsp; &amp;nbsp; message: Placement configurations check pass&lt;/div&gt;&lt;div&gt;&amp;nbsp; &amp;nbsp; reason: Succeedconfigured&lt;/div&gt;&lt;div&gt;&amp;nbsp; &amp;nbsp; status: &quot;False&quot;&lt;/div&gt;&lt;div&gt;&amp;nbsp; &amp;nbsp; type: PlacementMisconfigured&lt;/div&gt;&lt;div&gt;&amp;nbsp; - lastTransitionTime: &quot;2024-04-03T03:17:46Z&quot;&lt;/div&gt;&lt;div&gt;&amp;nbsp; &amp;nbsp; message: All cluster decisions scheduled&lt;/div&gt;&lt;div&gt;&amp;nbsp; &amp;nbsp; reason: AllDecisionsScheduled&lt;/div&gt;&lt;div&gt;&amp;nbsp; &amp;nbsp; status: &quot;True&quot;&lt;/div&gt;&lt;div&gt;&amp;nbsp; &amp;nbsp; type: PlacementSatisfied&lt;/div&gt;&lt;div&gt;&amp;nbsp; decisionGroups:&lt;/div&gt;&lt;div&gt;&amp;nbsp; - clusterCount: 1&lt;/div&gt;&lt;div&gt;&amp;nbsp; &amp;nbsp; decisionGroupIndex: 0&lt;/div&gt;&lt;div&gt;&amp;nbsp; &amp;nbsp; decisionGroupName: &quot;&quot;&lt;/div&gt;&lt;div&gt;&amp;nbsp; &amp;nbsp; decisions:&lt;/div&gt;&lt;div&gt;&amp;nbsp; &amp;nbsp; - placement-decision-1&lt;/div&gt;&lt;div&gt;&amp;nbsp; numberOfSelectedClusters: 1&lt;/div&gt;" style="text;strokeColor=none;fillColor=default;align=left;verticalAlign=middle;spacingLeft=4;spacingRight=4;overflow=hidden;points=[[0,0.5],[1,0.5]];portConstraint=eastwest;rotatable=0;whiteSpace=wrap;html=1;" parent="Rm11WEUQjzfcoIPD6hnw-10" vertex="1">
          <mxGeometry y="30" width="580" height="580" as="geometry" />
        </mxCell>
      </root>
    </mxGraphModel>
  </diagram>
</mxfile>
